<?xml version="1.0" encoding="UTF-8" standalone="no"?>
<!DOCTYPE svg PUBLIC "-//W3C//DTD SVG 1.1//EN" "http://www.w3.org/Graphics/SVG/1.1/DTD/svg11.dtd">
<svg width="100%" height="100%" viewBox="0 0 800 800" version="1.1" xmlns="http://www.w3.org/2000/svg" xmlns:xlink="http://www.w3.org/1999/xlink" xml:space="preserve" xmlns:serif="http://www.serif.com/" style="fill-rule:evenodd;clip-rule:evenodd;stroke-linejoin:round;stroke-miterlimit:2;">
    <g transform="matrix(1.72133,0,0,1.72133,-165.794,97.5638)">
        <path d="M102.709,60.971L165.985,176.324L102.989,290.277L223.381,290.277L279.378,188.084L232.901,187.524L196.334,253.32L169.905,253.32L212.182,176.044L169.905,99.609L196.223,99.609L232.901,165.405L280.218,165.685L223.102,61.251L102.709,60.971Z" style="fill:white;"/>
    </g>
    <g transform="matrix(1.72133,0,0,1.72133,-165.794,97.5638)">
        <path d="M238.177,61.281L301.783,175.623L239.216,290.349L284.838,290.349L346.101,180.588L354.79,180.509L364.349,194.214L311.342,289.936L357.241,290.428L410.573,194.416L394.015,175.036L410.274,153.61L357.17,61.537L238.177,61.281ZM325.164,85.764L297.534,85.764L333.832,150.874L361.462,150.874L325.164,85.764Z" style="fill:white;"/>
    </g>
    <g transform="matrix(1.72133,0,0,1.72133,-165.794,97.5638)">
        <path d="M372.03,61.23L435.633,175.187L372.632,289.893L419.122,289.893L478.824,180.787L505.328,180.787L444.914,290.013L491.682,289.893L554.684,175.187L490.781,61.373L372.03,61.23ZM460.378,85.764L432.748,85.764L469.046,150.874L496.676,150.874L460.378,85.764Z" style="fill:white;"/>
    </g>
</svg>
