<?xml version="1.0" encoding="UTF-8" standalone="no"?>
<!DOCTYPE svg PUBLIC "-//W3C//DTD SVG 20010904//EN"
              "http://www.w3.org/TR/2001/REC-SVG-20010904/DTD/svg10.dtd">

<svg xmlns="http://www.w3.org/2000/svg"
     width="4.58554mm" height="5.64374mm"
     viewBox="0 0 13 16">
  <path id="Selection"
        fill="none" stroke="black" stroke-width="1"
        d="M 2.46,7.10
           C 2.38,7.01 2.33,6.87 2.19,6.85
             2.09,6.84 2.03,6.90 1.96,6.96
             1.81,7.08 1.76,7.11 1.63,7.26
             1.58,7.31 1.51,7.38 1.51,7.46
             1.52,7.51 1.56,7.53 1.58,7.62
             1.60,7.72 1.61,7.83 1.65,7.92
             1.65,7.92 1.91,8.40 1.91,8.40
             2.03,8.62 2.17,8.95 2.25,9.19
             2.25,9.19 2.30,9.42 2.30,9.42
             2.30,9.42 2.44,10.05 2.44,10.05
             2.46,10.14 2.48,10.37 2.51,10.43
             2.55,10.52 2.66,10.57 2.74,10.60
             2.82,10.62 2.89,10.62 2.92,10.71
             2.94,10.77 2.92,10.86 2.92,10.94
             2.92,10.94 2.94,11.41 2.94,11.41
             2.94,11.41 2.96,11.55 2.96,11.55
             2.96,11.55 2.96,11.72 2.96,11.72
             2.96,11.72 3.00,11.93 3.00,11.93
             3.00,11.93 3.04,12.18 3.04,12.18
             3.06,12.29 3.18,12.66 3.23,12.76
             3.30,12.92 3.57,13.32 3.70,13.45
             3.70,13.45 4.14,13.82 4.14,13.82
             4.14,13.82 4.57,14.21 4.57,14.21
             4.57,14.21 4.90,14.47 4.90,14.47
             5.31,14.79 5.47,14.92 5.95,15.13
             5.95,15.13 6.23,15.26 6.23,15.26
             6.23,15.26 6.69,15.33 6.69,15.33
             6.69,15.33 7.15,15.39 7.15,15.39
             7.15,15.39 7.66,15.35 7.66,15.35
             7.77,15.34 7.77,15.37 7.93,15.33
             8.50,15.19 8.86,14.88 9.34,14.57
             9.34,14.57 9.72,14.33 9.72,14.33
             9.72,14.33 9.97,14.15 9.97,14.15
             9.97,14.15 10.17,14.01 10.17,14.01
             10.17,14.01 10.56,13.66 10.56,13.66
             10.56,13.66 10.80,13.45 10.80,13.45
             10.97,13.28 11.20,12.96 11.30,12.74
             11.36,12.59 11.40,12.33 11.42,12.16
             11.42,12.16 11.50,11.53 11.50,11.53
             11.50,11.53 11.51,11.34 11.51,11.34
             11.51,11.34 11.51,11.03 11.51,11.03
             11.51,11.03 11.53,10.86 11.53,10.86
             11.53,10.80 11.52,10.71 11.56,10.66
             11.65,10.56 11.98,10.56 12.05,10.36
             12.08,10.26 12.08,10.09 12.09,9.98
             12.09,9.98 12.21,9.21 12.21,9.21
             12.23,9.10 12.32,8.96 12.36,8.84
             12.36,8.84 12.53,8.40 12.53,8.40
             12.53,8.40 12.60,8.17 12.60,8.17
             12.60,8.17 12.93,7.35 12.93,7.35
             12.96,7.26 13.02,7.09 12.99,7.01
             12.97,6.92 12.81,6.88 12.73,6.86
             12.65,6.84 12.48,6.75 12.41,6.76
             12.34,6.78 12.31,6.85 12.27,6.91
             12.20,7.00 12.14,7.06 12.06,7.14
             12.06,7.14 12.06,6.94 12.06,6.94
             12.04,6.82 12.03,6.88 12.03,6.70
             12.03,6.70 11.99,6.12 11.99,6.12
             11.99,6.12 12.01,5.95 12.01,5.95
             12.01,5.95 12.01,5.64 12.01,5.64
             12.01,5.64 11.99,5.29 11.99,5.29
             11.99,5.29 12.01,5.08 12.01,5.08
             12.01,5.08 11.95,4.60 11.95,4.60
             11.91,4.14 11.84,3.70 11.66,3.26
             11.60,3.12 11.26,2.55 11.16,2.42
             11.09,2.33 11.00,2.24 10.92,2.17
             10.92,2.17 10.67,1.92 10.67,1.92
             10.67,1.92 10.46,1.78 10.46,1.78
             10.16,1.57 10.05,1.50 9.72,1.34
             9.72,1.34 9.05,1.04 9.05,1.04
             8.79,0.95 8.28,0.87 8.01,0.86
             8.01,0.86 7.51,0.84 7.51,0.84
             7.51,0.84 7.22,0.82 7.22,0.82
             7.22,0.82 6.75,0.82 6.75,0.82
             6.48,0.83 6.22,0.90 5.97,0.95
             5.60,1.01 5.69,1.01 5.38,1.10
             5.38,1.10 5.01,1.19 5.01,1.19
             4.59,1.35 4.27,1.58 3.93,1.88
             3.82,1.98 3.68,2.08 3.59,2.19
             3.47,2.33 3.29,2.63 3.19,2.80
             3.12,2.93 2.92,3.26 2.88,3.40
             2.88,3.40 2.74,4.30 2.74,4.30
             2.74,4.30 2.65,4.95 2.65,4.95
             2.65,4.95 2.65,5.20 2.65,5.20
             2.65,5.20 2.61,5.70 2.61,5.70
             2.61,5.70 2.61,5.89 2.61,5.89
             2.61,5.89 2.57,6.35 2.57,6.35
             2.57,6.51 2.56,6.66 2.53,6.81
             2.53,6.81 2.46,7.10 2.46,7.10 Z
           M 7.26,1.02
           C 7.26,1.02 7.26,1.04 7.26,1.04
             7.26,1.04 7.24,1.02 7.24,1.02
             7.24,1.02 7.26,1.02 7.26,1.02 Z
           M 6.84,1.04
           C 6.84,1.04 6.84,1.06 6.84,1.06
             6.84,1.06 6.82,1.04 6.82,1.04
             6.82,1.04 6.84,1.04 6.84,1.04 Z
           M 6.63,1.06
           C 6.63,1.06 6.63,1.07 6.63,1.07
             6.63,1.07 6.61,1.06 6.61,1.06
             6.61,1.06 6.63,1.06 6.63,1.06 Z
           M 6.46,1.07
           C 6.46,1.07 6.46,1.09 6.46,1.09
             6.46,1.09 6.44,1.07 6.44,1.07
             6.44,1.07 6.46,1.07 6.46,1.07 Z
           M 8.62,1.11
           C 8.62,1.11 8.62,1.13 8.62,1.13
             8.62,1.13 8.60,1.11 8.60,1.11
             8.60,1.11 8.62,1.11 8.62,1.11 Z
           M 9.21,1.30
           C 9.21,1.30 9.21,1.32 9.21,1.32
             9.21,1.32 9.19,1.30 9.19,1.30
             9.19,1.30 9.21,1.30 9.21,1.30 Z
           M 5.51,1.34
           C 5.51,1.34 5.51,1.36 5.51,1.36
             5.51,1.36 5.49,1.34 5.49,1.34
             5.49,1.34 5.51,1.34 5.51,1.34 Z
           M 9.66,1.53
           C 9.66,1.53 9.66,1.55 9.66,1.55
             9.66,1.55 9.65,1.53 9.65,1.53
             9.65,1.53 9.66,1.53 9.66,1.53 Z
           M 4.61,1.75
           C 4.61,1.75 4.61,1.76 4.61,1.76
             4.61,1.76 4.59,1.75 4.59,1.75
             4.59,1.75 4.61,1.75 4.61,1.75 Z
           M 10.58,2.09
           C 10.58,2.09 10.58,2.11 10.58,2.11
             10.58,2.11 10.56,2.09 10.56,2.09
             10.56,2.09 10.58,2.09 10.58,2.09 Z
           M 3.85,2.28
           C 3.85,2.28 3.85,2.30 3.85,2.30
             3.85,2.30 3.83,2.28 3.83,2.28
             3.83,2.28 3.85,2.28 3.85,2.28 Z
           M 3.58,2.61
           C 3.58,2.61 3.58,2.63 3.58,2.63
             3.58,2.63 3.56,2.61 3.56,2.61
             3.56,2.61 3.58,2.61 3.58,2.61 Z
           M 3.55,2.69
           C 3.55,2.69 3.55,2.71 3.55,2.71
             3.55,2.71 3.53,2.69 3.53,2.69
             3.53,2.69 3.55,2.69 3.55,2.69 Z
           M 11.13,2.69
           C 11.13,2.69 11.13,2.71 11.13,2.71
             11.13,2.71 11.11,2.69 11.11,2.69
             11.11,2.69 11.13,2.69 11.13,2.69 Z
           M 3.51,2.74
           C 3.51,2.74 3.51,2.76 3.51,2.76
             3.51,2.76 3.49,2.74 3.49,2.74
             3.49,2.74 3.51,2.74 3.51,2.74 Z
           M 11.13,2.74
           C 11.13,2.74 11.13,2.76 11.13,2.76
             11.13,2.76 11.11,2.74 11.11,2.74
             11.11,2.74 11.13,2.74 11.13,2.74 Z
           M 11.13,2.86
           C 11.13,2.86 11.13,2.88 11.13,2.88
             11.13,2.88 11.11,2.86 11.11,2.86
             11.11,2.86 11.13,2.86 11.13,2.86 Z
           M 3.34,3.03
           C 3.34,3.03 3.34,3.05 3.34,3.05
             3.34,3.05 3.32,3.03 3.32,3.03
             3.32,3.03 3.34,3.03 3.34,3.03 Z
           M 3.35,3.13
           C 3.35,3.13 3.35,3.15 3.35,3.15
             3.35,3.15 3.34,3.13 3.34,3.13
             3.34,3.13 3.35,3.13 3.35,3.13 Z
           M 11.17,3.30
           C 11.17,3.30 11.17,3.32 11.17,3.32
             11.17,3.32 11.15,3.30 11.15,3.30
             11.15,3.30 11.17,3.30 11.17,3.30 Z
           M 11.15,3.34
           C 11.15,3.34 11.15,3.36 11.15,3.36
             11.15,3.36 11.13,3.34 11.13,3.34
             11.13,3.34 11.15,3.34 11.15,3.34 Z
           M 11.38,3.53
           C 11.38,3.53 11.38,3.55 11.38,3.55
             11.38,3.55 11.36,3.53 11.36,3.53
             11.36,3.53 11.38,3.53 11.38,3.53 Z
           M 11.46,3.63
           C 11.46,3.63 11.46,3.65 11.46,3.65
             11.46,3.65 11.44,3.63 11.44,3.63
             11.44,3.63 11.46,3.63 11.46,3.63 Z
           M 11.13,3.65
           C 11.13,3.65 11.13,3.66 11.13,3.66
             11.13,3.66 11.11,3.65 11.11,3.65
             11.11,3.65 11.13,3.65 11.13,3.65 Z
           M 3.20,3.66
           C 3.20,3.66 3.20,3.68 3.20,3.68
             3.20,3.68 3.18,3.66 3.18,3.66
             3.18,3.66 3.20,3.66 3.20,3.66 Z
           M 11.32,3.68
           C 11.32,3.68 11.32,3.70 11.32,3.70
             11.32,3.70 11.30,3.68 11.30,3.68
             11.30,3.68 11.32,3.68 11.32,3.68 Z
           M 3.11,3.70
           C 3.11,3.70 3.11,3.72 3.11,3.72
             3.11,3.72 3.09,3.70 3.09,3.70
             3.09,3.70 3.11,3.70 3.11,3.70 Z
           M 11.11,3.70
           C 11.11,3.70 11.11,3.72 11.11,3.72
             11.11,3.72 11.09,3.70 11.09,3.70
             11.09,3.70 11.11,3.70 11.11,3.70 Z
           M 3.03,3.97
           C 3.03,3.97 3.30,4.37 3.30,4.37
             3.20,4.30 2.99,4.10 3.03,3.97 Z
           M 3.09,3.99
           C 3.09,3.99 3.09,4.01 3.09,4.01
             3.09,4.01 3.07,3.99 3.07,3.99
             3.07,3.99 3.09,3.99 3.09,3.99 Z
           M 3.13,4.05
           C 3.13,4.05 3.13,4.07 3.13,4.07
             3.13,4.07 3.11,4.05 3.11,4.05
             3.11,4.05 3.13,4.05 3.13,4.05 Z
           M 3.01,4.11
           C 3.01,4.11 3.01,4.12 3.01,4.12
             3.01,4.12 2.99,4.11 2.99,4.11
             2.99,4.11 3.01,4.11 3.01,4.11 Z
           M 11.06,4.12
           C 11.06,4.12 11.06,4.14 11.06,4.14
             11.06,4.14 11.04,4.12 11.04,4.12
             11.04,4.12 11.06,4.12 11.06,4.12 Z
           M 11.06,4.20
           C 11.06,4.20 11.06,4.22 11.06,4.22
             11.06,4.22 11.04,4.20 11.04,4.20
             11.04,4.20 11.06,4.20 11.06,4.20 Z
           M 11.59,4.26
           C 11.59,4.26 11.59,4.28 11.59,4.28
             11.59,4.28 11.57,4.26 11.57,4.26
             11.57,4.26 11.59,4.26 11.59,4.26 Z
           M 2.99,4.28
           C 2.99,4.28 2.99,4.30 2.99,4.30
             2.99,4.30 2.97,4.28 2.97,4.28
             2.97,4.28 2.99,4.28 2.99,4.28 Z
           M 11.44,4.30
           C 11.44,4.30 11.44,4.32 11.44,4.32
             11.44,4.32 11.42,4.30 11.42,4.30
             11.42,4.30 11.44,4.30 11.44,4.30 Z
           M 11.57,4.30
           C 11.57,4.30 11.57,4.32 11.57,4.32
             11.57,4.32 11.55,4.30 11.55,4.30
             11.55,4.30 11.57,4.30 11.57,4.30 Z
           M 11.00,4.35
           C 11.00,4.35 11.00,4.37 11.00,4.37
             11.00,4.37 10.98,4.35 10.98,4.35
             10.98,4.35 11.00,4.35 11.00,4.35 Z
           M 3.45,4.39
           C 3.45,4.39 3.45,4.41 3.45,4.41
             3.45,4.41 3.43,4.39 3.43,4.39
             3.43,4.39 3.45,4.39 3.45,4.39 Z
           M 11.68,4.43
           C 11.68,4.43 11.68,4.45 11.68,4.45
             11.68,4.45 11.67,4.43 11.67,4.43
             11.67,4.43 11.68,4.43 11.68,4.43 Z
           M 2.97,4.45
           C 2.97,4.45 2.97,4.47 2.97,4.47
             2.97,4.47 2.95,4.45 2.95,4.45
             2.95,4.45 2.97,4.45 2.97,4.45 Z
           M 3.03,4.45
           C 3.03,4.45 3.03,4.47 3.03,4.47
             3.03,4.47 3.01,4.45 3.01,4.45
             3.01,4.45 3.03,4.45 3.03,4.45 Z
           M 11.48,4.45
           C 11.48,4.45 11.48,4.47 11.48,4.47
             11.48,4.47 11.46,4.45 11.46,4.45
             11.46,4.45 11.48,4.45 11.48,4.45 Z
           M 3.43,4.49
           C 3.43,4.49 3.43,4.51 3.43,4.51
             3.43,4.51 3.41,4.49 3.41,4.49
             3.41,4.49 3.43,4.49 3.43,4.49 Z
           M 3.20,4.51
           C 3.20,4.51 3.20,4.53 3.20,4.53
             3.20,4.53 3.18,4.51 3.18,4.51
             3.18,4.51 3.20,4.51 3.20,4.51 Z
           M 3.05,4.53
           C 3.05,4.53 3.05,4.55 3.05,4.55
             3.05,4.55 3.03,4.53 3.03,4.53
             3.03,4.53 3.05,4.53 3.05,4.53 Z
           M 11.48,4.53
           C 11.48,4.53 11.48,4.55 11.48,4.55
             11.48,4.55 11.46,4.53 11.46,4.53
             11.46,4.53 11.48,4.53 11.48,4.53 Z
           M 10.81,4.59
           C 10.81,4.59 10.81,4.60 10.81,4.60
             10.81,4.60 10.79,4.59 10.79,4.59
             10.79,4.59 10.81,4.59 10.81,4.59 Z
           M 2.99,4.62
           C 2.99,4.62 2.99,4.64 2.99,4.64
             2.99,4.64 2.97,4.62 2.97,4.62
             2.97,4.62 2.99,4.62 2.99,4.62 Z
           M 3.15,4.64
           C 3.15,4.64 3.15,4.66 3.15,4.66
             3.15,4.66 3.13,4.64 3.13,4.64
             3.13,4.64 3.15,4.64 3.15,4.64 Z
           M 10.81,4.64
           C 10.81,4.64 10.81,4.66 10.81,4.66
             10.81,4.66 10.79,4.64 10.79,4.64
             10.79,4.64 10.81,4.64 10.81,4.64 Z
           M 2.95,4.66
           C 2.95,4.66 2.95,4.68 2.95,4.68
             2.95,4.68 2.94,4.66 2.94,4.66
             2.94,4.66 2.95,4.66 2.95,4.66 Z
           M 3.62,4.82
           C 3.62,4.82 3.62,4.83 3.62,4.83
             3.62,4.83 3.60,4.82 3.60,4.82
             3.60,4.82 3.62,4.82 3.62,4.82 Z
           M 11.17,4.82
           C 11.17,4.82 11.17,4.83 11.17,4.83
             11.17,4.83 11.15,4.82 11.15,4.82
             11.15,4.82 11.17,4.82 11.17,4.82 Z
           M 11.34,4.83
           C 11.34,4.83 11.34,4.85 11.34,4.85
             11.34,4.85 11.32,4.83 11.32,4.83
             11.32,4.83 11.34,4.83 11.34,4.83 Z
           M 11.76,4.83
           C 11.76,4.83 11.76,4.85 11.76,4.85
             11.76,4.85 11.74,4.83 11.74,4.83
             11.74,4.83 11.76,4.83 11.76,4.83 Z
           M 3.11,4.85
           C 3.11,4.85 3.11,4.87 3.11,4.87
             3.11,4.87 3.09,4.85 3.09,4.85
             3.09,4.85 3.11,4.85 3.11,4.85 Z
           M 11.21,4.87
           C 11.21,4.87 11.21,4.89 11.21,4.89
             11.21,4.89 11.19,4.87 11.19,4.87
             11.19,4.87 11.21,4.87 11.21,4.87 Z
           M 11.59,4.89
           C 11.59,4.89 11.59,4.91 11.59,4.91
             11.59,4.91 11.57,4.89 11.57,4.89
             11.57,4.89 11.59,4.89 11.59,4.89 Z
           M 3.07,4.93
           C 3.07,4.93 3.07,4.95 3.07,4.95
             3.07,4.95 3.05,4.93 3.05,4.93
             3.05,4.93 3.07,4.93 3.07,4.93 Z
           M 3.47,4.95
           C 3.47,4.95 3.47,4.97 3.47,4.97
             3.47,4.97 3.45,4.95 3.45,4.95
             3.45,4.95 3.47,4.95 3.47,4.95 Z
           M 3.95,5.03
           C 3.95,5.03 3.95,5.05 3.95,5.05
             3.95,5.05 3.93,5.03 3.93,5.03
             3.93,5.03 3.95,5.03 3.95,5.03 Z
           M 11.55,5.03
           C 11.55,5.03 11.55,5.05 11.55,5.05
             11.55,5.05 11.53,5.03 11.53,5.03
             11.53,5.03 11.55,5.03 11.55,5.03 Z
           M 11.67,5.03
           C 11.67,5.03 11.67,5.05 11.67,5.05
             11.67,5.05 11.65,5.03 11.65,5.03
             11.65,5.03 11.67,5.03 11.67,5.03 Z
           M 11.72,5.03
           C 11.72,5.03 11.72,5.05 11.72,5.05
             11.72,5.05 11.70,5.03 11.70,5.03
             11.70,5.03 11.72,5.03 11.72,5.03 Z
           M 11.25,5.05
           C 11.25,5.05 11.25,5.06 11.25,5.06
             11.25,5.06 11.23,5.05 11.23,5.05
             11.23,5.05 11.25,5.05 11.25,5.05 Z
           M 3.39,5.06
           C 3.39,5.06 3.39,5.08 3.39,5.08
             3.39,5.08 3.37,5.06 3.37,5.06
             3.37,5.06 3.39,5.06 3.39,5.06 Z
           M 10.92,5.06
           C 10.92,5.06 10.92,5.08 10.92,5.08
             10.92,5.08 10.90,5.06 10.90,5.06
             10.90,5.06 10.92,5.06 10.92,5.06 Z
           M 2.99,5.08
           C 2.99,5.08 2.99,5.10 2.99,5.10
             2.99,5.10 2.97,5.08 2.97,5.08
             2.97,5.08 2.99,5.08 2.99,5.08 Z
           M 11.68,5.08
           C 11.68,5.08 11.68,5.10 11.68,5.10
             11.68,5.10 11.67,5.08 11.67,5.08
             11.67,5.08 11.68,5.08 11.68,5.08 Z
           M 3.20,5.12
           C 3.20,5.12 3.20,5.14 3.20,5.14
             3.20,5.14 3.18,5.12 3.18,5.12
             3.18,5.12 3.20,5.12 3.20,5.12 Z
           M 11.04,5.12
           C 11.04,5.12 11.04,5.14 11.04,5.14
             11.04,5.14 11.02,5.12 11.02,5.12
             11.02,5.12 11.04,5.12 11.04,5.12 Z
           M 11.06,5.16
           C 11.06,5.16 11.06,5.18 11.06,5.18
             11.06,5.18 11.04,5.16 11.04,5.16
             11.04,5.16 11.06,5.16 11.06,5.16 Z
           M 11.63,5.16
           C 11.63,5.16 11.63,5.18 11.63,5.18
             11.63,5.18 11.61,5.16 11.61,5.16
             11.61,5.16 11.63,5.16 11.63,5.16 Z
           M 3.13,5.18
           C 3.13,5.18 3.13,5.20 3.13,5.20
             3.13,5.20 3.11,5.18 3.11,5.18
             3.11,5.18 3.13,5.18 3.13,5.18 Z
           M 11.38,5.18
           C 11.38,5.18 11.38,5.20 11.38,5.20
             11.38,5.20 11.36,5.18 11.36,5.18
             11.36,5.18 11.38,5.18 11.38,5.18 Z
           M 3.53,5.20
           C 3.53,5.20 3.53,5.22 3.53,5.22
             3.53,5.22 3.51,5.20 3.51,5.20
             3.51,5.20 3.53,5.20 3.53,5.20 Z
           M 3.55,5.22
           C 3.55,5.22 3.55,5.24 3.55,5.24
             3.55,5.24 3.53,5.22 3.53,5.22
             3.53,5.22 3.55,5.22 3.55,5.22 Z
           M 11.40,5.24
           C 11.40,5.24 11.40,5.26 11.40,5.26
             11.40,5.26 11.38,5.24 11.38,5.24
             11.38,5.24 11.40,5.24 11.40,5.24 Z
           M 11.57,5.24
           C 11.57,5.24 11.57,5.26 11.57,5.26
             11.57,5.26 11.55,5.24 11.55,5.24
             11.55,5.24 11.57,5.24 11.57,5.24 Z
           M 2.95,5.26
           C 2.95,5.26 2.95,5.28 2.95,5.28
             2.95,5.28 2.94,5.26 2.94,5.26
             2.94,5.26 2.95,5.26 2.95,5.26 Z
           M 11.07,5.28
           C 11.07,5.28 11.07,5.29 11.07,5.29
             11.07,5.29 11.06,5.28 11.06,5.28
             11.06,5.28 11.07,5.28 11.07,5.28 Z
           M 11.53,5.29
           C 11.53,5.29 11.53,5.31 11.53,5.31
             11.53,5.31 11.51,5.29 11.51,5.29
             11.51,5.29 11.53,5.29 11.53,5.29 Z
           M 11.28,5.31
           C 11.28,5.31 11.28,5.33 11.28,5.33
             11.28,5.33 11.27,5.31 11.27,5.31
             11.27,5.31 11.28,5.31 11.28,5.31 Z
           M 11.34,5.31
           C 11.34,5.31 11.34,5.33 11.34,5.33
             11.34,5.33 11.32,5.31 11.32,5.31
             11.32,5.31 11.34,5.31 11.34,5.31 Z
           M 3.01,5.33
           C 3.01,5.33 3.01,5.35 3.01,5.35
             3.01,5.35 2.99,5.33 2.99,5.33
             2.99,5.33 3.01,5.33 3.01,5.33 Z
           M 3.51,5.33
           C 3.51,5.33 3.51,5.35 3.51,5.35
             3.51,5.35 3.49,5.33 3.49,5.33
             3.49,5.33 3.51,5.33 3.51,5.33 Z
           M 3.18,5.39
           C 3.18,5.39 3.18,5.41 3.18,5.41
             3.18,5.41 3.16,5.39 3.16,5.39
             3.16,5.39 3.18,5.39 3.18,5.39 Z
           M 3.24,5.39
           C 3.24,5.39 3.24,5.41 3.24,5.41
             3.24,5.41 3.22,5.39 3.22,5.39
             3.22,5.39 3.24,5.39 3.24,5.39 Z
           M 2.97,5.43
           C 2.97,5.43 2.97,5.45 2.97,5.45
             2.97,5.45 2.95,5.43 2.95,5.43
             2.95,5.43 2.97,5.43 2.97,5.43 Z
           M 11.78,5.45
           C 11.78,5.45 11.78,5.47 11.78,5.47
             11.78,5.47 11.76,5.45 11.76,5.45
             11.76,5.45 11.78,5.45 11.78,5.45 Z
           M 3.32,5.51
           C 3.32,5.51 3.32,5.53 3.32,5.53
             3.32,5.53 3.30,5.51 3.30,5.51
             3.30,5.51 3.32,5.51 3.32,5.51 Z
           M 11.68,5.51
           C 11.68,5.51 11.68,5.53 11.68,5.53
             11.68,5.53 11.67,5.51 11.67,5.51
             11.67,5.51 11.68,5.51 11.68,5.51 Z
           M 11.53,5.54
           C 11.53,5.54 11.53,5.56 11.53,5.56
             11.53,5.56 11.51,5.54 11.51,5.54
             11.51,5.54 11.53,5.54 11.53,5.54 Z
           M 2.92,5.56
           C 2.92,5.56 2.92,5.58 2.92,5.58
             2.92,5.58 2.90,5.56 2.90,5.56
             2.90,5.56 2.92,5.56 2.92,5.56 Z
           M 3.22,5.60
           C 3.22,5.60 3.22,5.62 3.22,5.62
             3.22,5.62 3.20,5.60 3.20,5.60
             3.20,5.60 3.22,5.60 3.22,5.60 Z
           M 11.40,5.64
           C 11.40,5.64 11.40,5.66 11.40,5.66
             11.40,5.66 11.38,5.64 11.38,5.64
             11.38,5.64 11.40,5.64 11.40,5.64 Z
           M 11.44,5.66
           C 11.44,5.66 11.44,5.68 11.44,5.68
             11.44,5.68 11.42,5.66 11.42,5.66
             11.42,5.66 11.44,5.66 11.44,5.66 Z
           M 2.90,5.72
           C 2.90,5.72 2.90,5.74 2.90,5.74
             2.90,5.74 2.88,5.72 2.88,5.72
             2.88,5.72 2.90,5.72 2.90,5.72 Z
           M 11.82,5.74
           C 11.82,5.74 11.82,5.76 11.82,5.76
             11.82,5.76 11.80,5.74 11.80,5.74
             11.80,5.74 11.82,5.74 11.82,5.74 Z
           M 11.80,5.87
           C 11.80,5.87 11.80,5.89 11.80,5.89
             11.80,5.89 11.78,5.87 11.78,5.87
             11.78,5.87 11.80,5.87 11.80,5.87 Z
           M 2.88,5.91
           C 2.88,5.91 2.88,5.93 2.88,5.93
             2.88,5.93 2.86,5.91 2.86,5.91
             2.86,5.91 2.88,5.91 2.88,5.91 Z
           M 11.40,5.93
           C 11.40,5.93 11.40,5.95 11.40,5.95
             11.40,5.95 11.38,5.93 11.38,5.93
             11.38,5.93 11.40,5.93 11.40,5.93 Z
           M 2.95,5.97
           C 2.95,5.97 2.95,5.99 2.95,5.99
             2.95,5.99 2.94,5.97 2.94,5.97
             2.94,5.97 2.95,5.97 2.95,5.97 Z
           M 3.01,6.00
           C 3.01,6.00 3.01,6.02 3.01,6.02
             3.01,6.02 2.99,6.00 2.99,6.00
             2.99,6.00 3.01,6.00 3.01,6.00 Z
           M 11.49,6.33
           C 11.49,6.33 11.49,6.35 11.49,6.35
             11.49,6.35 11.48,6.33 11.48,6.33
             11.48,6.33 11.49,6.33 11.49,6.33 Z
           M 2.92,6.35
           C 2.92,6.35 2.92,6.37 2.92,6.37
             2.92,6.37 2.90,6.35 2.90,6.35
             2.90,6.35 2.92,6.35 2.92,6.35 Z
           M 2.95,6.37
           C 2.95,6.37 2.95,6.39 2.95,6.39
             2.95,6.39 2.94,6.37 2.94,6.37
             2.94,6.37 2.95,6.37 2.95,6.37 Z
           M 2.97,6.41
           C 2.97,6.41 2.97,6.43 2.97,6.43
             2.97,6.43 2.95,6.41 2.95,6.41
             2.95,6.41 2.97,6.41 2.97,6.41 Z
           M 3.09,6.45
           C 3.09,6.45 3.09,6.47 3.09,6.47
             3.09,6.47 3.07,6.45 3.07,6.45
             3.07,6.45 3.09,6.45 3.09,6.45 Z
           M 11.63,6.45
           C 11.63,6.45 11.63,6.47 11.63,6.47
             11.63,6.47 11.61,6.45 11.61,6.45
             11.61,6.45 11.63,6.45 11.63,6.45 Z
           M 11.61,6.47
           C 11.61,6.47 11.61,6.48 11.61,6.48
             11.61,6.48 11.59,6.47 11.59,6.47
             11.59,6.47 11.61,6.47 11.61,6.47 Z
           M 11.53,6.48
           C 11.53,6.48 11.53,6.50 11.53,6.50
             11.53,6.50 11.51,6.48 11.51,6.48
             11.51,6.48 11.53,6.48 11.53,6.48 Z
           M 2.94,6.50
           C 2.94,6.50 2.94,6.52 2.94,6.52
             2.94,6.52 2.92,6.50 2.92,6.50
             2.92,6.50 2.94,6.50 2.94,6.50 Z
           M 2.90,6.52
           C 2.90,6.52 2.90,6.54 2.90,6.54
             2.90,6.54 2.88,6.52 2.88,6.52
             2.88,6.52 2.90,6.52 2.90,6.52 Z
           M 11.55,6.52
           C 11.55,6.52 11.55,6.54 11.55,6.54
             11.55,6.54 11.53,6.52 11.53,6.52
             11.53,6.52 11.55,6.52 11.55,6.52 Z
           M 2.97,6.54
           C 2.97,6.54 2.97,6.56 2.97,6.56
             2.97,6.56 2.95,6.54 2.95,6.54
             2.95,6.54 2.97,6.54 2.97,6.54 Z
           M 11.70,6.73
           C 11.70,6.73 11.70,6.75 11.70,6.75
             11.70,6.75 11.68,6.73 11.68,6.73
             11.68,6.73 11.70,6.73 11.70,6.73 Z
           M 11.67,6.77
           C 11.67,6.77 11.67,6.79 11.67,6.79
             11.67,6.79 11.65,6.77 11.65,6.77
             11.65,6.77 11.67,6.77 11.67,6.77 Z
           M 2.88,6.79
           C 2.88,6.79 2.88,6.81 2.88,6.81
             2.88,6.81 2.86,6.79 2.86,6.79
             2.86,6.79 2.88,6.79 2.88,6.79 Z
           M 11.65,6.79
           C 11.65,6.79 11.65,6.81 11.65,6.81
             11.65,6.81 11.63,6.79 11.63,6.79
             11.63,6.79 11.65,6.79 11.65,6.79 Z
           M 11.63,6.81
           C 11.63,6.81 11.63,6.83 11.63,6.83
             11.63,6.83 11.61,6.81 11.61,6.81
             11.61,6.81 11.63,6.81 11.63,6.81 Z
           M 2.97,6.85
           C 2.97,6.85 2.97,6.87 2.97,6.87
             2.97,6.87 2.95,6.85 2.95,6.85
             2.95,6.85 2.97,6.85 2.97,6.85 Z
           M 11.78,6.96
           C 11.78,6.96 11.78,6.98 11.78,6.98
             11.78,6.98 11.76,6.96 11.76,6.96
             11.76,6.96 11.78,6.96 11.78,6.96 Z
           M 12.47,7.85
           C 12.47,7.85 12.49,7.64 12.49,7.64
             12.49,7.64 12.37,7.64 12.37,7.64
             12.37,7.64 12.35,8.21 12.35,8.21
             12.35,8.44 12.30,8.43 12.23,8.63
             12.23,8.63 12.04,9.15 12.04,9.15
             12.04,9.15 11.70,9.71 11.70,9.71
             11.70,9.71 11.93,9.57 11.93,9.57
             11.93,9.57 11.88,10.11 11.88,10.11
             11.88,10.15 11.88,10.26 11.86,10.29
             11.82,10.34 11.60,10.43 11.53,10.44
             11.53,10.44 11.55,10.01 11.55,10.01
             11.55,10.01 11.67,9.42 11.67,9.42
             11.67,9.42 11.81,9.06 11.81,9.06
             11.81,9.06 11.84,8.92 11.84,8.92
             11.84,8.92 12.03,8.44 12.03,8.44
             12.03,8.44 12.32,7.67 12.32,7.67
             12.32,7.67 12.62,7.04 12.62,7.04
             12.67,7.05 12.72,7.07 12.74,7.12
             12.76,7.17 12.74,7.24 12.73,7.29
             12.69,7.45 12.66,7.55 12.59,7.69
             12.55,7.77 12.54,7.80 12.47,7.85 Z
           M 11.74,7.16
           C 11.74,7.16 11.74,7.18 11.74,7.18
             11.74,7.18 11.72,7.16 11.72,7.16
             11.72,7.16 11.74,7.16 11.74,7.16 Z
           M 12.43,7.16
           C 12.43,7.16 12.32,7.41 12.32,7.41
             12.32,7.41 12.12,7.90 12.12,7.90
             12.12,7.90 11.85,8.65 11.85,8.65
             11.85,8.65 11.77,8.96 11.77,8.96
             11.77,8.96 11.61,9.55 11.61,9.55
             11.57,9.47 11.60,9.44 11.61,9.36
             11.61,9.36 11.59,9.19 11.59,9.19
             11.59,9.19 11.62,8.92 11.62,8.92
             11.62,8.92 11.71,8.25 11.71,8.25
             11.71,8.25 11.78,7.94 11.78,7.94
             11.81,7.87 11.93,7.74 11.98,7.67
             12.09,7.55 12.31,7.24 12.43,7.16 Z
           M 2.92,9.55
           C 2.86,9.47 2.82,9.18 2.79,9.07
             2.75,8.89 2.73,8.90 2.67,8.77
             2.67,8.77 2.58,8.54 2.58,8.54
             2.52,8.38 2.25,7.88 2.15,7.75
             2.09,7.68 2.03,7.60 1.96,7.55
             1.96,7.55 1.84,7.45 1.84,7.45
             1.79,7.38 1.88,7.28 1.93,7.24
             2.10,7.09 2.41,7.37 2.54,7.48
             2.57,7.51 2.63,7.57 2.66,7.60
             2.71,7.67 2.75,8.01 2.77,8.12
             2.91,8.81 2.92,8.84 2.92,9.55 Z
           M 2.92,7.18
           C 2.92,7.18 2.92,7.19 2.92,7.19
             2.92,7.19 2.90,7.18 2.90,7.18
             2.90,7.18 2.92,7.18 2.92,7.18 Z
           M 4.33,7.37
           C 4.33,7.37 4.33,7.39 4.33,7.39
             4.33,7.39 4.31,7.37 4.31,7.37
             4.31,7.37 4.33,7.37 4.33,7.37 Z
           M 11.67,7.41
           C 11.65,7.48 11.65,7.48 11.59,7.52
             11.60,7.45 11.60,7.44 11.67,7.41 Z
           M 4.14,7.42
           C 4.14,7.42 4.14,7.44 4.14,7.44
             4.14,7.44 4.12,7.42 4.12,7.42
             4.12,7.42 4.14,7.42 4.14,7.42 Z
           M 4.08,7.44
           C 4.08,7.44 4.08,7.46 4.08,7.46
             4.08,7.46 4.06,7.44 4.06,7.44
             4.06,7.44 4.08,7.44 4.08,7.44 Z
           M 4.94,7.44
           C 4.94,7.44 4.94,7.46 4.94,7.46
             4.94,7.46 4.92,7.44 4.92,7.44
             4.92,7.44 4.94,7.44 4.94,7.44 Z
           M 2.23,8.73
           C 2.15,8.68 2.12,8.55 2.08,8.46
             2.08,8.46 1.82,7.90 1.82,7.90
             1.76,7.78 1.72,7.69 1.75,7.56
             1.89,7.62 2.08,7.82 2.12,7.96
             2.12,7.96 2.14,8.13 2.14,8.13
             2.14,8.13 2.21,8.44 2.21,8.44
             2.21,8.44 2.23,8.73 2.23,8.73 Z
           M 10.46,8.10
           C 10.33,8.17 10.30,8.24 10.14,8.27
             10.14,8.27 10.39,8.10 10.39,8.10
             10.39,8.10 10.39,8.06 10.39,8.06
             10.39,8.06 10.20,7.91 10.20,7.91
             10.20,7.91 9.97,7.83 9.97,7.83
             9.97,8.01 10.02,8.10 9.85,8.24
             9.72,8.35 9.40,8.38 9.27,8.24
             9.19,8.16 9.19,8.09 9.19,7.98
             9.06,8.01 8.88,8.09 8.79,8.19
             8.90,8.21 9.07,8.20 9.04,8.35
             9.04,8.35 8.63,8.25 8.63,8.25
             8.69,8.12 8.76,8.09 8.86,8.00
             9.13,7.79 9.53,7.65 9.87,7.65
             10.17,7.66 10.33,7.86 10.46,8.10 Z
           M 3.62,7.71
           C 3.62,7.71 3.62,7.73 3.62,7.73
             3.62,7.73 3.60,7.71 3.60,7.71
             3.60,7.71 3.62,7.71 3.62,7.71 Z
           M 6.27,7.77
           C 6.27,7.77 6.27,7.79 6.27,7.79
             6.27,7.79 6.25,7.77 6.25,7.77
             6.25,7.77 6.27,7.77 6.27,7.77 Z
           M 11.55,7.85
           C 11.55,7.85 11.55,7.87 11.55,7.87
             11.55,7.87 11.53,7.85 11.53,7.85
             11.53,7.85 11.55,7.85 11.55,7.85 Z
           M 3.09,7.88
           C 3.09,7.88 3.09,7.90 3.09,7.90
             3.09,7.90 3.07,7.88 3.07,7.88
             3.07,7.88 3.09,7.88 3.09,7.88 Z
           M 6.14,7.88
           C 6.14,7.88 6.14,7.90 6.14,7.90
             6.14,7.90 6.12,7.88 6.12,7.88
             6.12,7.88 6.14,7.88 6.14,7.88 Z
           M 5.30,7.96
           C 5.30,8.03 5.30,8.09 5.26,8.15
             5.17,8.28 4.94,8.35 4.80,8.26
             4.74,8.21 4.63,8.04 4.70,7.96
             4.74,7.92 4.86,7.91 4.92,7.90
             5.08,7.90 5.15,7.93 5.30,7.96 Z
           M 8.24,7.90
           C 8.24,7.90 8.24,8.25 8.24,8.25
             8.24,8.25 8.50,8.65 8.50,8.65
             8.36,8.63 8.16,8.58 8.07,8.46
             7.98,8.33 8.02,8.03 8.15,7.94
             8.18,7.91 8.20,7.91 8.24,7.90 Z
           M 5.62,7.92
           C 5.62,7.92 5.62,7.94 5.62,7.94
             5.62,7.94 5.60,7.92 5.60,7.92
             5.60,7.92 5.62,7.92 5.62,7.92 Z
           M 5.74,7.92
           C 5.74,7.92 5.74,7.94 5.74,7.94
             5.74,7.94 5.72,7.92 5.72,7.92
             5.72,7.92 5.74,7.92 5.74,7.92 Z
           M 3.70,7.94
           C 3.70,7.94 3.70,7.96 3.70,7.96
             3.70,7.96 3.68,7.94 3.68,7.94
             3.68,7.94 3.70,7.94 3.70,7.94 Z
           M 9.54,7.94
           C 9.45,8.01 9.54,8.07 9.60,8.05
             9.65,8.02 9.65,7.93 9.54,7.94 Z
           M 4.98,8.00
           C 4.84,8.07 4.95,8.19 5.03,8.16
             5.10,8.14 5.11,8.00 4.98,8.00 Z
           M 5.62,8.00
           C 5.62,8.00 5.62,8.02 5.62,8.02
             5.62,8.02 5.60,8.00 5.60,8.00
             5.60,8.00 5.62,8.00 5.62,8.00 Z
           M 6.10,8.65
           C 6.17,8.51 6.30,8.46 6.30,8.35
             6.31,8.27 6.25,8.18 6.21,8.12
             6.20,8.09 6.18,8.05 6.21,8.02
             6.27,7.96 6.44,8.04 6.46,8.23
             6.47,8.28 6.46,8.37 6.44,8.42
             6.39,8.51 6.20,8.62 6.10,8.65 Z
           M 4.35,8.06
           C 4.35,8.06 4.35,8.08 4.35,8.08
             4.35,8.08 4.33,8.06 4.33,8.06
             4.33,8.06 4.35,8.06 4.35,8.06 Z
           M 4.61,8.06
           C 4.61,8.06 4.61,8.08 4.61,8.08
             4.61,8.08 4.59,8.06 4.59,8.06
             4.59,8.06 4.61,8.06 4.61,8.06 Z
           M 11.53,8.08
           C 11.53,8.08 11.53,8.10 11.53,8.10
             11.53,8.10 11.51,8.08 11.51,8.08
             11.51,8.08 11.53,8.08 11.53,8.08 Z
           M 4.61,8.10
           C 4.61,8.10 4.61,8.12 4.61,8.12
             4.61,8.12 4.59,8.10 4.59,8.10
             4.59,8.10 4.61,8.10 4.61,8.10 Z
           M 3.13,8.13
           C 3.13,8.13 3.13,8.15 3.13,8.15
             3.13,8.15 3.11,8.13 3.11,8.13
             3.11,8.13 3.13,8.13 3.13,8.13 Z
           M 7.89,8.15
           C 7.93,8.27 8.00,8.52 7.99,8.63
             7.99,8.78 7.92,8.93 7.89,9.07
             7.84,8.94 7.96,8.76 7.96,8.61
             7.96,8.49 7.86,8.29 7.83,8.15
             7.83,8.15 7.89,8.15 7.89,8.15 Z
           M 5.95,8.21
           C 5.95,8.21 5.95,8.23 5.95,8.23
             5.95,8.23 5.93,8.21 5.93,8.21
             5.93,8.21 5.95,8.21 5.95,8.21 Z
           M 4.16,8.23
           C 4.16,8.23 4.16,8.25 4.16,8.25
             4.16,8.25 4.14,8.23 4.14,8.23
             4.14,8.23 4.16,8.23 4.16,8.23 Z
           M 5.97,8.23
           C 5.97,8.23 5.97,8.25 5.97,8.25
             5.97,8.25 5.95,8.23 5.95,8.23
             5.95,8.23 5.97,8.23 5.97,8.23 Z
           M 2.29,8.25
           C 2.38,8.37 2.43,8.53 2.49,8.67
             2.49,8.67 2.71,9.21 2.71,9.21
             2.75,9.34 2.85,9.53 2.86,9.65
             2.86,9.65 2.93,9.65 2.93,9.65
             2.93,9.65 2.93,9.86 2.93,9.86
             2.93,9.86 2.93,9.98 2.93,9.98
             2.93,9.98 2.92,10.42 2.92,10.42
             2.78,10.41 2.74,10.34 2.68,10.23
             2.64,10.15 2.63,10.04 2.60,9.96
             2.60,9.96 2.48,9.44 2.48,9.44
             2.48,9.44 2.67,9.61 2.67,9.61
             2.67,9.61 2.34,9.04 2.34,9.04
             2.29,8.88 2.30,8.75 2.29,8.59
             2.27,8.49 2.25,8.35 2.29,8.25 Z
           M 6.00,8.25
           C 6.00,8.25 6.00,8.27 6.00,8.27
             6.00,8.27 5.99,8.25 5.99,8.25
             5.99,8.25 6.00,8.25 6.00,8.25 Z
           M 4.23,8.33
           C 4.23,8.33 4.23,8.35 4.23,8.35
             4.23,8.35 4.21,8.33 4.21,8.33
             4.21,8.33 4.23,8.33 4.23,8.33 Z
           M 5.78,8.33
           C 5.78,8.33 5.78,8.35 5.78,8.35
             5.78,8.35 5.76,8.33 5.76,8.33
             5.76,8.33 5.78,8.33 5.78,8.33 Z
           M 5.17,8.36
           C 5.17,8.36 5.17,8.38 5.17,8.38
             5.17,8.38 5.15,8.36 5.15,8.36
             5.15,8.36 5.17,8.36 5.17,8.36 Z
           M 11.46,8.65
           C 11.46,8.65 11.46,8.67 11.46,8.67
             11.46,8.67 11.44,8.65 11.44,8.65
             11.44,8.65 11.46,8.65 11.46,8.65 Z
           M 3.22,8.77
           C 3.22,8.77 3.22,8.79 3.22,8.79
             3.22,8.79 3.20,8.77 3.20,8.77
             3.20,8.77 3.22,8.77 3.22,8.77 Z
           M 11.38,9.30
           C 11.38,9.30 11.38,9.32 11.38,9.32
             11.38,9.32 11.36,9.30 11.36,9.30
             11.36,9.30 11.38,9.30 11.38,9.30 Z
           M 3.34,9.52
           C 3.34,9.52 3.34,9.53 3.34,9.53
             3.34,9.53 3.32,9.52 3.32,9.52
             3.32,9.52 3.34,9.52 3.34,9.52 Z
           M 3.39,9.90
           C 3.39,9.90 3.39,9.92 3.39,9.92
             3.39,9.92 3.37,9.90 3.37,9.90
             3.37,9.90 3.39,9.90 3.39,9.90 Z
           M 11.25,10.01
           C 11.25,10.01 11.25,10.03 11.25,10.03
             11.25,10.03 11.23,10.01 11.23,10.01
             11.23,10.01 11.25,10.01 11.25,10.01 Z
           M 11.17,10.21
           C 11.17,10.21 11.17,10.23 11.17,10.23
             11.17,10.23 11.15,10.21 11.15,10.21
             11.15,10.21 11.17,10.21 11.17,10.21 Z
           M 8.44,10.23
           C 8.44,10.23 8.44,10.24 8.44,10.24
             8.44,10.24 8.43,10.23 8.43,10.23
             8.43,10.23 8.44,10.23 8.44,10.23 Z
           M 8.43,10.26
           C 8.43,10.26 8.43,10.28 8.43,10.28
             8.43,10.28 8.41,10.26 8.41,10.26
             8.41,10.26 8.43,10.26 8.43,10.26 Z
           M 11.11,10.26
           C 11.11,10.26 11.11,10.28 11.11,10.28
             11.11,10.28 11.09,10.26 11.09,10.26
             11.09,10.26 11.11,10.26 11.11,10.26 Z
           M 8.52,10.32
           C 8.52,10.32 8.52,10.34 8.52,10.34
             8.52,10.34 8.50,10.32 8.50,10.32
             8.50,10.32 8.52,10.32 8.52,10.32 Z
           M 6.12,10.38
           C 6.12,10.38 6.12,10.40 6.12,10.40
             6.12,10.40 6.10,10.38 6.10,10.38
             6.10,10.38 6.12,10.38 6.12,10.38 Z
           M 8.54,10.51
           C 8.54,10.51 8.54,10.53 8.54,10.53
             8.54,10.53 8.52,10.51 8.52,10.51
             8.52,10.51 8.54,10.51 8.54,10.51 Z
           M 8.10,10.63
           C 8.10,10.63 8.10,10.65 8.10,10.65
             8.10,10.65 8.08,10.63 8.08,10.63
             8.08,10.63 8.10,10.63 8.10,10.63 Z
           M 8.12,10.65
           C 8.12,10.65 8.12,10.67 8.12,10.67
             8.12,10.67 8.10,10.65 8.10,10.65
             8.10,10.65 8.12,10.65 8.12,10.65 Z
           M 8.48,10.67
           C 8.48,10.67 8.48,10.69 8.48,10.69
             8.48,10.69 8.46,10.67 8.46,10.67
             8.46,10.67 8.48,10.67 8.48,10.67 Z
           M 6.10,10.69
           C 6.10,10.69 6.10,10.71 6.10,10.71
             6.10,10.71 6.08,10.69 6.08,10.69
             6.08,10.69 6.10,10.69 6.10,10.69 Z
           M 10.92,10.69
           C 10.92,10.69 10.92,10.71 10.92,10.71
             10.92,10.71 10.90,10.69 10.90,10.69
             10.90,10.69 10.92,10.69 10.92,10.69 Z
           M 8.08,10.71
           C 8.08,10.71 8.08,10.72 8.08,10.72
             8.08,10.72 8.06,10.71 8.06,10.71
             8.06,10.71 8.08,10.71 8.08,10.71 Z
           M 6.27,10.72
           C 6.27,10.72 6.27,10.74 6.27,10.74
             6.27,10.74 6.25,10.72 6.25,10.72
             6.25,10.72 6.27,10.72 6.27,10.72 Z
           M 10.88,10.78
           C 10.88,10.78 10.88,10.80 10.88,10.80
             10.88,10.80 10.87,10.78 10.87,10.78
             10.87,10.78 10.88,10.78 10.88,10.78 Z
           M 8.16,10.80
           C 8.16,10.80 8.16,10.82 8.16,10.82
             8.16,10.82 8.14,10.80 8.14,10.80
             8.14,10.80 8.16,10.80 8.16,10.80 Z
           M 8.04,10.82
           C 8.04,10.82 8.04,10.84 8.04,10.84
             8.04,10.84 8.02,10.82 8.02,10.82
             8.02,10.82 8.04,10.82 8.04,10.82 Z
           M 8.06,10.84
           C 8.06,10.84 8.06,10.86 8.06,10.86
             8.06,10.86 8.04,10.84 8.04,10.84
             8.04,10.84 8.06,10.84 8.06,10.84 Z
           M 3.85,10.94
           C 3.85,10.94 3.85,10.95 3.85,10.95
             3.85,10.95 3.83,10.94 3.83,10.94
             3.83,10.94 3.85,10.94 3.85,10.94 Z
           M 3.93,11.05
           C 3.93,11.05 3.93,11.07 3.93,11.07
             3.93,11.07 3.91,11.05 3.91,11.05
             3.91,11.05 3.93,11.05 3.93,11.05 Z
           M 6.00,11.09
           C 6.00,11.09 6.00,11.11 6.00,11.11
             6.00,11.11 5.99,11.09 5.99,11.09
             5.99,11.09 6.00,11.09 6.00,11.09 Z
           M 3.96,11.11
           C 3.96,11.11 3.96,11.13 3.96,11.13
             3.96,11.13 3.95,11.11 3.95,11.11
             3.95,11.11 3.96,11.11 3.96,11.11 Z
           M 6.65,11.17
           C 6.65,11.17 6.65,11.18 6.65,11.18
             6.65,11.18 6.63,11.17 6.63,11.17
             6.63,11.17 6.65,11.17 6.65,11.17 Z
           M 9.02,11.78
           C 9.02,11.78 9.00,11.86 9.00,11.86
             9.06,11.90 9.06,11.92 9.05,11.99
             8.84,11.99 8.84,12.11 8.65,12.11
             8.33,12.10 8.09,12.01 7.78,11.94
             7.78,11.94 7.57,11.89 7.57,11.89
             7.46,11.88 7.30,11.97 7.21,11.97
             7.10,11.96 7.00,11.89 6.88,11.91
             6.88,11.91 6.67,11.96 6.67,11.96
             6.67,11.96 5.95,12.07 5.95,12.07
             5.83,12.08 5.70,12.14 5.59,12.09
             5.54,12.06 5.49,12.01 5.45,11.97
             5.45,11.97 5.39,12.01 5.39,12.01
             5.36,11.86 5.47,11.84 5.59,11.80
             5.59,11.80 6.25,11.54 6.25,11.54
             6.25,11.54 6.60,11.43 6.60,11.43
             6.65,11.41 6.75,11.37 6.80,11.37
             6.80,11.37 7.01,11.42 7.01,11.42
             7.21,11.45 7.22,11.45 7.41,11.43
             7.53,11.42 7.61,11.40 7.72,11.36
             7.78,11.34 7.85,11.29 7.91,11.30
             7.96,11.31 8.04,11.37 8.08,11.40
             8.08,11.40 8.33,11.53 8.33,11.53
             8.33,11.53 9.02,11.78 9.02,11.78 Z
           M 10.37,11.28
           C 10.37,11.28 10.37,11.30 10.37,11.30
             10.37,11.30 10.35,11.28 10.35,11.28
             10.35,11.28 10.37,11.28 10.37,11.28 Z
           M 9.32,11.41
           C 9.32,11.41 9.32,11.43 9.32,11.43
             9.32,11.43 9.30,11.41 9.30,11.41
             9.30,11.41 9.32,11.41 9.32,11.41 Z
           M 9.38,11.45
           C 9.38,11.45 9.38,11.47 9.38,11.47
             9.38,11.47 9.36,11.45 9.36,11.45
             9.36,11.45 9.38,11.45 9.38,11.45 Z
           M 10.14,11.49
           C 10.14,11.49 10.14,11.51 10.14,11.51
             10.14,11.51 10.12,11.49 10.12,11.49
             10.12,11.49 10.14,11.49 10.14,11.49 Z
           M 4.52,11.59
           C 4.52,11.59 4.52,11.61 4.52,11.61
             4.52,11.61 4.50,11.59 4.50,11.59
             4.50,11.59 4.52,11.59 4.52,11.59 Z
           M 4.54,11.61
           C 4.54,11.61 4.54,11.63 4.54,11.63
             4.54,11.63 4.52,11.61 4.52,11.61
             4.52,11.61 4.54,11.61 4.54,11.61 Z
           M 9.61,11.68
           C 9.61,11.68 9.61,11.70 9.61,11.70
             9.61,11.70 9.59,11.68 9.59,11.68
             9.59,11.68 9.61,11.68 9.61,11.68 Z
           M 4.67,11.74
           C 4.67,11.74 4.67,11.76 4.67,11.76
             4.67,11.76 4.65,11.74 4.65,11.74
             4.65,11.74 4.67,11.74 4.67,11.74 Z
           M 4.96,11.78
           C 4.96,11.78 4.96,11.80 4.96,11.80
             4.96,11.80 4.94,11.78 4.94,11.78
             4.94,11.78 4.96,11.78 4.96,11.78 Z
           M 9.93,11.82
           C 9.93,11.82 9.93,11.84 9.93,11.84
             9.93,11.84 9.91,11.82 9.91,11.82
             9.91,11.82 9.93,11.82 9.93,11.82 Z
           M 9.76,11.86
           C 9.76,11.86 9.76,11.88 9.76,11.88
             9.76,11.88 9.74,11.86 9.74,11.86
             9.74,11.86 9.76,11.86 9.76,11.86 Z
           M 9.70,11.99
           C 9.70,11.99 9.70,12.01 9.70,12.01
             9.70,12.01 9.68,11.99 9.68,11.99
             9.68,11.99 9.70,11.99 9.70,11.99 Z
           M 9.05,12.60
           C 9.05,12.60 9.11,12.68 9.11,12.68
             9.11,12.68 9.05,12.70 9.05,12.70
             9.05,12.70 9.07,12.76 9.07,12.76
             8.97,12.84 8.93,12.96 8.86,13.06
             8.80,13.14 8.79,13.19 8.69,13.18
             8.66,13.25 8.64,13.27 8.60,13.33
             8.54,13.44 8.52,13.52 8.37,13.51
             8.37,13.51 8.31,13.72 8.31,13.72
             8.31,13.72 8.25,13.70 8.25,13.70
             8.25,13.70 8.23,13.77 8.23,13.77
             8.23,13.77 8.16,13.77 8.16,13.77
             8.16,13.77 8.16,13.89 8.16,13.89
             7.94,13.96 7.97,13.90 7.85,13.91
             7.85,13.91 7.53,13.94 7.53,13.94
             7.53,13.94 7.38,13.94 7.38,13.94
             7.38,13.94 7.21,13.96 7.21,13.96
             7.09,13.97 6.78,13.97 6.67,13.95
             6.67,13.95 6.66,13.97 6.64,13.97
             6.59,13.98 6.42,13.79 6.39,13.76
             6.39,13.76 6.11,13.45 6.11,13.45
             6.11,13.45 5.92,13.22 5.92,13.22
             5.92,13.22 5.81,13.11 5.81,13.11
             5.71,13.02 5.68,13.02 5.72,12.87
             5.72,12.87 5.47,12.78 5.47,12.78
             5.47,12.78 5.49,12.72 5.49,12.72
             5.32,12.67 5.38,12.59 5.37,12.47
             5.37,12.43 5.36,12.40 5.39,12.37
             5.43,12.31 5.50,12.33 5.56,12.31
             5.67,12.25 5.65,12.17 5.85,12.16
             5.85,12.16 8.56,12.16 8.56,12.16
             8.82,12.16 8.82,12.23 8.94,12.25
             9.01,12.26 9.05,12.22 9.11,12.25
             9.17,12.27 9.24,12.44 9.21,12.50
             9.18,12.53 9.09,12.58 9.05,12.60 Z
           M 8.62,12.47
           C 8.40,12.56 8.46,12.58 8.33,12.68
             8.33,12.68 7.99,12.87 7.99,12.87
             7.90,12.91 7.56,12.99 7.45,12.99
             7.45,12.99 7.28,12.99 7.28,12.99
             7.28,12.99 7.11,13.01 7.11,13.01
             6.97,13.01 6.62,12.93 6.48,12.88
             6.42,12.86 6.17,12.73 6.12,12.69
             5.99,12.59 6.00,12.56 5.83,12.49
             5.88,12.57 5.96,12.63 6.02,12.70
             6.14,12.82 6.17,12.89 6.33,12.97
             6.33,13.13 6.50,13.14 6.52,13.29
             6.65,13.33 6.63,13.39 6.68,13.49
             6.68,13.49 6.79,13.64 6.79,13.64
             6.91,13.60 6.90,13.64 7.01,13.67
             7.01,13.67 7.15,13.70 7.15,13.70
             7.27,13.57 7.41,13.60 7.57,13.63
             7.64,13.64 7.70,13.66 7.77,13.63
             7.84,13.59 7.85,13.51 7.88,13.45
             7.88,13.45 8.07,13.05 8.07,13.05
             8.15,12.90 8.24,12.92 8.42,12.72
             8.48,12.65 8.61,12.55 8.62,12.47 Z
           M 9.51,12.55
           C 9.51,12.55 9.51,12.57 9.51,12.57
             9.51,12.57 9.49,12.55 9.49,12.55
             9.49,12.55 9.51,12.55 9.51,12.55 Z" />
</svg>
