<?xml version="1.0" encoding="UTF-8" standalone="no"?>
<!DOCTYPE svg PUBLIC "-//W3C//DTD SVG 20010904//EN"
              "http://www.w3.org/TR/2001/REC-SVG-20010904/DTD/svg10.dtd">

<svg xmlns="http://www.w3.org/2000/svg"
     viewBox="0 0 295 350">
  <path id="Selection"
        fill="white" stroke="black" stroke-width="1"
        d="M 253.00,219.00
           C 253.00,219.00 235.00,164.00 235.00,164.00
             235.00,164.00 249.38,163.62 249.38,163.62
             249.38,163.62 245.12,151.12 245.12,151.12
             245.12,151.12 216.00,151.00 216.00,151.00
             216.00,151.00 234.00,206.00 234.00,206.00
             234.00,206.00 119.00,206.00 119.00,206.00
             77.70,205.94 49.80,161.60 69.78,124.00
             72.72,118.47 77.28,112.53 82.01,108.44
             101.61,91.52 117.23,94.00 141.00,94.00
             141.00,94.00 203.00,94.00 203.00,94.00
             198.24,108.29 196.62,108.00 196.62,108.00
             196.62,108.00 119.00,109.00 119.00,109.00
             85.71,109.05 65.64,145.27 84.36,173.00
             87.36,177.45 90.50,180.90 95.00,183.90
             108.96,193.19 122.19,191.00 138.00,191.00
             138.00,191.00 214.00,191.00 214.00,191.00
             214.00,191.00 201.00,151.00 201.00,151.00
             201.00,151.00 141.00,151.00 141.00,151.00
             141.00,151.00 144.25,163.75 144.25,163.75
             144.25,163.75 189.00,163.62 189.00,163.62
             189.62,163.75 193.72,174.44 194.50,177.88
             194.50,177.88 123.00,178.00 123.00,178.00
             106.97,177.98 93.13,167.86 92.09,151.00
             91.37,139.20 100.29,127.63 111.00,123.47
             116.30,121.40 121.39,121.01 127.00,121.00
             127.00,121.00 207.12,121.50 207.12,121.38
             207.12,121.38 220.00,81.00 220.00,81.00
             220.00,81.00 137.00,81.00 137.00,81.00
             112.19,81.00 92.71,79.07 72.00,96.32
             41.65,121.61 37.80,167.61 64.73,196.91
             71.05,203.79 80.24,210.57 89.00,213.94
             97.60,217.24 105.78,218.99 115.00,219.00
             115.00,219.00 253.00,219.00 253.00,219.00 Z" />
</svg>
