<?xml version="1.0" encoding="utf-8"?>
<!-- Designed by Vexels.com - 2019 All Rights Reserved - https://vexels.com/terms-and-conditions/  -->
<svg version="1.1" id="Capa_1" xmlns="http://www.w3.org/2000/svg" xmlns:xlink="http://www.w3.org/1999/xlink" x="0px" y="0px"
	 viewBox="0 0 1200 1200" enable-background="new 0 0 1200 1200" xml:space="preserve">
<g>
	<path d="M625.935,792.887c-1.792-6.074-5.759-11.574-10.715-15.776c-9.732-8.253-35.352-18.494-46.646-8.564
		c-31.463,27.662,63.083,76.172,58.273,28.939C626.688,795.925,626.378,794.388,625.935,792.887z"/>
	<path d="M806.794,828.658c-6.166-0.288-12.569,1.023-17.924,4.208c-1.324,0.787-2.584,1.689-3.761,2.71
		c-35.6,30.877,60.318,59.234,58.46,18.17C842.903,839.004,818.905,829.223,806.794,828.658z"/>
	<path d="M357.222,686.089c19.546-13.808-12.591-22.947-23.566-21.497l6.109-1.222c-15.898-1.478-36.631-5.272-47.667,9.944
		c-4.175,5.756-4.07,15.169,2,18.873c2.633,1.606,5.845,1.88,8.926,2.025c13.84,0.652,27.763-0.466,41.322-3.318
		C348.859,689.945,353.45,688.752,357.222,686.089z"/>
	<path d="M393.358,734.055c2.021,15.712,4.877,31.425,11.048,46.097c5.32,12.649,13.834,26.035,27.196,31.242
		c12.811,4.993,27.569,1.55,35.252-10.292c11.427-17.612,8.428-44.37,6.368-64.523c-2.314-22.638-4.849-45.443-8.912-67.843
		c-0.935-5.158-1.427-14.592-7.071-17.076c-5.709-2.513-17.663,4.932-23.382,6.395c-12.723,3.254-26.097,4.246-39.198,3.982
		c-3.547-0.072-5.305,4.017-4.257,6.759C388.757,690.521,390.583,712.482,393.358,734.055z M462.104,777.047
		c-1.093,9.571-3.523,21.505-14.352,24.475c-11.724,3.216-21.544-6.066-27.465-14.943c-9.194-13.785-13.84-30.174-16.38-47.317
		c19.261-0.347,43.128-11.112,56.251,6.705c0.749,1.017,1.658,1.686,2.627,2.121C463.419,757.704,463.195,767.495,462.104,777.047z
		 M423.324,671.812c4.365-0.577,24.229-2.553,28.535-6.68c0.379,4.355,1.833,8.893,2.559,13.214
		c2.886,17.169,5.151,34.517,6.853,51.88c-16.605-10.942-38.74-5.484-58.689-1.639c-1.964-19.276-1.943-39.014-3.241-56.697
		C407.331,672.74,415.203,672.885,423.324,671.812z"/>
	<path d="M472.359,610.956c8.751-9.86,16.04-21.549,26.863-29.355c11.725-8.456,26.368-15.828,40.909-16.411
		c6.032-0.242,8.123-10.159,1.507-11.134c-15.64-2.304-30.534,6.373-43.52,14.177c-9.49,5.703-16.496,13.46-23.28,21.623
		c1.696-11.751,6.235-22.968,16.294-30.039c3.899-2.741,1.607-10.537-3.534-8.383c-21.123,8.852-25.76,34.74-25.202,55.395
		C462.526,611.601,468.863,614.895,472.359,610.956z"/>
	<path d="M329.955,601.64c-6.569,0.85-12.902,2.605-18.95,5.305c-4.149,1.852-8.034,4.077-11.719,6.739
		c-1.603,1.158-6.001,6.389-7.418,6.594c-6.213,1.861-5.416,12.655,1.604,11.85c4.782-0.548,6.823-3.768,10.474-6.694
		c6.671-5.345,14.45-8.979,22.783-10.824c15.1-3.343,30.253-0.393,44.436,5.152c4.555,1.781,8.926-4.355,6.342-8.25
		c-20.019-30.178-59.159-42.008-93.993-33.386c-5.402,1.337-3.974,9.123,1.271,9.39c14.816,0.756,29.105-1.111,43.771,2.477
		c9.785,2.394,18.484,6.639,25.932,12.629C346.484,601.021,338.282,600.562,329.955,601.64z"/>
	<path d="M624.783,585.2c10.63,0.018,21.871-3.177,31.728-6.87c7.303-2.737,17.31-5.619,21.017-13.007
		c0.008-0.006,0.016-0.009,0.023-0.015c16.362-12.911-7.853-22.087-18.642-23.069c-18.082-1.645-47.793,2.911-58.619,19.971
		C590.423,577.757,613.056,585.18,624.783,585.2z M636.259,553.018c4.654-1.013,43.014-3.353,36.086,6.276
		c-3.466,0.796-5.953,2.486-9.412,4.409c-6.12,3.402-12.673,5.954-19.319,8.122c-5.714,1.864-11.66,3.496-17.697,3.769
		c-4.257,0.193-16.364-0.392-18.043-5.104C604.666,561.487,630.051,554.369,636.259,553.018z"/>
	<path d="M676.41,612c5.92,5.206,15.07,3.984,22.221,2.864c9.088-1.422,19.799-4.396,26.555-11.08
		c11.966-11.838,2.45-28.969-13.579-26.364c-0.224,0.036-0.411,0.131-0.601,0.221C696.692,577.833,661.08,598.521,676.41,612z
		 M720.292,594.299c-2.118,5.349-10.639,7.719-15.547,9.128c-5.7,1.637-12.804,3.615-18.739,2.653
		c-4.784-0.776-4.325-1.635-2.398-4.369c6.259-8.884,20.24-12.684,29.803-16.524c0.362-0.146,0.687-0.355,0.986-0.592
		C718.278,586.67,722.146,589.619,720.292,594.299z"/>
	<path d="M919.401,633.211c6.577-17.043-12.076-21.606-24.641-20.096c-17.882,2.15-34.808,9.086-50.848,16.877
		c-1.287,0.625-1.71,1.873-1.55,3.087c-0.364,0.626-0.619,1.353-0.712,2.191C838.366,664.836,911.322,654.147,919.401,633.211z
		 M910.464,626.877c1.247,16.798-59.334,19.92-58.532,8.393c0.033-0.468,0.003-0.893-0.061-1.293
		C868.218,628.025,909.517,614.117,910.464,626.877z"/>
	<path d="M1122.273,523.275c-1.476-1.352-3.594-1.78-5.752-0.174c-19.456,14.475-40.413,26.941-60.315,40.81
		c-20.507,14.291-41.65,27.622-62.611,41.229c-11.684,7.585-23.255,15.303-34.918,22.886c0.379-3.272-0.045-6.419-1.095-9.388
		c14.167-4.694,26.59-11.866,26.484-29.119c-0.103-16.719-9.677-35.206-25.709-41.508c-18.698-7.35-52.391-3.467-68.363,13.146
		c-3.621-6.404-9.828-11.973-17.415-15.973c-18.299-9.648-40.966-9.38-62.539-3.093c3.046-18.335-17.749-29.332-34.351-31.675
		c-24.848-3.507-57.036,8.55-75.643,25.179c-15.658-17.54-41.15-21.368-66.901-15.029c-11.928,2.936-27.544,8.689-39.731,17.275
		c-1.717-17.111-5.143-33.967-9.736-50.564c-5.468-19.76-16.94-36.708-23.696-55.911c-0.682-1.94-2.281-2.801-3.882-2.833
		c-3.004-7.344-8.683-13.891-13.257-20.18c-6.184-8.504-12.572-16.858-18.721-25.387c-11.791-16.356-23.607-34.193-30.672-53.316
		c1.211-1.128,1.828-2.732,1.321-4.68c-0.03-24.866-2.895-53.418-19.795-72.927c-1.138-1.313-2.546-1.653-3.853-1.373
		c-0.681-0.069-1.405-0.076-2.226,0.071c-15.942,2.857-33.57,2.563-49.758,3.715c-16.558,1.178-33.146,1.792-49.699,3.094
		c-32.439,2.551-64.766,6.449-96.844,11.925c-48.466,8.274-104.866,9.335-144.739,41.487c-1.214,0.979-1.507,2.299-1.227,3.546
		c-3.95,2.253-7.505,5.347-10.995,8.142c-2.406,1.927-4.821,3.849-7.281,5.706c-0.988,0.746-2.082,1.397-3.04,2.173
		c-0.317,0.257-0.618,0.482-0.908,0.722c-1.493,0.28-2.401,1.642-2.49,3.133c-1.172,1.642-1.496,4.01,0.05,6.003
		c10.135,13.064,20.259,26.163,29.782,39.684c7.523,10.681,13.898,22.341,21.9,32.677c-9.012,9.812-14.96,22.83-21.547,34.171
		c-7.787,13.409-17.583,25.476-24.14,39.586c-0.924,1.988-0.925,3.792-0.388,5.316c-0.652,0.751-1.056,1.734-1,2.95
		c0.808,17.342,5.503,33.975,7.907,51.097c2.708,19.286,1.888,39.127,1.792,58.552c-0.193,38.688,2.136,77.152-2.689,115.671
		c-4.73,37.766-14.121,74.929-25.855,111.09c-5.228,16.112-11.358,31.9-16.672,47.981c-4.815,14.571-9.311,30.365-19.151,42.472
		c-2.601,3.201-2.279,6.95-0.576,9.768c10.555,21.456,35.87,33.62,56.038,44.371c27.231,14.516,56.18,23.077,86.143,29.938
		c1.125,0.257,2.166,0.265,3.131,0.114c49.439,17.259,101.299,26.672,153.584,29.651c27.574,1.571,55.091-0.254,82.551-2.779
		c28.877-2.656,57.662-4.522,86.588-6.375c3.88-0.249,6.067-2.871,6.545-5.762c11.832-13.172,19.254-31.539,25.338-47.706
		c1.344-3.571,2.585-7.175,3.785-10.793c2.461-1.506,3.05-4.39,2.237-6.988c3.814-12.403,6.976-25.01,9.947-37.642
		c10.854,13.37,23.859,24.952,39.169,33.966c10.054,5.919,20.627,10.808,31.528,14.87c-2.256,21.569-5.927,53.294,14.781,65.554
		c10.32,6.111,22.919,7.524,34.605,8.726c14.077,1.448,28.518,2.641,42.661,2.669c37.23,0.074,74.306-7.451,110.391-15.954
		c28.054-6.611,61.302-13.579,82.735-34.293c2.022-1.954,1.915-6.356-0.979-7.595c-13.229-5.666-26.521-11.012-34.437-22.889
		c15.006-5.566,29.138-15.31,40.923-24.261c20.727-15.741,40.403-34.143,57.567-53.714c18.557-21.158,27.405-45.015,33.311-72.278
		c4.893-22.59,14.55-47.124,12.745-70.605c9.02-0.536,17.909-2.171,26.479-5.835c20.537-8.779,26.153-46.595,8.277-60.927
		c-7.577-10.659-26.792-21.298-39.328-26.247c5.613-3.622,11.202-7.279,16.707-11.063c16.984-11.674,33.148-24.424,49.261-37.254
		c15.517-12.355,33.334-21.93,46.804-36.71c0.308-0.338,0.564-0.686,0.775-1.04c11.875-2.049,9.519-17.183,5.745-25.66
		C1142.42,526.753,1132.636,521.764,1122.273,523.275z M1139.164,551.691C1139.08,552.328,1138.487,551.96,1139.164,551.691
		L1139.164,551.691z M1139.212,551.668c0.155-0.054,0.357-0.101,0.643-0.131C1139.627,551.56,1139.426,551.623,1139.212,551.668z
		 M842.769,670.875c-4.041-0.957-8.063-1.985-12.088-3c0.742-0.652,1.399-1.398,1.98-2.224c18.768,8.889,39.793,9.495,59.975,5.352
		c-3.329,2.636-6.57,5.381-9.689,8.275C869.481,676.838,856.081,674.029,842.769,670.875z M778.427,653.071
		c-9.284-2.904-18.532-5.924-27.742-9.061c14.365-7.697,31.455-17.8,48.495-13.696c8.254,1.988,2.598,6.898-1.7,10.613
		c-4.89,4.227-10.719,8.001-16.75,10.369C779.708,651.698,778.96,652.329,778.427,653.071z M810.297,626.202
		c-6.797-7.155-21.013-5.374-29.611-3.764c-11.526,2.159-27.742,6.833-35.453,16.345c-0.771,0.951-1.016,2.042-0.885,3.046
		c-5.719-1.981-11.425-4-17.117-6.057c8.645-4.099,16.808-9.38,22.514-16.71c20.388-1.454,43.137-10.463,62.163,0.344
		c8.112,4.607,12.108,12.877,13.082,21.831c0.662,6.089,1.644,16.27-3.938,20.257c-1.106,0.79-1.803,2.024-2.086,3.339
		c-9.356-2.496-18.679-5.109-27.956-7.885C803.103,650.1,820.413,636.851,810.297,626.202z M712.121,558.051
		c10.952-3.9,20.487-11.115,31.808-14.178c6.586-1.782,13.31-2.473,19.662,0.349c7.929,3.522,8.796,8.906,8.433,15.907
		c-7.314,5.003-13.886,10.591-19.343,16.518c-2.115-3.923-4.872-7.453-8.275-10.259c-8.623-7.112-20.563-8.885-32.029-7.462
		C712.296,558.63,712.207,558.343,712.121,558.051z M734.588,571.074c13.032,7.013,16.006,26.91,8.216,38.66
		c-6.864,10.352-20.033,16.024-31.561,20.157c-2.462-0.921-4.932-1.825-7.39-2.758c-14.462-5.492-28.876-11.11-43.297-16.706
		c0.024-0.039,0.054-0.069,0.076-0.109C674.3,585.795,702.917,554.03,734.588,571.074z M864.52,609.968
		c15.225-2.042,30.107-6.769,45.54-7.151c15.718-0.389,51.613,13.075,32.908,32.901c-11.037,11.699-29.401,18.443-44.519,22.477
		c-20.487,5.467-42.505,6.077-62.559-1.335c1.754-11.301-2.077-26.433-6.18-33.623C841.042,622.43,853.549,617.067,864.52,609.968z
		 M942.222,568.123c4.26,1.574,9.405,3.543,11.957,7.257c4.484,6.526,0.593,13.938-5.516,17.337
		c-5.57,3.099-13.161,3.63-19.974,2.623c-0.427-0.112-0.853-0.222-1.274-0.318c-1.092-0.25-2.188-0.435-3.284-0.621
		c-0.847-0.225-1.691-0.455-2.479-0.726c-4.209-1.445-10.773-4.621-12.65-8.987c-3.279-7.632,4.433-12.523,10.352-14.332
		C926.674,568.118,934.58,568.084,942.222,568.123z M944.529,554.471c13.823,1.67,23.557,10.087,27.561,23.633
		c2.307,7.803,3.01,17.204-3.348,23.278c-4.421,4.224-11.488,5.761-17.342,7.366c-1.905-2.063-4.082-3.956-6.423-5.644
		c7.059-1.857,13.349-5.727,16.979-12.29c7.499-13.562-1.966-26.128-14.976-29.16c-0.591-0.567-1.398-0.951-2.45-0.972
		c-13.718-0.284-34.625-1.333-42.523,12.7c-4.434,7.88-1.753,15.013,3.65,20.399c-8.824,0.741-17.671,2.691-26.413,4.812
		c2.674-2.469,5.107-4.96,7.153-7.399c5.418-6.459,7.455-13.065,6.975-19.319C904.458,557.048,926.706,552.317,944.529,554.471z
		 M875.233,559.656c11.038,10.233,7.565,19.829-1.967,28.739c-14.56,13.608-32.093,20.421-51.04,24.867
		c-0.42,0.099-0.791,0.239-1.135,0.4c-17.158-12.983-44.681-8.698-66.03-3.86c3.01-7.621,3.231-16.493,1.006-24.653
		c9.206-8.86,20.505-17.406,32.882-24.17c-7.014,4.929-13.036,10.929-17.166,17.863c-0.745,1.252-0.544,2.574,0.141,3.581
		c-5.935,11.14,8.689,16.484,20.982,16.086c20.192-0.654,48.361-8.849,60.785-26.02c9.913-13.701,0.943-22.565-11.139-25.492
		c2.326,0.134,4.643,0.371,6.945,0.74C858.911,549.247,868.197,553.133,875.233,559.656z M781.476,581.981
		c0.551-1.123,0.492-2.293,0.058-3.279c9.012-8.577,19.73-15.139,31.613-19.112c6.272-2.096,41.209-8.91,31.563,6.029
		c-7,10.841-27.576,17.098-39.354,19.525c-4.817,0.992-9.781,1.627-14.701,1.782C786.554,587.055,778.337,588.372,781.476,581.981z
		 M766.876,518.211c13.959,0.102,39.874,8.495,32.597,26.616c-0.134,0.333-0.221,0.653-0.278,0.963
		c-5.683,2.219-11.218,4.825-16.498,7.752c-1.099-8.878-9.458-16.885-18.718-19.568c-18.186-5.269-39.357,7.161-54.615,16.375
		c-1.497-3.461-3.241-6.623-5.205-9.499C721.88,528.839,745.051,518.052,766.876,518.211z M636.587,528.921
		c29.025-6.297,56.363,1.719,64.906,32.322c-3.235,0.987-6.317,2.2-9.139,3.586c-17.244,8.47-31.262,24.997-38.28,42.724
		c-0.045,0.114-0.062,0.223-0.094,0.335c-5.28-2.042-10.552-4.105-15.844-6.118c-19.105-7.27-37.916-15.315-54.966-26.638
		c-1.481-9.26,1.286-16.888,6.508-23.133c2.174-0.467,4.027-1.947,4.389-4.485C605.375,537.597,622.984,531.872,636.587,528.921z
		 M571.179,486.33c1.185,4.246,2.268,8.54,3.277,12.858c-20.495-9.009-46.85-4.296-68.002-2.532
		c-31.634,2.639-63.16,6.658-94.588,11.086c-58.392,8.227-120.802,12.633-176.298,33.97c-1.602-6.379-3.283-12.734-5.112-19.009
		c-1.769-6.07-3.925-12.542-7.251-18.131c9.081-1.983,17.889-5.54,26.672-8.421c13.842-4.541,28.075-7.729,42.117-11.582
		c29.335-8.05,58.432-16.725,88.423-22.071c30.039-5.355,60.47-8.258,90.919-9.947c26.753-1.483,53.792-0.812,80.402-4.206
		c2.022-0.258,3.493-1.096,4.502-2.205C561.216,459.552,567.329,472.53,571.179,486.33z M127.125,545.663
		c-2.346-15.728-6.422-31.168-10.017-46.656c0.104,0.007,0.189,0.044,0.297,0.044c13.611-0.007,26.371,2.342,39.759,4.348
		c9.552,1.431,19.223,2.228,28.869,2.669c4.828,0.221,12.598,1.817,18.379,0.532c11.108,7.071,12.709,27.144,15.665,38.796
		c0.29,1.144,0.561,2.29,0.844,3.435c-0.631,0.039-1.271,0.077-1.921,0.1c-8.484,0.296-17.009,0.297-25.498,0.24
		C171.486,549.025,149.112,544.413,127.125,545.663z M530.384,411.418c5.529,7.872,10.24,17.704,16.989,24.637
		c-25.877,3.297-52.256,2.693-78.262,4.318c-29.293,1.83-58.537,4.827-87.424,10.101c-29.229,5.335-57.642,13.702-86.184,21.82
		c-25.214,7.171-50.696,13.713-75.277,22.907c-0.735-17.177-5.951-33.533-12.833-49.268c-3.981-9.103-8.5-17.955-13.433-26.577
		c-2.334-4.08-4.526-8.632-7.324-12.587c0.023-0.012,0.047-0.018,0.07-0.031c21.967-12.452,43.589-22.145,67.874-29.344
		c23.97-7.106,48.06-14.296,72.211-20.745c26.989-7.207,54.484-12.439,82.087-16.649c14.72-2.245,29.371-4.179,44.244-4.983
		c11.336-0.613,22.59-1.191,33.657-3.653c4.986,19.927,13.846,36.925,25.46,54.221C518.105,394.322,524.337,402.807,530.384,411.418
		z M195.159,292.96c13.216,12.082,20.752,29.054,28.121,45.034c4.464,9.68,9.16,23.967,17.044,33.213
		c-19.082,6.177-39.567,13.595-55.316,26.161c-0.427-0.358-0.91-0.642-1.435-0.837c-13.242-28.434-34.425-52.261-47.366-80.97
		C154.289,304.417,174.369,297.675,195.159,292.96z M419.142,264.847c0.323,0.632,0.791,1.201,1.457,1.63
		c10.253,6.592,11.712,23.703,13.73,34.507c1.418,7.593,2.464,16.716,6.062,24.099c-9.963,0.893-19.882,2.337-29.769,3.864
		c2.99-24.193-13.671-42.876-26.841-61.898c11.785-0.757,23.582-1.317,35.357-2.202C419.139,264.847,419.14,264.847,419.142,264.847
		z M468.896,262.314c0.465,0.098,0.89,0.122,1.312,0.14c9.243,18.899,11.997,37.146,12.553,58.093
		c-10.615,2.508-21.386,3.095-32.254,3.763c-1.92-12.864-4.205-26.036-7.53-38.554c-2.206-8.306-5.224-16.598-11.192-22.317
		C444.212,261.816,457.439,259.913,468.896,262.314z M372.692,267.835c5.358,9.721,11.651,18.827,17.156,28.463
		c6.218,10.884,8.962,22.038,11.186,34.154c-28.045,4.461-55.952,10.022-83.276,17.8c-4.395-23.87-12.909-50.743-27.187-70.898
		C317.802,273.071,345.209,269.992,372.692,267.835z M277.733,279.461c0.458-0.079,0.918-0.149,1.377-0.227
		c7.658,11.812,12.353,24.96,16.555,38.356c3.507,11.182,6.346,23.326,12.718,33.331c-18.782,5.345-37.606,10.761-56.243,16.571
		c-2.527-5.081-5.747-9.925-8.311-14.915c-4.479-8.719-8.349-17.739-12.613-26.564c-6.117-12.661-12.69-26.074-23.057-35.748
		C231.395,285.868,255.168,283.338,277.733,279.461z M111.456,337.594c2.46-1.207,4.845-3.059,6.757-4.54
		c4.011-3.107,7.852-6.413,11.732-9.673c11.139,27.296,28.802,52.141,46.073,75.845c-1,0.389-1.802,1.214-2.281,2.244
		c-3.785,2.596-7.814,4.823-11.805,7.139c-0.012-0.005-0.024-0.011-0.035-0.016c-5.293-13.657-14.794-25.763-23.481-37.365
		C129.801,359.719,120.663,348.629,111.456,337.594z M142.29,452.874c6.837-12.125,14.498-23.905,21.18-36.087
		c0.389-0.07,0.785-0.177,1.19-0.371c3.61-1.732,7.402-3.385,10.994-5.348c2.432,4.851,6.096,9.419,8.706,13.901
		c4.325,7.426,8.356,15.021,11.985,22.811c6.722,14.431,11.821,29.514,14.954,45.097c-2.357-1.116-4.603-0.974-6.459-0.071
		c-0.309,0.016-0.622,0.054-0.944,0.129c-18.769-1.212-37.087-1.485-55.714-4.541c-7.265-1.192-18.148-3.758-26.326-1.394
		C126.789,474.844,135.888,464.226,142.29,452.874z M127.295,730.103c5.456-40.496,2.863-80.476,2.529-121.144
		c-0.143-17.396,0.268-35.045-1.363-52.418c21.477,2.221,43.516,3.894,65.043,4.129c8.083,0.088,16.163-0.087,24.246-0.112
		c2.014-0.006,4.05,0.189,5.983,0.156c3.984,17.721,7.102,35.545,9.263,53.661c5.603,46.964,5.708,94.312,2.419,141.45
		c-3.1,44.425-7.159,89.016-16.606,132.603c-1.732,7.993-3.653,15.949-5.783,23.848c-21.73-3.077-43.129-4.989-64.51-11.225
		c-12.225-3.565-24.261-7.856-35.938-12.94c-7.512-3.27-15.073-8.242-22.916-11.412c3.14-9.906,6.041-19.761,9.194-28.975
		C111.933,809.512,121.898,770.158,127.295,730.103z M64.883,930.656c9.029-11.898,15.3-26.237,20.495-41.06
		c7.115,4.337,15.57,7.386,22.638,10.446c11.432,4.949,23.113,9.307,35.041,12.907c20.574,6.209,44.104,12.108,66.255,12.277
		c-2.451,8.074-5.138,16.076-8.121,23.971c-4.668,12.357-13.309,25.57-13.61,38.89C143.233,976.854,100.468,959.902,64.883,930.656z
		 M518.748,1012.525c-54.756-2.301-109.146,11.326-164.098,8.963c-51.325-2.207-102.045-11.494-151.472-25.288
		c-0.21-1.275-0.735-2.468-1.627-3.453c0.933-14.22,10.728-28.228,15.573-41.323c3.633-9.818,6.792-19.799,9.629-29.873
		c46.888,25.685,101.094,39.11,153.655,46.157c53.503,7.173,107.555,6.479,160.682-2.638c-0.112,0.315-0.213,0.633-0.326,0.947
		C534.899,982.393,525.987,996.985,518.748,1012.525z M556.928,907.502c-3.333,14.451-6.8,28.896-11.098,43.091
		c-54.15,9.298-110.028,9.928-164.468,2.901c-52.794-6.815-102.716-22.56-151.712-42.635c1.021-4,2.007-8.009,2.926-12.032
		c7.756-33.925,12.111-68.569,15.268-103.194c6.803-74.632,8.762-149.636-5.515-223.58c-1.268-6.568-2.693-13.147-4.203-19.712
		c52.004-19.33,108.497-24.026,163.018-32.221c30.462-4.579,60.999-8.653,91.642-11.812c26.568-2.739,58.941-10.172,84.062,2.072
		c2.291,11.818,3.883,23.787,4.599,35.703c0.048,0.793,0.24,1.486,0.498,2.124c-4.979,6.024-8.021,12.963-7.846,20.826
		c-10.633-6.628-22.134-9.918-31.365,2.528c-9.511,12.825-5.306,28.351,5.179,39.079c0.18,0.184,0.373,0.358,0.555,0.54
		c-0.14,0.286-0.257,0.592-0.327,0.939c-2.226,10.923-5.843,21.494-9.462,32.089c-15.731-1.59-35.306-4.391-45.735,10.679
		c-3.066,4.431-3.753,10.308-0.991,14.935c2.829,4.739,7.697,5.239,12.277,5.454c8.473,0.399,16.974,0.109,25.406-0.815
		c-0.026,0.12-0.061,0.237-0.087,0.357c-4.55,21.152-7.206,42.935-8.482,64.523c-2.483,42.016,2.747,85.52,16.94,125.286
		c0.48,1.345,1.001,2.67,1.508,4.001c-3.94,0.263-7.884,0.461-11.828,0.558c-27.312,0.672-54.637-2.219-81.297-8.127
		c-45.01-9.975-84.504-28.087-116.528-61.945c-4.014-4.244-10.444,1.15-7.857,6.062c10.189,19.347,30.083,33.509,48.429,44.523
		c22.095,13.263,46.641,21.22,71.662,26.935c28.017,6.4,56.838,9.752,85.59,8.997c6.225-0.163,12.452-0.531,18.655-1.135
		c3.472,7.136,7.405,13.992,11.757,20.536C557.574,905.68,557.161,906.491,556.928,907.502z M534.863,645.655l3.566-0.713
		c-0.112,0.329-0.223,0.659-0.335,0.988C536.647,645.709,535.445,645.579,534.863,645.655z M839.913,1018.284
		c-32.115,7.559-64.908,13.255-97.961,14.015c-23.48,0.54-50.249-0.052-73.036-6.351c-11.426-3.158-17.126-9.098-19.742-18.865
		c23.582,9.185,52.055,10.703,77.032,11.65c26.638,1.009,53.308-0.77,79.607-5.098c20.524-3.377,40.78-8.643,60.864-14.021
		c9.752-2.611,23.518-6.194,29.799-15.168c4.396,2.64,9.108,4.859,13.922,6.796C890.843,1006.772,863.476,1012.738,839.913,1018.284
		z M888.394,978.744c-6.013,9.519-26.978,11.933-36.206,14.212c-20.503,5.062-40.676,10.28-61.673,13.015
		c-23.519,3.063-47.348,4.019-71.039,2.885c-23.957-1.147-47.222-6.905-71.018-8.597c-0.211-0.015-0.367,0.043-0.555,0.06
		c-0.055-0.442-0.117-0.871-0.165-1.325c-1.022-9.79-0.271-19.626-0.334-29.434c19.928,6.462,40.755,10.383,61.438,12.743
		c51.505,5.876,103.976,1.197,153.965-12.248c1.913-0.515,3.098-1.678,3.696-3.072c3.582-0.151,7.151-0.639,10.693-1.42
		C880.134,970.737,883.968,975.067,888.394,978.744z M1006.383,806.417c-5.83,27.081-13.618,50.625-32.286,71.65
		c-31.643,35.64-67.665,69.222-114.991,80.558c-0.524,0.125-0.961,0.326-1.342,0.567c-73.379,19.384-162.087,22.565-232.121-10.999
		c-29.832-14.297-52.104-36.78-66.92-65.298c1.342-0.212,2.69-0.389,4.027-0.63c6.824-1.232,15.669-2.711,22.741-6.16
		c18.059,26.591,86.197,56.94,104.984,17.682c11.116-23.228-16.391-42.734-36.398-46.645c-19.55-3.822-48.223-3.831-64.014,10.918
		c-0.34-0.012-0.69-0.007-1.062,0.038c-9.758,1.169-18.932,6.18-28.769,8.034c-2.842,0.536-5.699,0.973-8.565,1.345
		c-0.282-0.706-0.587-1.395-0.862-2.107c-14.203-36.885-19.863-78.36-18.714-117.688c0.705-24.112,3.299-48.456,8.343-72.057
		c0.195-0.914,0.411-1.826,0.624-2.739c0.928,0.525,1.646,0.889,1.669,0.717l-1.559-1.201c4.308-18.218,11.824-36.13,14.872-54.52
		c12.833,10.099,28.802,17.562,42.713,24.958c19.286,10.253,39.116,19.435,59.308,27.756c81.95,33.767,169.536,51.39,257.267,61.769
		c24.51,2.9,49.078,5.035,73.675,7.019c9.742,0.786,19.674,1.938,29.559,2.322C1020.266,762.983,1010.795,785.922,1006.383,806.417z
		 M648.378,858.417c15.144,2.223,46.342,20.146,26.116,36.719c-11.86,9.718-31.49,3.014-43.798-2.267
		c-13.271-5.693-25.508-13.5-35.372-24.059C609.74,857.011,630.479,855.791,648.378,858.417z M1063.854,715.575
		c-7.797,19.475-39.077,14.703-55.653,12.935c-42.001-4.479-84.072-7.594-125.907-13.627
		c-82.773-11.938-165.336-31.56-241.693-66.322c-18.765-8.543-37.132-17.968-54.962-28.323
		c-8.701-5.053-18.155-10.003-25.734-16.683c-3.702-3.263-7.649-7.359-8.859-12.296c-1.17-4.773,0.834-13.786,6.65-15.078
		c7.165-1.592,20.515,11.91,26.257,15.345c8.596,5.141,17.598,9.549,26.776,13.546c18.451,8.035,37.517,14.563,56.213,21.99
		c83.131,33.02,169.114,60.97,258.381,70.857c25.323,2.805,50.83,4.09,76.307,3.498c12.018-0.279,24.037-0.954,36.002-2.131
		c7.944-0.781,16.805-1.254,24.009-5.038c1.955-1.027,3.528-2.113,4.779-3.245C1068.049,699.274,1066.455,709.076,1063.854,715.575z
		 M1015.892,656.367c6.758,1.259,44.401,16.621,41.269,25.779c-2.215,6.476-22.81,5.683-28.53,6.092
		c-12.73,0.911-25.488,1.347-38.25,1.318c-9.648-0.023-19.285-0.314-28.907-0.843c10.799-4.636,20.853-11.103,30.712-17.497
		c7.772-5.04,15.621-9.968,23.451-14.923C1015.727,656.314,1015.799,656.349,1015.892,656.367z M1090.062,588.434
		c-17.088,13.23-33.874,26.675-51.539,39.154c-15.355,10.848-31.355,20.692-46.927,31.213
		c-15.503,10.474-31.489,21.559-49.351,27.588c-0.587,0.198-1.069,0.477-1.466,0.806c-15.812-1.431-31.567-3.487-47.237-6.081
		c10.034-7.254,20.392-13.899,30.957-20.284c7.803-3.341,15.643-7.543,21.92-12.901c18.556-10.953,36.269-23.143,54.397-34.8
		c19.777-12.716,39.74-25.168,59.076-38.554c20.534-14.216,42.059-27.231,62.071-42.164c0.116-0.087,0.2-0.188,0.306-0.279
		c5.281,0.764,10.065,0.77,13.678,6.576c1.474,2.368,2.328,5.249,2.822,7.975c0.238,1.315-0.027,3.012,0.315,4.245
		c0.097,0.349,0.103,0.574,0.083,0.749c-1.415,0.305-2.531,1.025-3.306,1.996c-1.23,0.06-2.48,0.576-3.582,1.782
		C1120.089,568.804,1104.229,577.466,1090.062,588.434z"/>
	<path d="M604.442,679.143c-21.359,7.174-32.215,25.518-31.929,47.152c0.063,4.742-0.18,12.851,2.781,16.921
		c4.615,6.344,14.749,9.752,21.429,13.413c9.101,4.987,18.362,10.045,28.558,12.566c9.205,2.275,19.437-4.406,26.124-11.097
		c13.97-13.977,19.014-36.352,11.161-54.252C652.866,681.735,627.577,671.372,604.442,679.143z M601.94,733.257
		c-11.191-5.719-17.029-20.874-10.709-32.273c16.689-30.097,58.086,1.677,37.684,26.169
		C622.333,735.055,611.102,737.939,601.94,733.257z M660.084,735.952c-2.316,3.419-6.571,5.107-10.64,3.243
		c-9.51-4.358-9.63-19.931,1.088-20.68C659.724,717.873,664.785,729.011,660.084,735.952z"/>
	<path d="M822.219,740.688c-21.359,7.174-32.215,25.518-31.929,47.152c0.063,4.742-0.18,12.851,2.781,16.921
		c4.615,6.344,14.749,9.752,21.429,13.413c9.101,4.987,18.362,10.045,28.558,12.566c9.205,2.275,19.437-4.406,26.124-11.097
		c13.97-13.977,19.014-36.352,11.161-54.252C870.643,743.281,845.354,732.918,822.219,740.688z M819.717,794.803
		c-11.191-5.719-17.029-20.874-10.709-32.273c16.689-30.097,58.086,1.677,37.684,26.169
		C840.11,796.6,828.879,799.484,819.717,794.803z M854.072,811.435c-2.238,2.85-5.972,4.515-9.255,3.4
		c-7.674-2.605-6.49-14.708,2.625-16.175C855.259,797.402,858.615,805.648,854.072,811.435z M875.494,785.662
		c-2.316,3.419-6.571,5.107-10.64,3.243c-9.51-4.358-9.63-19.931,1.088-20.68C875.134,767.583,880.195,778.721,875.494,785.662z"/>
	<path d="M457.97,357.738c-6.936-1.018-14.93,1.218-21.655,2.619c-11.673,2.432-23.21,5.507-34.696,8.695
		c-23.275,6.459-46.732,13.002-69.638,20.68c-2.199,0.737-3.011,2.528-2.796,4.209c-4.337,1.028-4.022,8.981,1.422,9.063
		c15.055,0.227,30.118,0.501,45.171,0.887c16.336,0.419,34.811-0.723,48.904,8.859c5.367,3.649,7.881,10.715,13.397,13.871
		c5.609,3.209,12.117-0.053,17.702-1.698c10.861-3.198,24.418-5.451,26.72-18.458C485.122,391.657,475.467,360.306,457.97,357.738z
		 M471.746,407.884c-2.596,4.063-12.401,5.526-16.717,6.835c-2.534,0.772-5.066,1.553-7.596,2.341
		c-3.693,1.824-6.197,0.963-7.51-2.582c-5.76-4.822-9.383-9.769-16.684-13.136c-13.203-6.088-28.215-5.691-42.438-6.009
		c-11.476-0.256-23.028-0.124-34.532-0.53c17.666-4.363,35.125-10.842,52.495-15.719c12.869-3.613,25.802-7.188,38.901-9.885
		c6.779-1.396,16.841-4.93,22.713-0.21C467.771,374.932,477.599,398.724,471.746,407.884z"/>
	<path d="M948.196,772.38c-4.176,0.344-5.358,4.29-3.753,6.925c-0.238,0.734-0.263,1.472-0.102,2.175
		c-2.119,20.988-5.685,38.783-16.874,57.369c-10.385,17.25-23.784,32.455-36.91,47.632c-2.741,3.169-1.273,9.968,3.881,9.37
		c35.781-4.149,71.054-33.849,86.591-65.805C994.606,802.124,982.775,769.529,948.196,772.38z M961.718,840.683
		c-13.432,17.072-31.553,32.666-52.331,40.239c23.267-28.205,47.741-60.991,45.15-98.409c9.251,1.589,18.018,4.758,21.09,14.975
		C980.25,812.868,970.885,829.031,961.718,840.683z"/>
	<path d="M136.53,819.206c18.545-33.577,23.453-75.003,24.623-112.809c1.23-39.756-3.027-79.373-9.771-118.5
		c-0.673-3.907-7.468-3.049-6.993,0.947c4.467,37.572,8.107,75.472,6.691,113.349c-1.486,39.756-11.086,76.024-21.413,114.12
		C128.57,820.366,134.441,822.988,136.53,819.206z"/>
	<path d="M735.746,788.6c-0.112,14.921-3.412,37.249-15.283,48.226c-9.806,9.068-14.064-11.847-14.551-18.663
		c-0.914-12.812,4.58-24.268,8.068-36.226c1.521-5.216-6.098-8.473-8.788-3.705c-8.205,14.539-13.286,33.998-8.839,50.508
		c2.468,9.164,9.334,22.868,20.872,21.149c9.455-1.408,15.446-12.915,19.097-20.598c6.058-12.749,9.181-26.56,8.93-40.691
		C745.143,782.489,735.792,782.47,735.746,788.6z"/>
	<path d="M634.142,443.151c5.643-4.724,11.626-9.011,17.364-13.615c3.982-3.196,0.718-10.527-4.214-10.173
		c-6.757,0.484-43.318,11.881-42.441,1.417c0.472-5.634,14.719-12.488,18.924-15.189c5.786-3.717,12.647-7.312,17.008-12.786
		c3.08-3.867,1.327-10.01-4.179-10.089c-14.758-0.21-29.627,3.792-44.319,2.514c6.268-7.597,18.805-11.847,23.662-20.226
		c7.5-12.939-8.163-18.56-18.394-19.321c-5.915-0.44-6.134,7.826-1.308,9.663c1.835,0.699,7.437,1.835,9.446,3.557
		c-0.279,0.039-0.573,0.74-1.443,1.757c-3.021,3.533-7.521,6.204-11.159,9.034c-6.373,4.956-13.578,10.358-15.638,18.59
		c-0.762,3.046,0.968,6.627,4.188,7.375c11.908,2.77,23.599,1.441,35.382,0.187c-12.817,7.7-27.354,16.176-23.891,29.567
		c3.355,12.972,16.537,13.068,29.691,10.743c-6.795,5.58-12.775,11.886-15.583,19.589c-2.088,5.727-1.274,11.582,3.457,15.734
		c3.571,3.134,7.729,3.649,12.11,4.906c9.71,2.787,12.354,9.312,14.622,18.633c1.466,6.026,11.044,4.793,10.861-1.47
		c-0.249-8.536-3.77-17.866-10.378-23.549c-4.935-4.244-19.443-4.581-19.143-10.512
		C619.038,454.144,630.457,446.236,634.142,443.151z"/>
	<path d="M654.025,182.973c-2.652-28.668-43.36-29.639-63.455-22.393c-25.907,9.343-41.65,28.274-47.879,52.675
		c-7.174-8.92-17.13-15.331-28.603-10.72c-22.095,8.881-19.243,37.645-12.117,55.209c15.819,38.995,48.494,67.187,91.919,67.649
		c0.481,0.005,0.922-0.075,1.344-0.191c0.111,0.041,0.203,0.083,0.317,0.124c4.246,1.511,8.704-2.42,8.685-6.616
		c-0.083-17.907-7.341-39.218,1.958-55.809c4.775-8.518,12.358-15.952,18.537-23.441
		C637.061,224.51,655.977,204.072,654.025,182.973z M634.482,205.047c-9.631,16.372-23.181,29.874-34.687,44.858
		c-14.281,18.6-9.651,38.962-9.195,60.294c-1.163,0.83-2.093,2.004-2.547,3.398c-23.93-4.726-45.171-13.597-60.455-34.25
		c-8.449-11.418-16.474-26.288-18.649-40.409c-1.313-8.528,1.735-26.53,13.743-25.353c8.421,0.825,14.768,11.747,17.433,18.652
		c2.496,6.465,11.288,5.373,11.95-1.618c1.404-14.815,4.669-28.931,15.056-40.144c11.003-11.876,27.029-20.417,43.312-21.467
		c9.775-0.631,27.675,1.531,30.761,13.277C643.221,189.955,638.213,198.705,634.482,205.047z"/>
	<path d="M604.926,174.974c-1.377-0.355-2.754,0.034-3.858,0.819c-0.331-0.069-0.68-0.108-1.07-0.074
		c-14.163,1.244-23.775,13.149-27.817,26.1c-3.59,11.502-1.723,26.804,11.955,30.175
		C613.078,239.13,636.653,183.159,604.926,174.974z M609.39,206.656c-3.058,8.856-12.716,18.88-23.101,14.625
		c-7.423-3.041-5.419-13.207-3.234-19.198c2.919-8.005,9.232-16.332,17.747-18.756C608.546,189.607,613.057,196.036,609.39,206.656z
		"/>
</g>
</svg>
