<?xml version="1.0" encoding="UTF-8" standalone="no"?>
<!DOCTYPE svg PUBLIC "-//W3C//DTD SVG 20010904//EN"
              "http://www.w3.org/TR/2001/REC-SVG-20010904/DTD/svg10.dtd">

<svg xmlns="http://www.w3.org/2000/svg"
     viewBox="0 0 300 320">
  <path id="Selection"
        fill="white" stroke="black" stroke-width="1"
        d="M 72.00,51.00
           C 72.00,51.00 64.09,60.80 64.09,60.80
             64.09,60.80 59.07,65.35 59.07,65.35
             59.07,65.35 59.07,68.00 59.07,68.00
             55.46,69.02 54.95,69.22 55.00,73.00
             55.00,73.00 52.00,73.00 52.00,73.00
             52.00,73.00 40.68,93.00 40.68,93.00
             40.68,93.00 40.00,100.00 40.00,100.00
             40.00,100.00 38.00,98.00 38.00,98.00
             38.00,98.00 34.00,120.00 34.00,120.00
             34.00,120.00 33.00,116.00 33.00,116.00
             33.00,116.00 31.98,131.00 31.98,131.00
             31.98,131.00 31.00,146.00 31.00,146.00
             31.00,146.00 32.24,163.00 32.24,163.00
             32.24,163.00 32.24,172.00 32.24,172.00
             32.24,172.00 33.00,168.00 33.00,168.00
             33.00,168.00 34.56,180.00 34.56,180.00
             34.56,180.00 41.00,197.00 41.00,197.00
             41.00,197.00 43.00,195.00 43.00,195.00
             46.77,208.82 46.60,208.03 55.00,220.00
             58.95,220.99 60.90,224.19 65.00,224.74
             68.89,225.25 72.74,223.06 76.00,222.60
             82.75,221.67 93.19,226.79 94.00,234.00
             94.00,234.00 95.00,235.00 95.00,235.00
             95.00,235.00 97.00,234.00 97.00,234.00
             97.00,234.00 98.00,242.00 98.00,242.00
             98.00,242.00 100.00,240.00 100.00,240.00
             100.00,240.00 102.91,255.00 102.91,255.00
             103.27,260.12 102.04,264.56 105.43,268.96
             112.17,277.70 123.42,275.96 127.57,277.31
             130.02,278.12 132.68,280.67 137.00,281.61
             143.00,282.92 148.25,281.02 152.00,281.02
             155.03,281.02 156.96,282.20 163.00,281.96
             170.17,281.67 174.58,279.08 181.00,277.13
             184.91,275.94 187.95,275.97 192.00,274.08
             192.00,274.08 201.00,269.00 201.00,269.00
             200.53,258.96 201.24,254.69 203.00,245.00
             203.00,245.00 204.00,247.00 204.00,247.00
             204.00,247.00 205.00,238.00 205.00,238.00
             205.00,238.00 207.00,240.00 207.00,240.00
             210.84,230.83 211.55,225.65 223.00,222.91
             230.56,221.10 232.77,224.71 238.00,224.63
             242.50,224.56 250.46,219.41 251.94,214.99
             252.45,213.25 252.15,212.65 251.94,211.00
             251.94,211.00 255.00,211.00 255.00,211.00
             255.00,211.00 265.32,191.00 265.32,191.00
             265.32,191.00 266.71,183.00 266.71,183.00
             266.71,183.00 270.00,169.00 270.00,169.00
             270.00,169.00 271.00,173.00 271.00,173.00
             271.00,173.00 271.51,167.00 271.51,167.00
             271.51,167.00 272.92,153.00 272.92,153.00
             272.92,153.00 272.92,141.00 272.92,141.00
             272.92,141.00 271.00,112.00 271.00,112.00
             271.00,112.00 270.00,115.00 270.00,115.00
             266.69,107.16 268.71,106.94 266.90,101.00
             264.86,94.33 260.27,85.94 256.58,80.00
             253.59,75.20 251.64,70.73 246.00,69.00
             246.00,64.38 243.98,64.71 240.83,61.80
             236.99,58.26 233.25,54.75 231.00,50.00
             226.05,49.52 224.10,47.32 222.00,42.88
             220.69,43.01 219.91,43.15 218.57,42.88
             218.57,42.88 196.00,31.60 196.00,31.60
             181.50,25.75 169.42,24.31 154.00,23.74
             135.55,23.07 116.54,27.04 100.00,35.25
             92.39,39.02 90.14,40.10 83.00,45.02
             79.26,47.61 76.60,50.61 72.00,51.00 Z
           M 172.00,254.00
           C 172.00,254.00 170.26,268.79 170.26,268.79
             168.33,273.06 159.90,274.44 156.59,271.26
             152.99,267.80 156.34,261.72 151.00,256.00
             151.00,256.00 147.83,270.57 147.83,270.57
             144.86,274.85 136.64,273.13 134.43,268.89
             132.76,265.69 133.12,258.61 132.00,254.00
             126.46,262.37 130.19,268.93 119.00,266.82
             117.68,266.57 116.31,266.24 115.15,265.55
             110.56,262.82 112.32,255.70 111.71,251.00
             110.54,242.02 106.87,231.83 100.82,225.00
             95.11,218.56 86.85,213.35 78.00,213.13
             71.90,212.98 68.89,216.35 65.17,214.22
             61.75,212.26 55.78,201.80 53.78,198.00
             45.38,182.04 40.79,164.00 40.04,146.00
             39.62,135.95 42.53,119.63 45.67,110.00
             51.79,91.22 62.26,74.44 77.00,61.17
             120.64,21.89 189.45,23.45 231.00,65.00
             239.53,73.53 248.77,85.87 253.57,97.00
             260.45,112.95 264.20,129.60 264.00,147.00
             263.80,164.14 258.18,182.92 250.22,198.00
             248.18,201.86 242.47,212.08 238.83,213.94
             235.77,215.50 231.45,213.47 228.00,213.19
             219.27,212.47 209.87,217.72 204.18,224.01
             197.40,231.53 194.36,240.19 192.75,250.00
             191.85,255.55 193.27,262.79 187.94,265.69
             186.87,266.28 185.21,266.73 184.00,266.94
             173.78,268.70 178.25,260.14 172.00,254.00 Z
           M 221.00,44.00
           C 221.00,44.00 221.00,45.00 221.00,45.00
             221.00,45.00 220.00,44.00 220.00,44.00
             220.00,44.00 221.00,44.00 221.00,44.00 Z
           M 230.00,51.00
           C 230.00,51.00 230.00,52.00 230.00,52.00
             230.00,52.00 229.00,51.00 229.00,51.00
             229.00,51.00 230.00,51.00 230.00,51.00 Z
           M 74.00,52.00
           C 74.00,52.00 74.00,53.00 74.00,53.00
             74.00,53.00 73.00,52.00 73.00,52.00
             73.00,52.00 74.00,52.00 74.00,52.00 Z
           M 61.00,65.00
           C 61.00,65.00 61.00,66.00 61.00,66.00
             61.00,66.00 60.00,65.00 60.00,65.00
             60.00,65.00 61.00,65.00 61.00,65.00 Z
           M 60.00,66.00
           C 60.00,66.00 60.00,67.00 60.00,67.00
             60.00,67.00 59.00,66.00 59.00,66.00
             59.00,66.00 60.00,66.00 60.00,66.00 Z
           M 245.00,66.00
           C 245.00,66.00 245.00,67.00 245.00,67.00
             245.00,67.00 244.00,66.00 244.00,66.00
             244.00,66.00 245.00,66.00 245.00,66.00 Z
           M 246.00,67.00
           C 246.00,67.00 246.00,68.00 246.00,68.00
             246.00,68.00 245.00,67.00 245.00,67.00
             245.00,67.00 246.00,67.00 246.00,67.00 Z
           M 56.00,71.00
           C 56.00,71.00 56.00,72.00 56.00,72.00
             56.00,72.00 55.00,71.00 55.00,71.00
             55.00,71.00 56.00,71.00 56.00,71.00 Z
           M 249.00,71.00
           C 249.00,71.00 249.00,72.00 249.00,72.00
             249.00,72.00 248.00,71.00 248.00,71.00
             248.00,71.00 249.00,71.00 249.00,71.00 Z
           M 250.00,72.00
           C 250.00,72.00 250.00,73.00 250.00,73.00
             250.00,73.00 249.00,72.00 249.00,72.00
             249.00,72.00 250.00,72.00 250.00,72.00 Z
           M 251.00,73.00
           C 251.00,73.00 251.00,74.00 251.00,74.00
             251.00,74.00 250.00,73.00 250.00,73.00
             250.00,73.00 251.00,73.00 251.00,73.00 Z
           M 53.00,75.00
           C 53.00,75.00 53.00,76.00 53.00,76.00
             53.00,76.00 52.00,75.00 52.00,75.00
             52.00,75.00 53.00,75.00 53.00,75.00 Z
           M 252.00,75.00
           C 252.00,75.00 252.00,76.00 252.00,76.00
             252.00,76.00 251.00,75.00 251.00,75.00
             251.00,75.00 252.00,75.00 252.00,75.00 Z
           M 52.00,76.00
           C 52.00,76.00 52.00,77.00 52.00,77.00
             52.00,77.00 51.00,76.00 51.00,76.00
             51.00,76.00 52.00,76.00 52.00,76.00 Z
           M 253.00,76.00
           C 253.00,76.00 253.00,77.00 253.00,77.00
             253.00,77.00 252.00,76.00 252.00,76.00
             252.00,76.00 253.00,76.00 253.00,76.00 Z
           M 51.00,78.00
           C 51.00,78.00 51.00,79.00 51.00,79.00
             51.00,79.00 50.00,78.00 50.00,78.00
             50.00,78.00 51.00,78.00 51.00,78.00 Z
           M 254.00,78.00
           C 254.00,78.00 254.00,79.00 254.00,79.00
             254.00,79.00 253.00,78.00 253.00,78.00
             253.00,78.00 254.00,78.00 254.00,78.00 Z
           M 50.00,79.00
           C 50.00,79.00 50.00,80.00 50.00,80.00
             50.00,80.00 49.00,79.00 49.00,79.00
             49.00,79.00 50.00,79.00 50.00,79.00 Z
           M 255.00,79.00
           C 255.00,79.00 255.00,80.00 255.00,80.00
             255.00,80.00 254.00,79.00 254.00,79.00
             254.00,79.00 255.00,79.00 255.00,79.00 Z
           M 49.00,81.00
           C 49.00,81.00 49.00,82.00 49.00,82.00
             49.00,82.00 48.00,81.00 48.00,81.00
             48.00,81.00 49.00,81.00 49.00,81.00 Z
           M 256.00,81.00
           C 256.00,81.00 256.00,82.00 256.00,82.00
             256.00,82.00 255.00,81.00 255.00,81.00
             255.00,81.00 256.00,81.00 256.00,81.00 Z
           M 257.00,82.00
           C 257.00,82.00 257.00,83.00 257.00,83.00
             257.00,83.00 256.00,82.00 256.00,82.00
             256.00,82.00 257.00,82.00 257.00,82.00 Z
           M 48.00,83.00
           C 48.00,83.00 48.00,84.00 48.00,84.00
             48.00,84.00 47.00,83.00 47.00,83.00
             47.00,83.00 48.00,83.00 48.00,83.00 Z
           M 47.00,84.00
           C 47.00,84.00 47.00,85.00 47.00,85.00
             47.00,85.00 46.00,84.00 46.00,84.00
             46.00,84.00 47.00,84.00 47.00,84.00 Z
           M 258.00,84.00
           C 258.00,84.00 258.00,85.00 258.00,85.00
             258.00,85.00 257.00,84.00 257.00,84.00
             257.00,84.00 258.00,84.00 258.00,84.00 Z
           M 46.00,86.00
           C 46.00,86.00 46.00,87.00 46.00,87.00
             46.00,87.00 45.00,86.00 45.00,86.00
             45.00,86.00 46.00,86.00 46.00,86.00 Z
           M 259.00,86.00
           C 259.00,86.00 259.00,87.00 259.00,87.00
             259.00,87.00 258.00,86.00 258.00,86.00
             258.00,86.00 259.00,86.00 259.00,86.00 Z
           M 45.00,88.00
           C 45.00,88.00 45.00,89.00 45.00,89.00
             45.00,89.00 44.00,88.00 44.00,88.00
             44.00,88.00 45.00,88.00 45.00,88.00 Z
           M 260.00,88.00
           C 260.00,88.00 260.00,89.00 260.00,89.00
             260.00,89.00 259.00,88.00 259.00,88.00
             259.00,88.00 260.00,88.00 260.00,88.00 Z
           M 44.00,90.00
           C 44.00,90.00 44.00,91.00 44.00,91.00
             44.00,91.00 43.00,90.00 43.00,90.00
             43.00,90.00 44.00,90.00 44.00,90.00 Z
           M 261.00,90.00
           C 261.00,90.00 261.00,91.00 261.00,91.00
             261.00,91.00 260.00,90.00 260.00,90.00
             260.00,90.00 261.00,90.00 261.00,90.00 Z
           M 43.00,92.00
           C 43.00,92.00 43.00,93.00 43.00,93.00
             43.00,93.00 42.00,92.00 42.00,92.00
             42.00,92.00 43.00,92.00 43.00,92.00 Z
           M 262.00,92.00
           C 262.00,92.00 262.00,93.00 262.00,93.00
             262.00,93.00 261.00,92.00 261.00,92.00
             261.00,92.00 262.00,92.00 262.00,92.00 Z
           M 42.00,94.00
           C 42.00,94.00 42.00,95.00 42.00,95.00
             42.00,95.00 41.00,94.00 41.00,94.00
             41.00,94.00 42.00,94.00 42.00,94.00 Z
           M 263.00,94.00
           C 263.00,94.00 263.00,95.00 263.00,95.00
             263.00,95.00 262.00,94.00 262.00,94.00
             262.00,94.00 263.00,94.00 263.00,94.00 Z
           M 264.00,96.00
           C 264.00,96.00 264.00,97.00 264.00,97.00
             264.00,97.00 263.00,96.00 263.00,96.00
             263.00,96.00 264.00,96.00 264.00,96.00 Z
           M 265.00,99.00
           C 265.00,99.00 265.00,100.00 265.00,100.00
             265.00,100.00 264.00,99.00 264.00,99.00
             264.00,99.00 265.00,99.00 265.00,99.00 Z
           M 38.00,103.00
           C 38.00,103.00 38.00,104.00 38.00,104.00
             38.00,104.00 37.00,103.00 37.00,103.00
             37.00,103.00 38.00,103.00 38.00,103.00 Z
           M 38.00,105.00
           C 38.00,105.00 38.00,106.00 38.00,106.00
             38.00,106.00 37.00,105.00 37.00,105.00
             37.00,105.00 38.00,105.00 38.00,105.00 Z
           M 83.00,107.00
           C 83.00,107.00 83.00,108.00 83.00,108.00
             83.00,108.00 84.00,107.00 84.00,107.00
             84.00,107.00 83.00,107.00 83.00,107.00 Z
           M 57.00,177.00
           C 57.51,173.21 55.36,170.55 54.22,167.00
             52.26,160.94 51.93,157.29 52.00,151.00
             52.22,131.85 64.91,116.40 82.00,109.00
             75.69,107.30 65.32,114.76 61.04,119.04
             43.90,136.18 45.32,157.51 57.00,177.00 Z
           M 175.00,178.00
           C 171.33,169.47 168.35,163.62 168.04,154.00
             167.43,134.83 181.43,114.30 200.00,109.00
             193.20,107.16 182.67,114.54 178.00,119.04
             173.91,122.99 170.85,126.78 168.51,132.00
             162.52,145.38 163.37,167.75 175.00,178.00 Z
           M 86.00,125.00
           C 86.00,125.00 85.05,132.01 85.05,132.01
             85.05,132.01 85.05,142.06 85.05,142.06
             85.05,142.06 74.01,142.06 74.01,142.06
             74.01,142.06 68.00,143.00 68.00,143.00
             67.07,144.51 65.81,146.33 65.25,148.00
             60.70,161.49 76.97,161.00 85.00,161.00
             85.00,169.03 84.51,185.30 98.00,180.75
             99.67,180.19 101.49,178.93 103.00,178.00
             103.00,178.00 103.95,170.99 103.95,170.99
             103.95,170.99 103.95,161.00 103.95,161.00
             112.03,161.00 128.30,161.49 123.75,148.00
             123.19,146.33 121.93,144.51 121.00,143.00
             121.00,143.00 114.96,142.06 114.96,142.06
             114.96,142.06 103.95,142.06 103.95,142.06
             103.95,142.06 103.95,132.00 103.95,132.00
             103.95,132.00 103.00,125.00 103.00,125.00
             95.68,120.51 93.32,120.51 86.00,125.00 Z
           M 95.00,124.00
           C 95.00,124.00 96.00,128.00 96.00,128.00
             96.00,128.00 99.00,129.00 99.00,129.00
             95.92,132.04 95.22,131.85 91.00,132.00
             91.00,132.00 91.00,127.00 91.00,127.00
             91.00,127.00 95.00,124.00 95.00,124.00 Z
           M 198.00,172.00
           C 200.96,172.84 206.68,174.04 209.07,171.40
             210.70,169.59 212.04,160.80 212.60,158.00
             212.60,158.00 219.00,126.00 219.00,126.00
             219.00,126.00 208.72,126.99 208.72,126.99
             208.72,126.99 205.00,139.00 205.00,139.00
             205.00,139.00 198.00,172.00 198.00,172.00 Z
           M 230.00,126.00
           C 230.00,126.00 221.00,173.00 221.00,173.00
             221.00,173.00 232.00,173.00 232.00,173.00
             232.00,173.00 241.00,126.00 241.00,126.00
             241.00,126.00 230.00,126.00 230.00,126.00 Z
           M 132.00,131.00
           C 133.82,140.05 135.29,145.53 133.54,155.00
             129.92,174.56 111.26,192.54 91.00,193.00
             98.06,195.80 107.61,192.57 114.00,189.22
             128.01,181.88 136.82,167.80 137.00,152.00
             137.08,144.72 136.60,136.96 132.00,131.00 Z
           M 249.00,132.00
           C 249.00,132.00 250.91,145.00 250.91,145.00
             252.38,170.30 230.34,191.96 206.00,194.00
             212.00,196.38 222.30,193.28 228.00,190.69
             245.46,182.76 255.33,165.03 253.12,146.00
             252.55,141.15 251.57,136.20 249.00,132.00 Z
           M 189.01,136.68
           C 180.56,139.79 182.83,147.51 188.04,148.67
             196.76,150.60 200.29,136.65 189.01,136.68 Z
           M 73.00,147.00
           C 73.00,147.00 74.00,155.00 74.00,155.00
             74.00,155.00 70.00,155.00 70.00,155.00
             70.00,155.00 67.00,152.00 67.00,152.00
             67.00,152.00 73.00,147.00 73.00,147.00 Z
           M 117.02,148.28
           C 122.72,151.20 118.56,155.03 116.25,154.75
             114.12,154.50 112.29,149.07 117.02,148.28 Z
           M 184.01,160.68
           C 175.56,163.79 177.83,171.51 183.04,172.67
             191.89,174.62 195.68,160.65 184.01,160.68 Z
           M 99.00,173.00
           C 99.00,173.00 95.00,179.00 95.00,179.00
             95.00,179.00 91.00,176.00 91.00,176.00
             91.00,176.00 91.00,172.00 91.00,172.00
             91.00,172.00 99.00,173.00 99.00,173.00 Z
           M 264.00,191.00
           C 264.00,191.00 264.00,192.00 264.00,192.00
             264.00,192.00 263.00,191.00 263.00,191.00
             263.00,191.00 264.00,191.00 264.00,191.00 Z
           M 151.00,192.08
           C 144.11,193.94 138.69,202.72 135.90,209.00
             134.67,211.77 133.57,215.06 135.04,217.96
             137.77,223.37 147.51,224.93 153.00,224.63
             157.40,224.39 165.45,222.89 167.65,218.79
             169.40,216.06 168.63,212.72 167.65,210.00
             164.84,203.83 157.77,193.34 151.00,192.08 Z
           M 42.00,193.00
           C 42.00,193.00 42.00,194.00 42.00,194.00
             42.00,194.00 41.00,193.00 41.00,193.00
             41.00,193.00 42.00,193.00 42.00,193.00 Z
           M 263.00,193.00
           C 263.00,193.00 263.00,194.00 263.00,194.00
             263.00,194.00 262.00,193.00 262.00,193.00
             262.00,193.00 263.00,193.00 263.00,193.00 Z
           M 262.00,196.00
           C 262.00,196.00 262.00,197.00 262.00,197.00
             262.00,197.00 261.00,196.00 261.00,196.00
             261.00,196.00 262.00,196.00 262.00,196.00 Z
           M 261.00,198.00
           C 261.00,198.00 261.00,199.00 261.00,199.00
             261.00,199.00 260.00,198.00 260.00,198.00
             260.00,198.00 261.00,198.00 261.00,198.00 Z
           M 260.00,200.00
           C 260.00,200.00 260.00,201.00 260.00,201.00
             260.00,201.00 259.00,200.00 259.00,200.00
             259.00,200.00 260.00,200.00 260.00,200.00 Z
           M 259.00,202.00
           C 259.00,202.00 259.00,203.00 259.00,203.00
             259.00,203.00 258.00,202.00 258.00,202.00
             258.00,202.00 259.00,202.00 259.00,202.00 Z
           M 47.00,203.00
           C 47.00,203.00 47.00,204.00 47.00,204.00
             47.00,204.00 46.00,203.00 46.00,203.00
             46.00,203.00 47.00,203.00 47.00,203.00 Z
           M 258.00,203.00
           C 258.00,203.00 258.00,204.00 258.00,204.00
             258.00,204.00 257.00,203.00 257.00,203.00
             257.00,203.00 258.00,203.00 258.00,203.00 Z
           M 48.00,205.00
           C 48.00,205.00 48.00,206.00 48.00,206.00
             48.00,206.00 47.00,205.00 47.00,205.00
             47.00,205.00 48.00,205.00 48.00,205.00 Z
           M 257.00,205.00
           C 257.00,205.00 257.00,206.00 257.00,206.00
             257.00,206.00 256.00,205.00 256.00,205.00
             256.00,205.00 257.00,205.00 257.00,205.00 Z
           M 49.00,207.00
           C 49.00,207.00 49.00,208.00 49.00,208.00
             49.00,208.00 48.00,207.00 48.00,207.00
             48.00,207.00 49.00,207.00 49.00,207.00 Z
           M 256.00,207.00
           C 256.00,207.00 256.00,208.00 256.00,208.00
             256.00,208.00 255.00,207.00 255.00,207.00
             255.00,207.00 256.00,207.00 256.00,207.00 Z
           M 50.00,208.00
           C 50.00,208.00 50.00,209.00 50.00,209.00
             50.00,209.00 49.00,208.00 49.00,208.00
             49.00,208.00 50.00,208.00 50.00,208.00 Z
           M 255.00,208.00
           C 255.00,208.00 255.00,209.00 255.00,209.00
             255.00,209.00 254.00,208.00 254.00,208.00
             254.00,208.00 255.00,208.00 255.00,208.00 Z
           M 51.00,210.00
           C 51.00,210.00 51.00,211.00 51.00,211.00
             51.00,211.00 50.00,210.00 50.00,210.00
             50.00,210.00 51.00,210.00 51.00,210.00 Z
           M 52.00,212.00
           C 52.00,212.00 52.00,213.00 52.00,213.00
             52.00,213.00 51.00,212.00 51.00,212.00
             51.00,212.00 52.00,212.00 52.00,212.00 Z
           M 53.00,213.00
           C 53.00,213.00 53.00,214.00 53.00,214.00
             53.00,214.00 52.00,213.00 52.00,213.00
             52.00,213.00 53.00,213.00 53.00,213.00 Z
           M 252.00,213.00
           C 252.00,213.00 252.00,214.00 252.00,214.00
             252.00,214.00 251.00,213.00 251.00,213.00
             251.00,213.00 252.00,213.00 252.00,213.00 Z
           M 54.00,214.00
           C 54.00,214.00 54.00,215.00 54.00,215.00
             54.00,215.00 53.00,214.00 53.00,214.00
             53.00,214.00 54.00,214.00 54.00,214.00 Z
           M 251.00,214.00
           C 251.00,214.00 251.00,215.00 251.00,215.00
             251.00,215.00 250.00,214.00 250.00,214.00
             250.00,214.00 251.00,214.00 251.00,214.00 Z
           M 55.00,216.00
           C 55.00,216.00 55.00,217.00 55.00,217.00
             55.00,217.00 54.00,216.00 54.00,216.00
             54.00,216.00 55.00,216.00 55.00,216.00 Z
           M 250.00,216.00
           C 250.00,216.00 250.00,217.00 250.00,217.00
             250.00,217.00 249.00,216.00 249.00,216.00
             249.00,216.00 250.00,216.00 250.00,216.00 Z
           M 56.00,217.00
           C 56.00,217.00 56.00,218.00 56.00,218.00
             56.00,218.00 55.00,217.00 55.00,217.00
             55.00,217.00 56.00,217.00 56.00,217.00 Z
           M 249.00,217.00
           C 249.00,217.00 249.00,218.00 249.00,218.00
             249.00,218.00 248.00,217.00 248.00,217.00
             248.00,217.00 249.00,217.00 249.00,217.00 Z
           M 96.00,232.00
           C 96.00,232.00 96.00,233.00 96.00,233.00
             96.00,233.00 95.00,232.00 95.00,232.00
             95.00,232.00 96.00,232.00 96.00,232.00 Z
           M 209.00,232.00
           C 209.00,232.00 209.00,233.00 209.00,233.00
             209.00,233.00 208.00,232.00 208.00,232.00
             208.00,232.00 209.00,232.00 209.00,232.00 Z
           M 208.00,234.00
           C 208.00,234.00 208.00,235.00 208.00,235.00
             208.00,235.00 207.00,234.00 207.00,234.00
             207.00,234.00 208.00,234.00 208.00,234.00 Z
           M 207.00,236.00
           C 207.00,236.00 207.00,237.00 207.00,237.00
             207.00,237.00 206.00,236.00 206.00,236.00
             206.00,236.00 207.00,236.00 207.00,236.00 Z
           M 204.00,243.00
           C 204.00,243.00 204.00,244.00 204.00,244.00
             204.00,244.00 203.00,243.00 203.00,243.00
             203.00,243.00 204.00,243.00 204.00,243.00 Z
           M 200.00,267.00
           C 200.00,267.00 200.00,268.00 200.00,268.00
             200.00,268.00 199.00,267.00 199.00,267.00
             199.00,267.00 200.00,267.00 200.00,267.00 Z
           M 175.00,278.00
           C 175.00,278.00 175.00,279.00 175.00,279.00
             175.00,279.00 174.00,278.00 174.00,278.00
             174.00,278.00 175.00,278.00 175.00,278.00 Z" />
</svg>
