<?xml version="1.0" encoding="UTF-8" standalone="no"?>
<!DOCTYPE svg PUBLIC "-//W3C//DTD SVG 20010904//EN"
              "http://www.w3.org/TR/2001/REC-SVG-20010904/DTD/svg10.dtd">

<svg xmlns="http://www.w3.org/2000/svg"
     viewBox="0 0 15 17">
  <path id="Selection"
        fill="white"
        d="M 4.00,2.40
           C 4.00,2.40 6.81,7.52 6.81,7.52
             6.85,7.70 4.00,12.69 4.00,12.69
             4.00,12.69 9.32,12.67 9.32,12.67
             9.32,12.67 11.84,8.10 11.84,8.10
             11.84,8.10 10.00,8.04 9.88,8.11
             9.71,8.20 8.38,10.94 8.18,11.03
             8.10,11.06 6.93,11.04 6.93,11.04
             6.93,11.04 8.82,7.74 8.81,7.52
             8.81,7.31 6.93,4.05 6.93,4.05
             6.93,4.05 8.18,4.05 8.18,4.05
             8.18,4.02 9.81,6.97 9.81,6.97
             9.80,6.99 11.84,6.99 11.84,6.99
             11.84,6.99 9.32,2.41 9.32,2.41
             9.32,2.41 4.00,2.40 4.00,2.40 Z
           M 8.18,4.03" />
</svg>
