<svg id="Layer_1" data-name="Layer 1" xmlns="http://www.w3.org/2000/svg" viewBox="0 0 312.19 57"><defs><style>.cls-1{fill:#2259a3;}</style></defs><path class="cls-1" d="M6.44,14h-5V10.63H15.07V14h-5V27.21H6.44Z"/><path class="cls-1" d="M20.19,10.63H32.6v3.24H23.79v3.37h7.76v3.24H23.79V24h8.93v3.25H20.19Z"/><path class="cls-1" d="M38.28,10.63H44.7c5.18,0,8.75,3.57,8.75,8.24v.05c0,4.66-3.57,8.29-8.75,8.29H38.28ZM44.7,23.91a4.7,4.7,0,0,0,5-4.95v0a4.74,4.74,0,0,0-5-5H41.91v10Z"/><path class="cls-1" d="M59,10.63h6.42c5.18,0,8.75,3.57,8.75,8.24v.05c0,4.66-3.57,8.29-8.75,8.29H59Zm6.42,13.28a4.7,4.7,0,0,0,5-4.95v0a4.74,4.74,0,0,0-5-5h-2.8v10Z"/><path class="cls-1" d="M82.85,20.67l-6.33-10h4.23l3.93,6.65,4-6.65h4.11l-6.32,10v6.61H82.85Z"/><path class="cls-1" d="M106.79,10.63h12.53v3.31h-8.91v3.53h7.86v3.32h-7.86v6.42h-3.62Z"/><path class="cls-1" d="M123.83,19v0a8.75,8.75,0,0,1,17.49-.05v.05a8.75,8.75,0,0,1-17.49,0Zm13.71,0v0a5,5,0,0,0-5-5.21,5,5,0,0,0-4.94,5.16v.05a5,5,0,0,0,5,5.21A4.94,4.94,0,0,0,137.54,19Z"/><path class="cls-1" d="M146.88,10.63h7.53a6.51,6.51,0,0,1,4.79,1.68,5.2,5.2,0,0,1,1.42,3.79v0a5.17,5.17,0,0,1-3.53,5.14l4,5.92h-4.23l-3.53-5.31H150.5v5.31h-3.62Zm7.29,8c1.77,0,2.78-.95,2.78-2.35v0c0-1.57-1.08-2.37-2.85-2.37h-3.6v4.76Z"/><path class="cls-1" d="M181.27,10.51h3.34l7,16.7h-3.78l-1.51-3.72h-7l-1.5,3.72h-3.69Zm3.81,9.76-2.19-5.38-2.19,5.38Z"/><path class="cls-1" d="M209.78,14h-5V10.63H218.4V14h-5V27.21h-3.62Z"/><path class="cls-1" d="M222.09,19v0a8.75,8.75,0,0,1,17.49-.05v.05a8.75,8.75,0,0,1-17.49,0Zm13.71,0v0a5,5,0,0,0-5-5.21,4.94,4.94,0,0,0-4.94,5.16v.05a5,5,0,0,0,5,5.21A5,5,0,0,0,235.8,19Z"/><path class="cls-1" d="M244.41,19v0a8.75,8.75,0,0,1,17.5-.05v.05a8.75,8.75,0,0,1-17.5,0Zm13.71,0v0a5,5,0,0,0-5-5.21,4.94,4.94,0,0,0-4.94,5.16v.05a5,5,0,0,0,5,5.21A4.94,4.94,0,0,0,258.12,19Z"/><path class="cls-1" d="M267.47,10.63h3.34l7.71,10.21V10.63h3.57V27.21H279l-8-10.54V27.21h-3.57Z"/><path class="cls-1" d="M288.55,10.63h3.62V27.21h-3.62Z"/><path class="cls-1" d="M298.63,10.63h12.42v3.24h-8.82v3.37H310v3.24h-7.76V24h8.93v3.25H298.63Z"/><path class="cls-1" d="M2.37,34H3.76V45h6.92V46.3H2.37Z"/><path class="cls-1" d="M12.36,34h8.89v1.27h-7.5v4.2h6.71v1.26H13.75V45h7.59V46.3h-9Z"/><path class="cls-1" d="M27.79,33.92h1.3L34.7,46.3H33.2l-1.44-3.25H25.07L23.61,46.3H22.19Zm3.43,7.88-2.79-6.27L25.62,41.8Z"/><path class="cls-1" d="M35,40.19v0a6.17,6.17,0,0,1,6.16-6.36,6.47,6.47,0,0,1,4.59,1.64l-.9,1a5.23,5.23,0,0,0-3.74-1.4,4.8,4.8,0,0,0-4.67,5v0c0,2.94,1.88,5.11,4.87,5.11A5.74,5.74,0,0,0,44.82,44V41H41.08V39.73h5.08v4.9a7.44,7.44,0,0,1-4.94,1.88A6,6,0,0,1,35,40.19Z"/><path class="cls-1" d="M48.21,41.15V34h1.38v7.07c0,2.65,1.41,4.14,3.76,4.14s3.71-1.37,3.71-4.06V34h1.39v7c0,3.58-2.06,5.44-5.13,5.44S48.21,44.63,48.21,41.15Z"/><path class="cls-1" d="M60.84,34h8.89v1.27h-7.5v4.2h6.71v1.26H62.23V45h7.59V46.3h-9Z"/><path class="cls-1" d="M75.57,40.19v0a6.27,6.27,0,1,1,12.54,0v0a6.27,6.27,0,1,1-12.54,0Zm11.1,0v0a4.84,4.84,0,1,0-9.66,0v0a4.89,4.89,0,0,0,4.85,5.08A4.83,4.83,0,0,0,86.67,40.19Z"/><path class="cls-1" d="M90.16,34H99v1.29H91.55v4.39H98.2v1.26H91.55V46.3H90.16Z"/><path class="cls-1" d="M105.19,34h1.38V45h6.92V46.3h-8.3Z"/><path class="cls-1" d="M115.17,34h8.89v1.27h-7.5v4.2h6.71v1.26h-6.71V45h7.59V46.3h-9Z"/><path class="cls-1" d="M125.51,40.19v0a6.18,6.18,0,0,1,6.17-6.36,6.46,6.46,0,0,1,4.58,1.64l-.89,1a5.27,5.27,0,0,0-3.74-1.4,4.8,4.8,0,0,0-4.68,5v0c0,2.94,1.88,5.11,4.87,5.11A5.79,5.79,0,0,0,135.37,44V41h-3.74V39.73h5.07v4.9a7.43,7.43,0,0,1-4.93,1.88A6,6,0,0,1,125.51,40.19Z"/><path class="cls-1" d="M138.94,34h8.89v1.27h-7.5v4.2H147v1.26h-6.71V45h7.59V46.3h-9Z"/><path class="cls-1" d="M149.83,34h1.3l7.74,9.86V34h1.36V46.3h-1.11l-7.94-10.08V46.3h-1.35Z"/><path class="cls-1" d="M162.82,34h4.26c3.87,0,6.54,2.66,6.54,6.12v0c0,3.46-2.67,6.15-6.54,6.15h-4.26Zm4.26,11a4.76,4.76,0,0,0,5.1-4.83v0a4.79,4.79,0,0,0-5.1-4.86H164.2V45Z"/><path class="cls-1" d="M174.68,44.51l.86-1a5.88,5.88,0,0,0,4.22,1.74c1.65,0,2.74-.88,2.74-2.09v0c0-1.14-.62-1.79-3.2-2.33-2.83-.62-4.13-1.53-4.13-3.55v0c0-1.93,1.71-3.35,4-3.35a6.43,6.43,0,0,1,4.33,1.51l-.81,1.07a5.41,5.41,0,0,0-3.55-1.33c-1.6,0-2.62.87-2.62,2v0c0,1.16.63,1.81,3.34,2.39s4,1.59,4,3.47v0c0,2.11-1.75,3.48-4.19,3.48A7.21,7.21,0,0,1,174.68,44.51Z"/><path class="cls-1" d="M193.49,35.29h-4.13V34H199v1.29h-4.13v11h-1.4Z"/><path class="cls-1" d="M199.35,40.19v0a6.27,6.27,0,1,1,12.54,0v0a6.23,6.23,0,0,1-6.29,6.36A6.17,6.17,0,0,1,199.35,40.19Zm11.1,0v0a4.89,4.89,0,0,0-4.85-5.07,4.83,4.83,0,0,0-4.81,5v0a4.89,4.89,0,0,0,4.85,5.08A4.83,4.83,0,0,0,210.45,40.19Z"/><path class="cls-1" d="M213.74,41.15V34h1.39v7.07c0,2.65,1.4,4.14,3.76,4.14s3.7-1.37,3.7-4.06V34H224v7c0,3.58-2,5.44-5.13,5.44S213.74,44.63,213.74,41.15Z"/><path class="cls-1" d="M226.38,34h5.29a4.84,4.84,0,0,1,3.49,1.23,3.4,3.4,0,0,1,1,2.43v0c0,2-1.4,3.23-3.34,3.59l3.78,5h-1.7l-3.57-4.78h-3.51V46.3h-1.39Zm5.16,6.28c1.85,0,3.17-1,3.17-2.53v0c0-1.51-1.16-2.42-3.15-2.42h-3.79v5Z"/><path class="cls-1" d="M238.2,34h1.3l7.74,9.86V34h1.35V46.3h-1.1l-7.94-10.08V46.3H238.2Z"/><path class="cls-1" d="M255.74,33.92H257l5.61,12.38h-1.49l-1.44-3.25H253l-1.46,3.25h-1.42Zm3.42,7.88-2.79-6.27-2.81,6.27Z"/><path class="cls-1" d="M264.17,34h1.41l4.48,6.71L274.54,34h1.4V46.3h-1.38v-10l-4.48,6.59H270l-4.48-6.57V46.3h-1.36Z"/><path class="cls-1" d="M278.53,34h8.89v1.27h-7.5v4.2h6.71v1.26h-6.71V45h7.59V46.3h-9Z"/><path class="cls-1" d="M289.42,34h1.3l7.74,9.86V34h1.36V46.3h-1.11l-7.94-10.08V46.3h-1.35Z"/><path class="cls-1" d="M305.66,35.29h-4.13V34h9.66v1.29h-4.13v11h-1.4Z"/></svg>