<svg id="Layer_1" data-name="Layer 1" xmlns="http://www.w3.org/2000/svg" viewBox="0 0 415.22 522.17"><defs><style>.cls-1{fill:#fff;}</style></defs><path class="cls-1" d="M411.63,218.41c-30.22-10.9-11.24-6.71-30.56,7.77C377.69,137.63,385.71,48.9,282,11.41,238.3-3.31,240.2.51,183.3.29,78.88,8.17,36.69,80.61,40.19,174.07c-.62,9.59-2.22,54.23-7.12,50.23-1.27-3.54-7.45-11.7-12.33-7.56-3.69,3-17.45,13.5-19.56,17.22-.77,1.22-2.22,3.89,0,5s1.78,3.89,2.56,9.89,5.56,12.22,13.67,27.33c12.21,24.93,12.93,37.07,17.33,57.22.07,13.32,3.17,16.58,15.44,17.89,1.67.78,1.23,3.56,1,6.67-.57,51.21,7.56,81.88,51,114.66,32.53,26.57,57.9,49.84,102.88,49.45C240.25,523.5,260,508.89,290.29,488c64-44.1,71.23-59.58,71.56-135.78,0,0,11.56-4.77,15.33-6s4-5.33,4.12-7.66A236.92,236.92,0,0,1,386,299.85c8.12-16.63,15.55-41.45,23.44-59,2.12-3.33,4.45-12.22,5.55-17S413.52,219,411.63,218.41Zm-12.34,2.26c2.31.94-.06,3.39-1,.61A2.82,2.82,0,0,1,399.29,220.67Zm-8.36,14.5c-13,26.84-11.75,26.72-26.44,77.33-1.54,3.13-.39-7.14-.11-13.44,1-10.49,3.84-37.77,5.78-43.33C370.32,256.4,404.94,209.33,390.93,235.17Zm-27.23,5a3.22,3.22,0,0,1,.43-2.25c.67-.75,1-1.34,1.67-1.5s1.5.41,1.08,1.87-.77,2-1.55,2.21A2.63,2.63,0,0,1,363.7,240.2ZM54.42,113.11s4,5.34,4.21,5.67,4,5.58,4.67,6.29,1.12,2.17,1.62,2.84-2-1-2.71-2.09-5-5.71-5.16-6-2.48-2.72-2.63-3.29A12.37,12.37,0,0,1,54.42,113.11Zm-42.9,121c6.2-13.62,17.32-1.55,24.55,3.89,2.34,1.89,6.45,3.78,7.23,8.11C48.78,277.68,50.63,269,51.07,313c.11,1.11-.77.11-1.33-2.44C44.81,286,33.16,253.89,13.52,237.74,12.41,237.41,10.3,237.18,11.52,234.07ZM26,282.18c-.71,4.32-3.88-5.22-4.22-6.77C19.2,269,9.6,255.57,8.63,247.41c-.45-5.12.26-7.89,2.52-5.12s10.67,6.56,11.59,15.23C22.75,264,26.27,275.61,26,282.18ZM51.08,344c-7.44.75-5.92-5.11-9.67-8.67-.62-5.16-5.46-22.57-6.34-27l6.67,6.56a35.17,35.17,0,0,0-4.56-9.11c-9.87-8.56-9.14-27.24-9.66-37.45,1.35-13.83,19.37,49.3,23.56,47.89C51.85,320.85,51.43,339.74,51.08,344ZM277.8,420.07c-1.67.29-2.3-.16-5.05,2.54-1.42,1.44,1,.29,1,1.13-.13.49,1.32,1.87.21,1.79-1.79-.08-1.44,1-.83,1.75,0,.17.33.83-.29.92-3.13.5-3.1,3.45-4.38,6.5a29,29,0,0,1-3.87,5.33c-1.13,1-2.58,5.57-4.63,3.79-.33-.83-.58-.41-.66,0-.72,1.79-4.15,4.69-4.5,6.84-.09.79-.05,2.66-.67,2.66a16,16,0,0,0-4.71,2.13c-.29.46-.79.17-1.21-.29s-.79.25-.71.83-1.2,2.71-1.33,3.08.46,2.25.13,2.63c-1.59,2.72-2-2.5-3.46.86-.09.51.12,1.89-.67,2.1s-1.92-.29-2.12.62-.75.79-.84,1.59.84.2.79.79-.25,2.08-1,1.83-5.95,1.29-6.66.63-.71-1.75-1.71-1.42c-7.09,3.36-17.55,1.05-25,2.79-2.42-.08-17.42.43-18,0a1.11,1.11,0,0,0-1.71.17c-.5.66-1.54,1.22-2.2,0-2.67-3.75-12-11.6-14.71-15.38-3.66-3.24-5.11-7-8.42-10.46a6.45,6.45,0,0,1-2.21-2.41c-.16-.46-1.54.21-1.66-.38s-.63-3-1.75-3.12c-3.11.28-4.53-3.66-3.63-5.84.67-.66.88-1.58-.27-1.87s-4.73-1.08-5.9-1.92-3.33-2.66-2.33-2.79,1.21-.71.42-.71c-2.67.55-5.79-4-4.3-6.29,1-.67,2.05-1.87.67-2.83a1.93,1.93,0,0,1-.66-3c.62-.88,3.91-2.92,4.58-2.5s.87,1,1.58,1c2,0,2-1.72,3.38-3,.66-.67,4.12-3.25,4.12-3.25H259.55a33.84,33.84,0,0,1,5.83,2.33c4.83,3.37,6.37-1.68,8.67-.6,2.17,2.1,4.23,4.9,4.29,7.81C278.34,417.45,279.46,419.78,277.8,420.07ZM270.55,396c2.16.16,2.33,2.33,1.66,4.83-4.27.54-7.79.58-11.33,4.61-15.47-1.26-30.87-4-42.83-8.94-11.78,5.54-13.49,1.84-23.67,1.16-13.17,5-36.5,5.84-36.5,5.84-1.67,2.6-7.44,2.13-10.83.83-1.34-1.83-3.34-3.17-4.17-2.72s-.67-1.45-1.33-.78c-2.5,2.83-2.34-2.83-1.67-4,9.17-4.09,41.29-16,52.22-18.86,6.36,5.95,32.5,2.91,38.11-2.53,6.57,4.78,22.51,11.92,30.67,14.58,3.56,1.71,10.74,1.41,10.11,4.64C270.57,394.64,269.88,394,270.55,396Zm88.66-120.09c-4,22.9-1.42,39.19-8.41,55.92-1.67,5.33-3.5,6.42-5.67,9.25s-6.33,15.25-7.33,17.67-6.75,6.75-9.34,8.75S313,382,311.55,383s-1.34,1.08-.67,1.5c1,3.15-6.72,9.18-8.59,12.25-1.41,2-4.58-2.23-5.24-.42a7.87,7.87,0,0,1-1,4.5c-1.13,1.81-2.74-3.39-1-4.16,1.37-1.84-3.42-1.66-1.67-3.75.74-2.36-2.46-2.52-2.08-4.92-.83-2.51-2.08-.3-3.92-2.58-10.82-10.26-30-19-43.59-24.34-1.84-.91.61-5.31,2.59-4.5,1.6.18-1.43,3.65,1.5,3.5,1.49-1.69,2.76-6.87,5.25-8.5,1.94-4,.45-13.27-5-15.08,1.43,2.1,3.64,7.65,2.92,11.33-.48,3.67-6,4.42-7.84,6.84-2,1.33-4.56,7-7.16,6.16-.5-.08.25-1.75.75-2.41s2.25-7.59,2.58-10.09c.15-5-1-.19-1.17,3-2.55,8.52-6.92,22.9-17.41,24.67-15.07,1.4-26.7,1.72-36.5-11.42-7.24-7.37-22.81-10.45-16.84-23.5-6.29,9.27-4,14.23,2.92,18.75,2,.25,3.25.25,3.67,1s2,.92,3.16,1.59.34,1.75.34,2.41-1.17.17-1.67-.25c-2.18-2.54-11.51,3.64-15.33,4.59-2.67,1.08-22.5,11.08-23.92,11.5s-5.42,1.25-7.58,3.33-2.5,1.08-2.84,2.08a7.4,7.4,0,0,1-2.25,2.75c-.58.42.17,2.09.42,3.59s-1.17,4.66-1.25,6.41,1,5-4-.91S104.8,383.28,103.21,383s-1.58-.42-2.16-1.33-5.75-8.42-6.59-9.92c-3.26-4.68-2.67,5-5.41-1-1.67-3.25-7.09-10.25-8-11.25s-1.09-.25-3.42.33c-.33-5.75-1.92-5.41-2.83-4.83s-.17,1.17-2.75,1.17c-.09-1,.08-5.42-.25-6.17S70.63,350,70,346.45c-4.17-30.23-9-68.87-14.16-98-.45-4.67-2.85-10-3-14.92-.21-1-.42-.08-1.76-1.08s-.95-3.17-1.08-3.83-.12-.71.59-.5c1.57.14,2-2.39,1.58-3.46-2.77.67-3.88-6.64-4.12-9,.31.56,7.9.93,5.33,0a34.38,34.38,0,0,1-4.29-1c-1.34-.25-1-1.17-1-1.17,0-1.19,0-7,.22-9.5.68.6,5.84,3.92,5.29,2.21-.6-.49-5.32-3.42-1.25-1.79,1.71.54,1.33-.29,1.33-.29-1.67-.75-7.38-2.82-5.1-5.63.41.18,11.65,6.94,8,3.55-1.75-.84-6.5-3.8-7.42-4.21s-.46-2.92-.25-4.63c2.17,1.75,3.33.75,2.79.63-1.6-1.15-3.79-1.34-3-4.21,0-.67,1.15.58,3,1.79,5.12,2.32-.74-1.66-2.12-2.17-1.13-.37-.84-3-.79-4.25s-.26-1,.54-.58a61.79,61.79,0,0,1,6.33,4.13c.67.66,1.79-.21,1.08-.5s-5.66-3.75-7-4.34-.87-3.66-.88-4.33,2.38,1.25,2.47.75c-.28-1.31-2.43-1-2.3-3.38-.33-.7.59-.08.92.38s2.13.46,1.58,0c-1-.54-4.31-2.55-1.75-3.71.54.64,4,3.5,3.8,1.63-.5-.38-2.17-1.5-3.38-2.29s-.67-2.09-.72-3c-.05-.45,1.43.8,1.76,1.17.71.26,14.23,11.2,13.38,8.38-3.1-2.25-7.44-5.25-10.75-7.5-4.32-2.91-4.69-2.44-4.34-8.46.62-.06,14.33,13,13.38,9.61-2.42-1.67-6.79-5.49-7.29-5.95-1.67-1.61-6.85-4.22-5.29-7.75.33.25,3,2.55,3.62,3.25,3.19,1-1.49-2.66-2.83-3.54s-1-2.29-1-3.25c-.08-.37.58.21,1,.63.65.25,4.31,5.33,4.25,3-1.22-2.29-6-3.55-5.25-6.8,0-.66.37-.16,1.12.46s7.8,7.75,9.88,9.71,1.5,1.21,1.12,2c-.79-.38-4.68-4.43-4.41-2.54,2.08,1.38,7.75,7.46,10,8.58S70.34,173.41,71,173c3.09-2.52-.23-4.13-1.5-5.63-2.39-.6-7.88-7.72-10.62-9.83-5.75-4.77-9.17-4.66-7.79-13.37,5.77,6.47,13.36,14.54,19.54,20.79.54.41,4.14,5.43,4,2.62-3.24-3.12-10.14-9.63-12.71-13.37-2.32-2.76-11.33-9.59-10.45-14,5.91,6.79,11.12,12.87,18,19,2,1.65,5,7.84,6.71,6.38-.46-1.44-5.24-5.59-6.37-6.84-3.45-3.23-8.32-9.37-12.09-13-2.25-2.47-4-5.66-6.12-7.21-.65-5.67,2.25-1.28,4,1.46,4.09,4.39,8.93,9.18,13.25,13.75,1.51,1.24,4.08,5.39,5.37,4.25C71.26,154.35,61.33,144.92,57.3,140c-2.16-2.54-6.13-5.38-4.8-9.75,6.09,7.53,16,17.68,22.63,24.71.67.45,3.94,4.76,3.17,1.71-1.41-1.6-7.74-6.85-8.38-9.09a74.15,74.15,0,0,1-10-10.66c-.93-1.3-5.53-6.79-7-7.88a24.31,24.31,0,0,1,.21-4.92c1.25.5,1.79,2.34,1.92,2.55.71.9,5.9,4.87,6,6.75,1.69,1.78,5.32,4.82,6.79,7.5,4,3.91,9.49,9.28,13.21,13a14.25,14.25,0,0,0,2.33,2.21c.33.16,1-.17.29-.88-6.73-6.63-16.26-16-22.12-23.46-1.92-2.55-5.56-6.17-7.67-8.5-.71-.79-.33-2.62-.25-5.58,10.11,11,20.51,25.81,32,35.33.9.91,2.39-.78,1.83-1.5-9.88-7.53-18.12-18-24.62-28.75-2.2-3-7.17-9.29-8.25-12.21,0-.7.37-3.12.46-4.5,3.76,7.94,10.39,18.22,16.46,24.5,1.82,1.15-.78-2.29-1.3-3-3.72-5.56-10.87-18.18-13.5-24.5-.48-1.38-1.23-5.76.88-4.12.42.37,1.75,3.58,2.08,3.71,1.88-1.29,1.32-.32,2.84,1.41.18-2.39-2.4-4.78-2.21-7-.12-1.07-2.74-3.21-1.5-4.75.64-2,2.13-3,3-4.29,2.68-11.53,4-3.49,6.33,1.54.54,1.17.79.13.67-.54-.54-4.22-5.66-7.24-2.34-11.71.75-1.79.59-1.29,1.46-1.5,0,1,.42.92.75,1s.21-.71.21-3c6.13-11.39,18-25.2,33.5-35,29.07-17.53,64.67-30,98.33-31.17,34.77.2,45.28-.36,69.17,6.84,8.17,1.83,18.33,7.83,21.66,10.5,10.89,7.57,36.66,19.61,45.5,28.66,9.06,8.57,3.9,4.9,4.34,11.75-.08-.41.92-.91,1.5-1.91a1.13,1.13,0,0,1,1.83-.17c.17.25,1.67,2.83,2.34,3.75,1.33.85-2.35,7.47-.92,7.67,2.62-4.44,4.36-2.51,2.92,1.5a22.77,22.77,0,0,0-2,3.91c-.42,1.34-.09,3.67.16,3.67,1.16-.46,2.51-6.48,4.17-5.17,2.17,4.72-3.67,11.73-5.75,16.67,1-.17,3.92-2.92,4.5-3.75s1.42-3.5,2-3.83c3.58,2.43-8.28,17-5,15.58.58-.58,1.17-3.17,1-2.08,1.75,4.3,4.71-6.81,6.17-7.42,3.23,1.23,1.4,6.49-.51,10.08-3.61,7.63-5.58,12.29-9.66,18.5-.67,1.25-1.58,1.09-1.5.67.15-.18,6.75-16.17,4.33-13-1.39,4.23-6.91,16.92-10,20.5.35.5-6.47,6.89-4.41,7.25.05.39,3-4.24,2.75-1.92-.17.42-1.42,2-1.67,2.42s-.58,2.08.67.75c7.08-10.45,17.83-25.84,22.5-37.17.41-1.08,1.16-2.33,2-.91A131.19,131.19,0,0,1,364,116.61c-6,9.42-13.68,20-19.83,29.75-.83,1.59-3.17,4.09-4.17,5.42s.25,2.42.5,3.17,2.09-1.42,2.42-2.25c4.49-8.34,11.95-19,17-27.17.9-1.4,5.36-11,5.33-3.83-5,7.21-11,18.24-16.42,25.66-.63,1.54-8.89,10.51-5.75,10.5,3.2-4.44,11.26-16.07,14.09-20.91,1.92-2.19,6.35-11.82,8.5-13.09,1.71,3.55-9.69,17.92-11.75,22,.67.16-13.28,16.2-9.33,14.59,6.81-7.62,13.78-18.43,19.15-27.84,3.15-8.08,4-.54,4.68,4.25.33,3.09-1.33,4-3.42,7.42-6.42,9-9.67,13-15.91,21.83-1.59,2.25-.09,2.84.08,2.42,4-5.59,13.46-16.49,17.08-22.83,2.3-7.68,4.73-2.22,2.84,1.66-1,1.67-7,9.75-7.67,10.75s-7.58,11.09-8.58,12.25-.75,4.34,0,3.25c1.33-3.08,14.16-20.16,15.41-22.33,3.39-7.18,2.9,3.25,1.92,4.92-.33.75-6.58,8.66-7.09,9.41-.36,1.44-10.24,10-8.33,12.5,4.89-4.76,11.52-15.24,16.5-20.33,1.8,6-3.92,10.23-7,14.92a101.7,101.7,0,0,1-7.58,8.66c-.5.34-.5,2.42.25,1.59,1.33-1.42,11.33-12.92,12.08-14.34,4.76-8.24,2.72,3.44,3,6.84-.47,4.7-.41,9.32-2.33,12.83-.33.92-6.42,6.83-7.67,7.75s-2,2-.91,2.67c.75-1.09,8.33-8.34,8.83-8.92s.25,1.25-.08,5.25c-.42.75-6.92,7.08-7.84,8s-.75,3,0,2c7.57-7.07,9.93-14.88,9,1.92-1.53,1.08-7.13,7.16-8.3,8.5s-.5,1.41.5,2.16a16.56,16.56,0,0,1,7.58-7.25c1.05,4.62-.62,15.87-2.33,21.09-.25,2.58-1.83,2.75-2.83,2.91s-2.09,1.34-2.34,3.25A279.23,279.23,0,0,1,359.21,275.86Zm46.5-46.8c-.22.55-2.11,10.78-3.44,13.33-1.79,2.73-4.58,12.5-7.22,8.22.56-1.24,2.73-5.42.33-5.89-7.78-3.64-2.06,20.48-4,25-5.34,9.26-7.1,22.41-13.22,32.33-2.56,3.89-8.34,13.33-9.11,14.55-2.73,7.28,5.21-5.64,6.66-2.44.45.78.67,1.56.22,3.89-.76,4.39-2.35,18.18-1.77,22.11-2.78-.54-8.92,4.93-11.67,4.56-1-.34-.33-1,0-2.12s0-15.66,0-15.66c1.87-1.85,3.67-16.65,4.56-18.78,1.28-3.84,5.28-12.16,5.11-16.22,8.81-18.45,17.93-49.45,28.11-67.45,1.09-3.11,3.73-.52,5,.45C406.05,225.61,405.93,228.5,405.71,229.06Z"/><path class="cls-1" d="M156,418.45a5.56,5.56,0,0,1,2.92,1.08c.42.42,5.17,5.42,6.92,6.33s2.66,2.09,3.5,2.42a21.66,21.66,0,0,1,4.25,1.75c1.41.92,3.08,3.17,11.83,4.67s12.83,2.75,19,2.66a139.29,139.29,0,0,0,20-2c3.25-.75,12.33-3.41,13.67-4.33s7.91-4.75,8.33-5.25,2.83-2.58,3.33-3.33,3.59-3.77,4.67-4,2.25-.08,2.83-.49c-.83,2.25-2,3.41-2.75,3.75a12.77,12.77,0,0,0-4.5,3.83c-1.33,2-6,6.67-8.25,7.92s-4.08,2.26-5,3.92-3.66,8-4.25,9.58-3.41,7.08-3.75,8.75-.91,3-2.25,3.58-3,1.42-4.58.75a33.36,33.36,0,0,0-8.42-1.67,34.15,34.15,0,0,0-6.25.34c-1.25.33-3.5,1.33-3.58,2.16s-.83,1.34-1.5.75a3.33,3.33,0,0,0-2.78-.41c-.72.25-1.39-.84-2.22-1.25s-3.83-3.17-5.92-.59c-.83,1.17-.58.5-1.16-.33s-1.59-4-3.42-4.83-1.17-1.09-.5-1.09.5-.91.17-1.58-1.84-4.33-4.09-4.08-1.5-.67-.83-.67.25-1.08-.25-1.5-6-7-7.25-7.5-.58-1.08-.08-1.08.16-.59-.34-1.17-2.66-1.25-3.66-2.08-2.5-3.59-3.34-4.25-6.66-7.5-9.25-8.67S156,418.45,156,418.45Z"/><path class="cls-1" d="M122.93,261.47a4.37,4.37,0,0,1-.08-1.94c.26-1.92,1.83-2.28,3.31-2.28a3.29,3.29,0,0,1,3,3.11c0,1.42-.51,3.39-3.05,3.39A3.57,3.57,0,0,1,122.93,261.47Z"/><path class="cls-1" d="M288.17,257.6a2.61,2.61,0,0,1,2.54-2.74,2.56,2.56,0,0,1,2.71,2.49c0,1.38-1.22,2.23-2.7,2.23S288.17,258.77,288.17,257.6Z"/><path class="cls-1" d="M228.55,264.28c8.15,17.14,2.54,17.79,1.22,31.67,1.35.09,1.06-5,2.11-6.67a33.15,33.15,0,0,0,2.17-7.33C234.94,280.54,230.34,256.62,228.55,264.28Z"/><path class="cls-1" d="M252.05,280.52c-1.34,1.07-5.61-2.13-5.62-1.85-.88-.33.5,1.27-.61.78s-4.44-1.11-5.61-2.23c-4.56-3.68-6.63-8-4.44-15,1.67-5,3.4-9,6.78-7.88.11.66.44,5-.06,6.5s-1.06,4.83-.33,5.77C245.19,270.7,248.26,276.71,252.05,280.52Z"/><path class="cls-1" d="M165.82,280c.92-1.49,4.78-4.76,6.27-6.67s1.81-3.37,1.34-4.89c-.9-3-2.55-6.39-4.16-7.89s-.61-3.19,1.66-2.9,4.12.29,5.06,1.62,2.33,2.62,2.56,5.78.44,7.17-1.17,8.56-6.95,5.72-8.28,6S164.38,282.28,165.82,280Z"/><path class="cls-1" d="M242.27,237.67c10.19-14,43.39-38.85,66-33.5,17.34,6.62,26.74,16,31.28,27.55.61,3.23-.5,2.95-1.23,2.06a86,86,0,0,0-11.89-9.89c-6.84-6.15-21.06-11.3-29.89-7.11-12,4.07-15.32.7-28.61,8.95-12.13,6.83-15.91,9.85-23.16,16.55C242.61,244,241.79,238.27,242.27,237.67Z"/><path class="cls-1" d="M323.38,260.7c-2.13-2-5.19-8.25-9.33-11.34-9.41-9.58-37.72-.24-45.88,6.5-4.82,3.7-8.59,5.6-10.83,10.09-.17,1,.58.41,1.41.46s8.92,1.87,9.84,2.12,2.54,1,3.33.79.5-2.41.25-2.75a12.53,12.53,0,0,0-4.25-1.29c-15.28-.28,9.89-9.2,9.21-8.46-1.45,21.46,34.63,12.92,27.87-4.71-.63-2.48,8.82,2.21,10.05,2.34,1.41.41,2.2,2.37,2.62,2.77a13.13,13.13,0,0,0,2.67,2.36c.75.25.21.66.16,1.24.31.41-11.08,6.37-8.62,6.34a15.22,15.22,0,0,0,9.42-5.8C321.89,260.34,323.63,261.73,323.38,260.7Zm-21.58-.09c-4.95,8.23-23.12,7.37-22.38-4.41,3-1.84,17.76-6.31,21.08-5.54C302.61,252,303.65,258.33,301.8,260.61Z"/><path class="cls-1" d="M171.05,249.61c-1.67.51-18.13,2.3-20.52-.33-1.67-.89-6.08-1.28-9.36-2.42-2.65-.91-9.33-5.54-12.9-7.13-6-1.87-16.81-5.27-23.64-5.2-8.38,1.86-18.91,5.13-25.75,11.29-3.33,2.56-10.54,5.46-12.06,8.79-.3,1.17,2.35,3.8,2.93,4.38,3.69,2,4.62-1.2,8.84-3.08a18.17,18.17,0,0,1,6.16-2.21c7.34-4.95,14.8-9.69,24.13-5.17,2.29.54-.67,2.25-2.67,2.79a43,43,0,0,0-9.29,5.13c-2.18,2.62-3.19,10.38.17,12.81.57,1.08,12,1,7.79-.19-3.16-1.28-6-.57-5.75-5.83-.21-3.9,11-6.52,13.54-6.92-6.09,18.62,27.07,21.77,26.87,2.5.05-1.54.3-1.57.3-1.57,5.86,1.89,14,4.42,16.75,8.86,1.67,1.4-.85,1-1.63,1.21-1.5.48-3.15,2.86-4.5,3.67-.5.37.92,1,1.63,0a8.36,8.36,0,0,1,4.12-3.08c.77-.55,7.65.56,5.84-.63-2.71-1.49-6.59-5.71-9.84-7.58a48,48,0,0,0-7.5-3.21c-2-.71-.41-1.5-.5-1.88,9.45.46,21.59,1.14,26.84-3C172.27,250.17,172.16,249,171.05,249.61Zm-37.34,15.3c-8,8.62-22.14,1.34-18.91-9,3.38-2.87,20.27-1,22,.51C136.75,259.7,136.92,262.36,133.71,264.91Z"/></svg>