<svg id="Layer_1" data-name="Layer 1" xmlns="http://www.w3.org/2000/svg" viewBox="0 0 409.02 437.48"><defs><style>.cls-1{fill:#1b1b1b;fill-rule:evenodd;}</style></defs><path class="cls-1" d="M204.51,0C91.64,0,0,91.64,0,204.51c0,48.77,18.42,95.67,47,130.8A15.6,15.6,0,0,0,64.66,340c4.11-1.58,7.9-3.85,12.46-3.85,24,0,45.74,22.57,44.63,69.25a15.62,15.62,0,0,0,4.5,11.33c6.29,6.37,14.66,11.35,32.8,11.43a18.17,18.17,0,0,0,4.21-.46,17.92,17.92,0,0,0,2.54,2.54c9.85,8.05,24.94,9,36,4.67a16.89,16.89,0,0,0,2.61-1.27,24.85,24.85,0,0,0,6.85,2.66,48.21,48.21,0,0,0,18.41.19,28.91,28.91,0,0,0,16.55-9,23.08,23.08,0,0,0,2.79.5,43.68,43.68,0,0,0,15.66-1.52c10.84-3,19.54-10.73,21.66-17.88a16,16,0,0,0,.64-4.23c.58-46.63,20.38-68.17,44.46-68.17,4.63,0,8.79,1.59,13,3.2a15.58,15.58,0,0,0,17.73-4.7C390.77,299.52,409,253.33,409,204.51,409,91.64,317.38,0,204.51,0ZM350.05,324.85c-5.95-2.31-12-4.26-18.59-4.26-30.45,0-59.32,24.62-60.06,83.57-2,6.65-19.28,10.21-23,7.56-5.17-3.68-3.79-18.16-5.55-20.28a3.19,3.19,0,0,0-4.5-.64c-2.14,1.73-.61,19-3.1,25.27-2.78,6.95-20.12,6.6-23.4,3.85-5.44-4.54-1.92-22.22-5.31-25-1.85-1.52-2.78-1.3-4.54-.53-2.38,1-1.06,24.19-5.79,26-6.31,2.44-14.94,2.38-20.55-2.2-5.1-4.17-1.39-24.92-3.5-26.75a3.47,3.47,0,0,0-4.14-.53c-1.92.78-3.39,21.71-8.91,21.68-11.9-.05-17.63-2.61-21.76-6.79,1.4-59.13-29.8-85.22-60.23-85.22-6.54,0-12.14,2.63-18,4.88h0C32.67,293,15.6,249.62,15.6,204.51,15.6,100.25,100.25,15.6,204.51,15.6s188.91,84.65,188.91,188.91C393.42,249.65,376.51,292.33,350.05,324.85Z"/><path class="cls-1" d="M175.39,330.16c-4.59-6.2,2.93-19.24,8.34-27.49,6.8-10.37,15.63-18.84,19.93-18.8,5.16.05,16.33,15.5,18.71,18.89,2.91,4.13,12.58,16.21,9.84,25.77-1.92,6.74-13,11-27,11.35S179,335,175.39,330.16Z"/><path class="cls-1" d="M289.91,288.53a80.31,80.31,0,0,0,75.45-111.12,74,74,0,0,1-75.45,111.12Z"/><path class="cls-1" d="M93.38,287.87a80.31,80.31,0,0,0,75.44-111.12A74,74,0,0,1,93.38,287.87Z"/><path class="cls-1" d="M291.6,141.74a79.53,79.53,0,0,0-43.68,125.62A73.31,73.31,0,0,1,291.6,141.74Z"/><path class="cls-1" d="M95.06,141.09A79.53,79.53,0,0,0,51.38,266.7,73.3,73.3,0,0,1,95.06,141.09Z"/><path class="cls-1" d="M259.35,253.21a10.59,10.59,0,0,1-7.62-2.87,9.62,9.62,0,0,1-3-7.26,11.08,11.08,0,0,1,3.46-8.45,12,12,0,0,1,8.55-3.27,10.51,10.51,0,0,1,7.57,2.82,9.69,9.69,0,0,1,2.94,7.32,11,11,0,0,1-3.52,8.39,11.81,11.81,0,0,1-8.38,3.32Z"/><polygon class="cls-1" points="301.4 252.31 317.58 173.48 298.75 173.48 282.57 252.31 301.4 252.31"/><polygon class="cls-1" points="339.3 252.31 355.47 173.48 336.64 173.48 320.46 252.31 339.3 252.31"/><path class="cls-1" d="M267.67,212.78a10.55,10.55,0,0,1-7.62-2.87,9.58,9.58,0,0,1-3-7.26,11.09,11.09,0,0,1,3.47-8.45,12,12,0,0,1,8.55-3.26,10.46,10.46,0,0,1,7.56,2.81,9.66,9.66,0,0,1,2.95,7.32,11,11,0,0,1-3.52,8.39,11.77,11.77,0,0,1-8.38,3.32Z"/><path class="cls-1" d="M143.7,200.13H123.54V180a16.32,16.32,0,1,0-32.64,0v20.16H70.74a16.32,16.32,0,1,0,0,32.64H90.9v20.16a16.32,16.32,0,0,0,32.64,0V232.77H143.7a16.32,16.32,0,1,0,0-32.64ZM71,222.41l-8.21-5.89L71,210.63Zm36-50.12,5.89,8.22H101.14Zm0,88.47-5.89-8.22h11.78Zm36-38.35V210.63l8.22,5.89Z"/></svg>