<svg id="Layer_1" data-name="Layer 1" xmlns="http://www.w3.org/2000/svg" viewBox="0 0 452.19 300.38"><defs><style>.cls-1,.cls-2{fill:#fff;}.cls-1{fill-rule:evenodd;}</style></defs><polyline class="cls-1" points="0.21 0 63.49 115.35 0.49 229.31 120.88 229.31 176.88 127.11 130.4 126.55 93.84 192.35 67.41 192.35 109.68 115.07 67.41 38.64 93.72 38.64 130.4 104.43 177.72 104.71 120.6 0.28 0.21 0"/><path class="cls-1" d="M135.68.31l63.6,114.34L136.72,229.38h45.62L243.6,119.62l8.69-.08,9.56,13.7-53,95.72,45.9.5,53.33-96-16.55-19.38,16.26-21.42L254.67.57l-119-.26Zm87,24.48H195L231.33,89.9H259L222.67,24.79Z"/><path class="cls-1" d="M269.53.26l63.6,114-63,114.7h46.49l59.71-109.1h26.5L342.42,229l46.76-.12,63-114.7L388.28.4,269.53.26Zm88.35,24.53H330.25l36.3,65.11h27.63l-36.3-65.11Z"/><polygon class="cls-2" points="19.52 300.38 0 300.38 0 253.27 19.34 253.27 19.34 259.5 7.04 259.5 7.04 273.26 17.62 273.26 17.62 279.37 7.04 279.37 7.04 294.15 19.52 294.15 19.52 300.38 19.52 300.38"/><path class="cls-2" d="M48.18,300.38H42L30.73,270.73a17.13,17.13,0,0,1,.45,3.4v26.25H24.33V253.27h6.16l11.28,29a17.92,17.92,0,0,1-.45-3.4V253.27h6.86v47.11Z"/><path class="cls-2" d="M77.29,291.5A8.59,8.59,0,0,1,74.82,298a9.22,9.22,0,0,1-6.64,2.36H53.83V253.27H68.18a9.15,9.15,0,0,1,6.64,2.39,8.69,8.69,0,0,1,2.47,6.55V291.5Zm-7.07-1.17V263.27q0-3.94-4.12-3.95H60.87v35h5.05q4.31,0,4.3-4Z"/><polygon class="cls-2" points="101.23 300.38 82.73 300.38 82.73 253.27 89.77 253.27 89.77 294.09 101.23 294.09 101.23 300.38 101.23 300.38"/><polygon class="cls-2" points="124.92 300.38 105.41 300.38 105.41 253.27 124.74 253.27 124.74 259.5 112.44 259.5 112.44 273.26 123.03 273.26 123.03 279.37 112.44 279.37 112.44 294.15 124.92 294.15 124.92 300.38 124.92 300.38"/><path class="cls-2" d="M152.29,296.08q0,4.31-4.27,4.3H133.86q-4.25,0-4.24-4.3V284.85h7v9.6h8.6v-9.24l-14.1-13.37a5,5,0,0,1-1.53-3.76V257.61q0-4.34,4.24-4.34H148q4.28,0,4.27,4.28v10.53h-7V259.2h-8.6v8.52L150.76,281a5,5,0,0,1,1.53,3.82v11.23Z"/><path class="cls-2" d="M180.44,296.08c0,2.87-1.43,4.3-4.27,4.3H162c-2.82,0-4.24-1.43-4.24-4.3V284.85h7v9.6h8.6v-9.24l-14.1-13.37a5,5,0,0,1-1.54-3.76V257.61c0-2.89,1.42-4.34,4.24-4.34h14.17c2.84,0,4.27,1.43,4.27,4.28v10.53h-7V259.2h-8.6v8.52L178.9,281a5,5,0,0,1,1.54,3.82v11.23Z"/><polygon class="cls-2" points="218.24 300.38 198.72 300.38 198.72 253.27 218.06 253.27 218.06 259.5 205.76 259.5 205.76 273.26 216.34 273.26 216.34 279.37 205.76 279.37 205.76 294.15 218.24 294.15 218.24 300.38 218.24 300.38"/><path class="cls-2" d="M247.14,300.38H239.8L232,278.5v-4.25H239V259.32h-8.87v41.06h-7V253.27h18.68c2.82,0,4.24,1.45,4.24,4.34v17.12c0,2-.67,3.28-2,3.86a14.48,14.48,0,0,1-4.57.45l7.76,21.34Z"/><path class="cls-2" d="M275.29,300.38h-7l-1.41-8.94h-8.81l-1.42,8.94h-6.94v-.12l9.11-47h7.4l9.05,47.17Zm-9.38-15-3.43-21.25L259,285.39Z"/><path class="cls-2" d="M315.2,296.08c0,2.87-1.44,4.3-4.3,4.3H296.1q-4.19,0-4.18-4.3V257.61q0-4.34,4.27-4.34H310.9c2.86,0,4.3,1.45,4.3,4.34v10.05h-7.07v-8.34H299v35h9.17V281.15H302.9v-6h12.3v20.92Z"/><path class="cls-2" d="M344.67,300.38h-7l-1.41-8.94h-8.81l-1.42,8.94H319.1v-.12l9.12-47h7.4l9.05,47.17Zm-9.39-15-3.42-21.25-3.46,21.25Z"/><path class="cls-2" d="M377.06,300.38h-6.77V277.14a43.16,43.16,0,0,1,.42-5.12l-6.07,24.06h-3.58L355,272a44.46,44.46,0,0,1,.42,5.12v23.24h-6.76V253.27h6.64l7.4,26a12.42,12.42,0,0,1,.18,2.14,17.83,17.83,0,0,1,.18-2.14l7.4-26h6.65v47.11Z"/><polygon class="cls-2" points="389.84 300.38 382.8 300.38 382.8 253.27 389.84 253.27 389.84 300.38 389.84 300.38"/><path class="cls-2" d="M419.46,300.38h-6.17L402,270.73a17.92,17.92,0,0,1,.45,3.4v26.25h-6.86V253.27h6.17l11.27,29a17.92,17.92,0,0,1-.45-3.4V253.27h6.86v47.11Z"/><path class="cls-2" d="M448.39,296.08q0,4.31-4.3,4.3h-14.8c-2.78,0-4.18-1.43-4.18-4.3V257.61c0-2.89,1.43-4.34,4.27-4.34h14.71q4.31,0,4.3,4.34v10.05h-7.07v-8.34h-9.17v35h9.17V281.15h-5.23v-6h12.3v20.92Z"/></svg>