<svg xmlns="http://www.w3.org/2000/svg" xmlns:xlink="http://www.w3.org/1999/xlink" width="24" height="72" >
	<symbol id="bag" viewBox="0 0 24 24">
		<title>Bag Icon</title>
		<path d="M19,6v0.063l0.004,0.063L19.996,22H4.004L4.996,6.125L5,6.063V6H19 M19,4H5C3.896,4,3,4.896,3,6L2,22c0,1.104,0.896,2,2,2h16c1.104,0,2-0.896,2-2L21,6C21,4.896,20.104,4,19,4L19,4z"/>
		<path d="M9,8V4.824C9,3.267,10.267,2,11.824,2H12h0.088C13.646,2,15,3.267,15,4.824V8h2V4.824C17,2.16,14.84,0,12.176,0h-0.352C9.16,0,7,2.16,7,4.824V8H9z"/>
	</symbol>
	<symbol id="search" viewBox="0 0 24 24">
		<title>Search Icon</title>
		<path d="M10.02,4.007c-3.314,0-6,2.687-6,6s2.686,6,6,6c3.313,0,6-2.687,6-6S13.333,4.007,10.02,4.007z M10.02,14.007c-2.209,0-4-1.791-4-4s1.791-4,4-4s4,1.791,4,4S12.229,14.007,10.02,14.007z M17.1,2.925C13.191-0.979,6.851-0.975,2.938,2.934c-3.913,3.907-3.917,10.24-0.009,14.144s10.249,3.899,14.162-0.009S21.007,6.828,17.1,2.925z M10.02,18.007c-4.418,0-8-3.582-8-8s3.582-8,8-8s8,3.582,8,8S14.438,18.007,10.02,18.007z"/>
		<path d="M23.121,18.879l-5.014-5.014c-0.298,0.623-0.66,1.207-1.088,1.74l4.688,4.688C21.962,20.548,22,20.846,22,21c0,0.155-0.038,0.452-0.293,0.707S21.154,22,21,22c-0.155,0-0.452-0.038-0.707-0.293l-4.69-4.689c-0.534,0.426-1.12,0.787-1.744,1.084l5.021,5.02C19.465,23.707,20.232,24,21,24s1.535-0.293,2.121-0.879C24.293,21.95,24.293,20.051,23.121,18.879z"/>
	</symbol>
	<symbol id="search-close" viewBox="0 0 24 24">
		<title>Search Close Icon</title>
		<path d="M17.1,2.925C13.191-0.979,6.851-0.975,2.938,2.934c-3.913,3.907-3.917,10.24-0.009,14.144s10.249,3.899,14.162-0.009S21.007,6.828,17.1,2.925z M10.02,18.007c-4.418,0-8-3.582-8-8s3.582-8,8-8s8,3.582,8,8S14.438,18.007,10.02,18.007z"/>
		<path d="M23.121,18.879l-5.014-5.014c-0.298,0.623-0.66,1.207-1.088,1.74l4.688,4.688C21.962,20.548,22,20.846,22,21c0,0.155-0.038,0.452-0.293,0.707S21.154,22,21,22c-0.155,0-0.452-0.038-0.707-0.293l-4.69-4.689c-0.534,0.426-1.12,0.787-1.744,1.084l5.021,5.02C19.465,23.707,20.232,24,21,24s1.535-0.293,2.121-0.879C24.293,21.95,24.293,20.051,23.121,18.879z"/>
		<path d="M14,12.667L12.666,14L10,11.333L7.333,14L6,12.667L8.666,10L6,7.333L7.333,6L10,8.667L12.666,6L14,7.333L11.333,10L14,12.667z"/>
	</symbol>
	<symbol id="thumb-up" viewBox="0 0 24 24">
		<title>Thumb Up Icon</title>
		<path d="M22,10l0.001,12h-4V10H22 M22.001,8h-4c-1.104,0-2,0.896-2,2v12c0,1.104,0.896,2,2,2h4C23.104,24,24,23.104,24,22V10C24,8.896,23.104,8,22.001,8L22.001,8z"/>
		<path d="M8.411,2.004c0.009,0,0.018,0,0.025,0c0.799,0.018,0.884,0.9,1.021,1.473c0.139,0.573,0.895,3.56,2.202,5.12c1.309,1.561,2.904,2.245,4.34,2.42v9.329c0,0-1.691,0.07-2.361,0.701c-0.67,0.633-2.074,0.947-3.701,0.947c-1.628,0-3.352,0-3.352,0s-0.043,0.002-0.117,0.002c-0.529,0-2.691-0.08-2.691-1.404c0,0-0.111-0.982,0.606-1.123c0,0-1.436-0.297-1.436-1.963c0,0-0.081-1.018,0.67-1.334c0,0-1.181-0.139-1.181-1.717c0,0,0.016-1.211,0.701-1.544c0,0-1.148-0.14-1.148-1.718S2.756,9.65,3.267,9.615s4.328-0.69,4.328-0.69s-0.434-2.887-0.307-4.5C7.415,2.828,7.636,2.004,8.411,2.004 M8.411,0.004L8.411,0.004c-2.778,0-3.024,3.097-3.116,4.262C5.225,5.153,5.291,6.3,5.383,7.269C4.271,7.453,3.337,7.6,3.116,7.621L3.069,7.623c-1.957,0.119-3.079,1.42-3.079,3.57c0,0.902,0.234,1.622,0.589,2.178c-0.121,0.49-0.139,0.9-0.142,1.059c0,0.904,0.233,1.627,0.588,2.186c-0.069,0.324-0.094,0.652-0.077,0.963c0.015,1.014,0.347,1.842,0.841,2.471c-0.024,0.221-0.028,0.443-0.01,0.662c0.061,1.543,1.313,3.285,4.689,3.285c0.064,0,0.113,0,0.146-0.002h3.322c1.566,0,3.694-0.25,5.008-1.432c0.217-0.102,0.796-0.203,1.138-0.219L18,22.266v-1.92v-9.329V9.246l-1.758-0.214c-0.817-0.1-2.009-0.479-3.05-1.72c-0.777-0.928-1.45-2.899-1.79-4.305l-0.037-0.165C10.868,0.539,9.522,0.028,8.48,0.005l-0.022,0L8.411,0.004L8.411,0.004z"/>
	</symbol>
	<symbol id="joystick" viewBox="0 0 24 24">
		<title>Joystick Icon</title>
		<path d="M22.091,10.091c-0.805-1.755-2.17-4.088-4.729-4.088c-1.045,0-1.944,0.401-2.737,0.755l-0.1,0.044c-0.521,0.231-1.021,0.204-1.428,0.273L11.881,7h-0.063c-0.276,0-1.261,0.117-2.329-0.355l-0.1,0.032C8.596,6.324,7.696,5.963,6.651,5.963c-2.563,0-3.93,2.348-4.735,4.099c-1.346,2.925-2.802,8.427-1.298,11.575c0.689,1.444,1.778,1.992,2.57,2.192c0.361,0.092,0.717,0.142,1.056,0.142c1.715,0,2.674-1.132,3.309-1.881c0.74-0.874,1.442-1.84,3.718-1.959L11.852,20h0.322c2.733,0,3.485,1.029,4.282,1.977c0.634,0.75,1.592,1.956,3.309,1.956c0.339,0,0.693-0.013,1.055-0.104c0.789-0.201,1.874-0.727,2.563-2.167C24.886,18.514,23.434,13.024,22.091,10.091z M20.325,21.924c-0.206,0.053-0.393-0.061-0.562-0.061c-2.101,0-1.734-3.863-7.59-3.863H12v0.254h-0.074c-5.869,0-5.541,3.719-7.646,3.719c-0.17,0-0.375-0.024-0.583-0.077c-2.769-0.702-1.703-7.181,0.044-10.979C4.78,8.661,5.704,8.001,6.656,8.001c0.651,0,1.311,0.309,2.026,0.625c1.392,0.617,2.658,0.681,3.131,0.681C11.938,9.308,12,9.304,12,9.304v0.004c0,0,0.078,0.005,0.202,0.005c0.474,0,1.746-0.065,3.133-0.683c0.714-0.318,1.375-0.626,2.024-0.626c0.949,0,1.876,0.66,2.912,2.92C22.014,14.729,23.088,21.22,20.325,21.924z"/>
		<polygon points="9,11 7,11 7,13 5,13 5,15 7,15 7,17 9,17 9,15 11,15 11,13 9,13"/>
		<polygon points="15,13 13,13 13,15 15,15 15,17 17,17 17,15 15,15"/>
		<rect x="17" y="13" width="2" height="2"/>
		<rect x="14.999" y="10.999" width="2" height="2"/>
		<path d="M15,4h1h2c2.206,0,4-1.794,4-4h-2c0,1.104-0.896,2-2,2h-2h-1c-2.205,0-4,1.794-4,4h2C13,4.896,13.896,4,15,4z"/>
	</symbol>
	<symbol id="close" viewBox="0 0 18 14">
		<title>Close Icon</title>
		<path d="M16,1.399L10.4,7l5.599,5.6L14.6,14L9,8.399L3.4,14l-1.399-1.4
		l5.6-5.6L2,1.399L3.399,0L9,5.601L14.601,0L16,1.399z"/>
	</symbol>
	<symbol id="filter" viewBox="0 0 14 14">
		<title>Filter Icon</title>
		<path d="M12,0v6h2V0H12z M12,10h2V8h-2V10z M12,14h2v-2h-2V14z M6,14h2V8H6V14z M6,6h2V4H6V6z M6,2h2V0H6V2z M0,6h2V0H0V6z M0,10h2V8H0V10z M0,14h2v-2H0V14z"/>
	</symbol>
	<symbol id="chart" viewBox="0 0 24 24">
		<title>Chart Icon</title>
		<path d="M10,2.201V12v2h2h9.799c-0.929,4.559-4.97,8-9.799,8C6.486,22,2,17.514,2,12C2,7.171,5.441,3.13,10,2.201M12,0C5.373,0,0,5.373,0,12s5.373,12,12,12c6.627,0,12-5.373,12-12H12V0L12,0z"/>
		<path d="M16,2.659c2.395,1.03,4.312,2.947,5.342,5.341H16V2.659 M14,0v10h10C23.14,4.889,19.109,0.86,14,0L14,0z"/>
	</symbol>
	<symbol id="trophy" viewBox="0 0 24 24" enable-background="new 0 0 24 24">
		<title>Trophy Icon</title>
		<path d="M11.008,24h1.997v-2h-1.997V24z M19.99,2V0H4.023v2H0l0.032,2.032C0.058,5.667,0.421,11,4.008,11H4.22c0.726,2.605,3.432,4.608,6.788,4.944V18H9.013c-2.206,0-3.993,1.791-3.993,4v2h1.996v-2c0-1.104,0.895-2,1.997-2h5.988c1.1,0,1.995,0.896,1.995,2v2h1.996v-2c0-2.209-1.787-4-3.991-4h-1.996v-2.056c3.356-0.336,6.062-2.339,6.788-4.944h0.198c3.588,0,3.95-5.333,3.977-6.968L24,2H19.99z M4.008,9C2.106,9,2.027,4,2.027,4h1.981V9z M17.994,9.601c0,2.385-2.742,4.399-5.987,4.399c-3.246,0-5.988-2.015-5.988-4.399V2h11.975V9.601z M19.991,9V4h1.98C21.972,4,21.893,9,19.991,9z"/>
	</symbol>
	<symbol id="logout" viewBox="0 0 24 24">
		<title>Logout Icon</title>
		<path d="M21.063,19.066c-3.912,3.908-10.253,3.912-14.161,0.01c-0.338-0.338-0.636-0.699-0.915-1.07h2.726c1.409,1.24,3.254,2,5.28,2c4.418,0,7.999-3.582,7.999-8c0-4.417-3.581-7.999-7.999-7.999c-2.026,0-3.871,0.758-5.28,2H5.992c0.28-0.372,0.58-0.734,0.919-1.073c3.913-3.907,10.254-3.912,14.161-0.009C24.979,8.828,24.977,15.158,21.063,19.066z M13.993,11.006v2H3.439L5,14.668l-1.25,1.33l-2.5-2.662l0,0L0,12.006l3.75-3.993L5,9.344l-1.561,1.662H13.993z"/>
	</symbol>
	<symbol id="logout-circle" viewBox="0 0 24 24">
		<title>Logout Circle Icon</title>
		<path d="M21.063,19.066c-3.912,3.908-10.253,3.912-14.161,0.01c-0.338-0.338-0.636-0.699-0.915-1.07h2.726c1.409,1.24,3.254,2,5.28,2c4.418,0,7.999-3.582,7.999-8c0-4.417-3.581-7.999-7.999-7.999c-2.026,0-3.871,0.758-5.28,2H5.992c0.28-0.372,0.58-0.734,0.919-1.073c3.913-3.907,10.254-3.912,14.161-0.009C24.979,8.828,24.977,15.158,21.063,19.066z"/>
	</symbol>
	<symbol id="logout-arrow" viewBox="0 0 24 24">
		<title>Logout Arrow Icon</title>
		<path d="M13.993,11.006v2H3.439L5,14.668l-1.25,1.33l-2.5-2.662l0,0L0,12.006l3.75-3.993L5,9.344l-1.561,1.662H13.993z"/>
	</symbol>
	<symbol id="login-register" viewBox="0 0 24 24">
		<title>Login Register Icon</title>
		<path d="M14.991,0.38v2.078c4.059,1.274,7.003,5.062,7.003,9.537c0,5.521-4.479,9.996-10.004,9.996S1.986,17.516,1.986,11.995c0-4.476,2.945-8.263,7.003-9.537V0.385C3.821,1.723,0,6.406,0,11.994C0,18.624,5.372,24,11.999,24C18.627,24,24,18.624,24,11.994C24,6.399,20.168,1.711,14.991,0.38zM12.991,0H10.99v9.996h2.001V0z"/>
	</symbol>
	<symbol id="account" viewBox="0 0 24 24">
		<title>Account Icon</title>
		<path d="M11.984,16.985c2.206,0,3.992-0.885,3.992-1.977H7.991C7.991,16.101,9.778,16.985,11.984,16.985z M8.989,9.003H6.988v1.999h2.001V9.003z M11.999,0C5.372,0,0,5.372,0,12c0,6.627,5.372,12,11.999,12C18.627,24,24,18.627,24,12C24,5.372,18.627,0,11.999,0z M11.99,21.992c-5.524,0-10.004-4.474-10.004-9.991S6.466,2.01,11.99,2.01s10.004,4.474,10.004,9.991S17.515,21.992,11.99,21.992z M14.991,11.002h2.001V9.003h-2.001V11.002z"/>
	</symbol>
	<symbol id="comments-small" viewBox="0 0 10 10">
		<title>Comments Small Icon</title>
		<path d="M8,2v3.984H3.022H2.417L2,6.263V6V2H8 M8.571,0H1.429C0.64,0,0,0.715,0,1.597V6v0.389V10l3.022-2.016h5.549C9.36,7.984,10,7.27,10,6.389V1.597C10,0.715,9.36,0,8.571,0L8.571,0z"/>
	</symbol>
	<symbol id="match-stats" viewBox="0 0 12 12">
		<title>Match Stats Icon</title>
		<path d="M5,12h2V0H5V12z M1,12h2V4H1V12z M9,6v6h2V6H9z"/>
	</symbol>
	<symbol id="match-overview" viewBox="0 0 12 12">
		<title>Match Overview Icon</title>
		<path d="M4.004,10H2.325c-0.179,0-0.286-0.087-0.32-0.262L0.018,2.286C-0.041,2.096,0.044,2,0.275,2h1.205C1.65,2,1.753,2.087,1.787,2.261l1.346,6.122h0.051L4.53,2.261C4.564,2.087,4.666,2,4.837,2h1.205c0.214,0,0.299,0.096,0.256,0.286L4.312,9.738C4.269,9.913,4.166,10,4.004,10z"/>
		<path d="M6.349,7.96V7.71c0-0.174,0.09-0.261,0.269-0.261h1.089c0.181,0,0.27,0.087,0.27,0.261v0.1c0,0.316,0.063,0.531,0.192,0.646C8.296,8.573,8.532,8.63,8.873,8.63h0.604c0.333,0,0.565-0.061,0.698-0.187c0.133-0.123,0.198-0.356,0.198-0.694v-0.15c0-0.241-0.102-0.426-0.302-0.554c-0.2-0.128-0.45-0.206-0.75-0.23C9.022,6.79,8.701,6.742,8.354,6.672C8.009,6.601,7.686,6.51,7.387,6.397C7.088,6.286,6.838,6.066,6.638,5.739C6.437,5.411,6.336,4.99,6.336,4.476V4.041c0-0.647,0.188-1.149,0.563-1.505C7.275,2.178,7.796,2,8.463,2h1.281c0.677,0,1.2,0.178,1.577,0.535c0.375,0.356,0.563,0.858,0.563,1.505v0.236c0,0.174-0.09,0.262-0.268,0.262h-1.092c-0.178,0-0.268-0.087-0.268-0.262V4.202c0-0.324-0.065-0.543-0.192-0.66C9.937,3.427,9.702,3.369,9.361,3.369h-0.5c-0.351,0-0.589,0.064-0.712,0.193S7.963,3.941,7.963,4.314v0.237c0,0.39,0.351,0.613,1.052,0.671c0.726,0.058,1.37,0.199,1.936,0.423c0.298,0.124,0.548,0.346,0.75,0.666C11.9,6.63,12,7.038,12,7.536V7.96c0,0.646-0.187,1.148-0.563,1.505C11.062,9.821,10.54,10,9.873,10H8.477c-0.666,0-1.188-0.179-1.564-0.535S6.349,8.605,6.349,7.96z"/>
	</symbol>
	<symbol id="teams-shield" viewBox="0 0 24 24">
		<title>Teams Shield Icon</title>
		<path d="M16.262,2.019c0.661,2.486,2.487,4.411,4.512,5.364c-0.923,5.411-3.218,11.682-8.761,14.422C6.45,19.059,4.15,12.79,3.227,7.382c2.024-0.953,3.85-2.877,4.511-5.364h4.276H16.262M18.046,0C18.018,0,18,0.001,18,0.005c0,0.004,0,0.009,0,0.014h0.447C18.308,0.012,18.129,0,18.046,0L18.046,0zM5.956,0C5.876,0,5.704,0.012,5.57,0.019H6c0-0.004,0-0.009,0-0.014C6,0.001,5.983,0,5.956,0L5.956,0zM18.638,0.019h-0.19c0.058,0.003,0.109,0.005,0.145,0.005C18.62,0.023,18.638,0.022,18.638,0.019L18.638,0.019z M18,0.019h-5.985h-0.002h-0.002H6c-0.007,3.151-2.54,5.62-5,5.983c0.762,5.976,3.244,14.783,11.011,17.996V24c0.001,0,0.001-0.001,0.002-0.001S12.014,24,12.015,24v-0.002C19.779,20.785,22.238,11.978,23,6.002C20.541,5.638,18.008,3.169,18,0.019L18,0.019z M5.57,0.019H5.387c0,0.003,0.017,0.005,0.044,0.005C5.464,0.023,5.514,0.021,5.57,0.019L5.57,0.019z"/>
		<polygon points="15,6 9,10.999 10.995,12.323 9,17 15,11.999 13.005,10.675"/>
	</symbol>
	<symbol id="match-lineups" viewBox="0 0 12 12">
		<title>Match Lineups Icon</title>
		<path d="M6,2c0.551,0,1,0.449,1,1S6.551,4,6,4S5,3.551,5,3S5.449,2,6,2M6,0C4.343,0,3,1.343,3,3s1.343,3,3,3c1.656,0,3-1.343,3-3S7.656,0,6,0L6,0z"/>
		<path d="M4,10h4c1.103,0,2,0.896,2,2h2c0-2.209-1.791-4-4-4H4c-2.209,0-4,1.791-4,4h2C2,10.896,2.897,10,4,10z"/>
	</symbol>
	<symbol id="match-achievements" viewBox="0 0 12 12">
		<title>Player Achievements Icon</title>
		<path d="M8,2v2c0,1.103-0.897,2-2,2C4.897,6,4,5.103,4,4V2H8 M10,0H2v4c0,2.209,1.791,4,4,4s4-1.791,4-4V0L10,0z"/>
		<path d="M7,7H5v3H3v2h6v-2H7V7z M10,2v2h2V2H10z M0,4h2V2H0V4z"/>
	</symbol>
	<symbol id="match-team-overview" viewBox="0 0 12 12">
		<title>Team Overview Icon</title>
		<path d="M7.714,2.009c0.439,0.951,1.172,1.72,2.02,2.243c-0.513,2.14-1.571,4.404-3.727,5.556C3.842,8.655,2.781,6.391,2.267,4.251c0.848-0.523,1.58-1.292,2.02-2.242h1.721H7.714 M9.298,0C9.282,0,9.273,0.001,9.273,0.002c0,0.002,0,0.004,0,0.007h0.243C9.44,0.006,9.344,0,9.298,0L9.298,0z M2.703,0C2.66,0,2.566,0.006,2.493,0.009h0.234c0-0.002,0-0.004,0-0.007C2.727,0.001,2.718,0,2.703,0L2.703,0z M9.62,0.009H9.517c0.031,0.001,0.06,0.002,0.079,0.002C9.611,0.012,9.62,0.011,9.62,0.009L9.62,0.009z M9.273,0.009H6.008H6.007H6.006H2.727C2.723,1.585,1.342,2.819,0,3.001c0.416,2.988,1.77,7.392,6.006,8.998V12c0,0,0,0,0.001,0s0,0,0.001,0v-0.001c4.235-1.606,5.577-6.01,5.992-8.998C10.659,2.819,9.277,1.585,9.273,0.009L9.273,0.009z M2.493,0.009h-0.1c0,0.001,0.009,0.002,0.024,0.002C2.435,0.012,2.462,0.011,2.493,0.009L2.493,0.009z"/>
	</symbol> 
	<symbol id="match-hardware" viewBox="0 0 12 12">
		<title>Player Hardware Icon</title>
		<path d="M10,8H7v2h2v2H3v-2h2V8H2C0.896,8,0,7.104,0,6V2c0-1.104,0.896-2,2-2h8c1.104,0,2,0.896,2,2v4C12,7.104,11.104,8,10,8z M10,2H2v4h8V2z"/>
	</symbol>
	<symbol id="match-replay" viewBox="0 0 12 12">
		<title>Match Replay Icon</title>
		<path d="M2.647,2c0.163,0,0.351,0.049,0.555,0.153l6.251,3.2c0.703,0.356,0.739,0.938,0.035,1.295L3.203,9.847C2.998,9.951,2.81,10,2.647,10C2.251,10,2,9.71,2,9.211V2.79C2,2.29,2.251,2,2.647,2 M2.647,0C1.138,0,0,1.199,0,2.79v6.421C0,10.801,1.138,12,2.647,12c0.486,0,0.978-0.125,1.461-0.37l6.288-3.2C11.398,7.923,12,7.02,12,6.018c0-1.013-0.614-1.929-1.643-2.449L4.114,0.373C3.625,0.124,3.133,0,2.647,0L2.647,0z"/>
	</symbol>
	<symbol id="medal" viewBox="0 0 24 24">
		<title>Medal Icon</title>
		<path d="M12,6c-4.971,0-9,4.029-9,9s4.029,9,9,9s9-4.029,9-9S16.971,6,12,6z M12,22c-3.866,0-7-3.134-7-7s3.134-7,7-7s7,3.134,7,7S15.866,22,12,22z M12,10c-2.761,0-5,2.238-5,5s2.239,5,5,5c2.762,0,5-2.238,5-5S14.762,10,12,10z M12,18c-1.657,0-3-1.343-3-3c0-1.656,1.343-3,3-3c1.656,0,3,1.344,3,3C15,16.657,13.656,18,12,18z"/>
		<path d="M4.824,6.674L2.954,2h5.691l0.913,2.281c0.663-0.15,1.348-0.237,2.05-0.262L10,0H0l3.31,8.273C3.761,7.691,4.267,7.155,4.824,6.674z"/>
		<path d="M14.441,4.281L15.354,2h5.692l-1.87,4.674c0.558,0.481,1.063,1.017,1.515,1.599L24,0H14l-1.608,4.02C13.094,4.044,13.779,4.131,14.441,4.281z"/>
	</symbol>
	<symbol id="deaths" viewBox="0 0 24 24">
		<title>Deaths Icon</title>
		<path d="M11.635,2c0.146,0,0.228,0.005,0.228,0.005h0.178c0,0,0.003,0,0.011,0c0.332,0,8.375,0.09,8.375,8.886c0,0,1.289,1.295,0,2.223v1.109c0,0,1.289,1.111-0.646,2.223c-1.935,1.11-3.87,1.435-3.87,3.332c0,0-1.022,2.222-3.871,2.222c-2.875,0-3.906-2.22-3.906-2.22c0-1.896-1.953-2.221-3.905-3.329c-1.953-1.11-0.651-2.221-0.651-2.221v-1.109c-1.302-0.925,0-2.22,0-2.22C3.579,2.42,10.303,2,11.635,2 M11.635,0C7.13,0,1.892,2.692,1.592,10.215c-0.33,0.524-0.655,1.283-0.582,2.174c0.041,0.491,0.199,0.957,0.461,1.373c-0.228,0.466-0.363,1.021-0.305,1.627c0.074,0.782,0.495,1.902,2.074,2.801c0.534,0.304,1.053,0.548,1.51,0.764c0.488,0.23,1.221,0.576,1.384,0.773c-0.001,0.006,0,0.025,0,0.054v0.441l0.186,0.401C6.903,21.877,8.764,24,12.041,24c3.259,0,5.109-2.128,5.687-3.386l0.184-0.397v-0.438c0-0.055,0.006-0.078,0.006-0.078c0.122-0.163,0.867-0.519,1.36-0.753c0.454-0.217,0.97-0.462,1.499-0.767c1.566-0.899,1.983-2.017,2.058-2.796c0.059-0.608-0.076-1.164-0.304-1.631c0.261-0.417,0.419-0.882,0.459-1.373c0.073-0.89-0.25-1.649-0.577-2.173c-0.35-8.049-6.869-10.203-10.361-10.203h-0.141C11.851,0.003,11.758,0,11.635,0L11.635,0z"/>
		<path d="M14,12l2,1h2V9L14,12z M6,13h2l2-1L6,9V13z M11,18h2v-3h-2V18z"/>
	</symbol>
	<symbol id="assists" viewBox="0 0 24 24">
		<title>Assists Icon</title>
		<path d="M21,4c-0.395,0-0.771,0.081-1.115,0.22C19.539,2.944,18.385,2,17,2c-0.44,0-0.856,0.101-1.233,0.271C15.268,0.947,14,0,12.5,0c-0.981,0-1.865,0.406-2.5,1.055C9.365,0.406,8.481,0,7.5,0C5.566,0,4,1.567,4,3.5V6c-2.209,0-4,1.791-4,4v2c0,6.627,5.373,12,12,12c6.627,0,12-5.373,12-12v-2V8V7C24,5.343,22.656,4,21,4z M22,10v2c0,5.514-4.486,10-10,10C6.486,22,2,17.514,2,12v-2c0-1.103,0.897-2,2-2v3v1h2v-1V3.5C6,2.673,6.673,2,7.5,2S9,2.673,9,3.5V8h2V3.5C11,2.673,11.673,2,12.5,2S14,2.673,14,3.5V5v3h2V5c0-0.551,0.448-1,1-1s1,0.449,1,1v2v1v2h2V8V7c0-0.551,0.448-1,1-1s1,0.449,1,1v1V10z"/>
	</symbol>
	<symbol id="kills" viewBox="0 0 24 24">
		<title>Kills Icon</title>
		<path d="M4.587,15.001H2.459C3.436,18.107,5.893,20.55,9,21.527v-2.134C7.001,18.58,5.397,17.001,4.587,15.001z M2.459,9h2.128C5.397,7,7.001,5.42,9,4.606V2.474C5.893,3.452,3.435,5.892,2.459,9z M19.413,9h2.128C20.564,5.893,18.107,3.452,15,2.474v2.133C16.998,5.42,18.603,7,19.413,9z M15,19.394v2.134c3.106-0.978,5.564-3.42,6.541-6.526h-2.128C18.603,17.001,16.998,18.58,15,19.394z M11,8h2V0h-2V8z M11,24h2v-7.999h-2V24z M16,11.001v2h8v-2H16z M8,11.001H0v2h8V11.001z M11,13.001h2v-2h-2V13.001z"/>
	</symbol>
	<symbol id="damage" viewBox="0 0 24 24">
		<title>Damage Icon</title>
		<path d="M20.528,9.843c-0.384-0.591-0.64-1.178-0.761-1.747l-0.986-4.621l-2.617,3.9c-0.271,0.403-0.483,0.852-0.633,1.335c-0.006,0.015-0.01,0.03-0.015,0.046c-0.362-0.891-0.792-2.699-0.52-6.026L15,0l-3,1c-1.839,0.992-4.08,3.799-4.762,7.191c-0.246,1.214-0.242,2.416-0.133,3.468c-0.009-0.013-0.018-0.025-0.027-0.038c-0.094-0.139-0.248-0.396-0.442-0.838l-1.85-4.198l-1.808,4.218C2.329,12.317,2,13.709,2,14.938c0,3.58,1.942,6.49,5,7.979v-2.351c-1.867-1.247-3-3.242-3-5.628c0-1.146,0.411-2.386,0.811-3.317c0.179,0.407,0.392,0.825,0.629,1.171c1.325,1.932,3.373,2.425,3.463,2.445c0.056,0.014,0.113,0.02,0.169,0.02c0.208,0,0.407-0.083,0.547-0.229c0.178-0.189,0.228-0.452,0.132-0.686c-0.012-0.028-1.13-2.883-0.555-5.739c0.591-2.935,2.609-5.396,3.808-6.042c-0.121,1.474-0.319,5.053,0.865,7.42c0.57,1.141,1.864,2.835,1.919,2.908c0.139,0.182,0.362,0.284,0.593,0.284c0.081,0,0.162-0.013,0.242-0.039c0.308-0.101,0.506-0.377,0.484-0.679c-0.001-0.018-0.112-1.694,0.33-3.127c0.099-0.317,0.231-0.581,0.376-0.796c0.143,0.667,0.441,1.505,1.047,2.438c0.905,1.398,1.14,2.212,1.14,3.968c0,2.351-1.139,4.324-3,5.573v2.322c3.033-1.525,5-4.421,5-7.896C22,12.775,21.656,11.584,20.528,9.843z M12,17.874c-1.657,0-3,1.372-3,3.063C9,22.629,10.342,24,12,24c1.658,0,3-1.371,3-3.063C15,19.246,13.657,17.874,12,17.874z M13,21.958h-2v-2.042h2V21.958z"/>
	</symbol>
	<symbol id="healing" viewBox="0 0 24 24">
		<title>Healing Icon</title>
		<path d="M12,24C5.373,24,0,18.628,0,12S5.373,0,12,0c6.627,0,12,5.372,12,12S18.627,24,12,24zM12,2C6.478,2,2,6.478,2,12.001C2,17.523,6.478,22,12,22s10-4.477,10-9.999C22,6.478,17.523,2,12,2zM17.898,11C17.477,8.491,15.506,6.515,13,6.091V4.094c3.613,0.455,6.479,3.292,6.932,6.906H17.898z M13,11h3v2h-3v3h-2v-3H8v-2h3V8h2V11zM6.101,11H4.069C4.521,7.386,7.387,4.548,11,4.094v1.997C8.494,6.515,6.524,8.491,6.101,11zM11,17.91v1.996c-3.613-0.454-6.479-3.291-6.931-6.905h2.032C6.524,15.509,8.494,17.486,11,17.91z M17.898,13.001h2.033c-0.453,3.614-3.318,6.451-6.932,6.905V17.91C15.506,17.486,17.477,15.509,17.898,13.001z"/>
	</symbol>
	<symbol id="skull" viewBox="0 0 22 22">
		<title>Skull Icon</title>
		<path d="M19.426,13.453v-1.221c1.291-1.018,0-2.443,0-2.443c0-10.727-8.385-9.767-8.385-9.767V0.04c0,0-8.461-0.958-8.461,9.76c0,0-1.302,1.423,0,2.44v1.22c0,0-1.302,1.22,0.651,2.439c1.952,1.22,3.905,1.576,3.905,3.66c0,0,1.03,2.44,3.905,2.44c2.849,0,3.871-2.442,3.871-2.442c0-2.086,1.935-2.442,3.87-3.663S19.426,13.453,19.426,13.453z M6.547,13.453c-3.123,0-2.563-1.87-2.563-3.053s1.122-2.441,3.204-2.441s2.563,1.22,2.563,1.22S9.67,13.453,6.547,13.453z M11.041,17.115c-2.742-0.077-1.936-1.831-1.29-2.441c0.645-0.611,1.29-1.832,1.29-1.832s0.645,1.221,1.291,1.832C12.977,15.284,13.781,17.038,11.041,17.115z M15.533,13.453c-3.122,0-3.202-4.274-3.202-4.274s0.479-1.22,2.562-1.22s3.204,1.258,3.204,2.441S18.656,13.453,15.533,13.453z"/>
	</symbol>
	<symbol id="explosion" viewBox="0 0 30 30">
		<title>Explosion Icon</title>
		<path d="M15.669,7.531l0.946,4.201l3.924-1.761l-0.946,3.388l2.435,0.542l-2.3,2.845l3.654,1.221l-5.008,1.627l1.083,3.389l-2.977-2.033l-2.03,2.168l-2.165-2.439l-3.924,0.949l1.218-4.066l-3.924-1.355l3.924-2.439l-3.112-2.846l4.194,0.678l0.271-3.931l2.165,2.982L15.669,7.531 M9.322,2l-0.38,5.517l-0.116,1.68L6.773,8.865L0,7.771l5.15,4.709l1.053,0.963L4.632,14.42l-3.743,2.328l4.138,1.43l2.063,0.713l-0.635,2.117l-1.038,3.465l3.396-0.822l2.793-0.676l1.377,1.553l1.427,1.609l1.469-1.568l0.882-0.941l1.601,1.092L23.164,28l-1.813-5.674l-0.44-1.381l3.065-0.994L30,17.992l-6.009-2.004l-0.82-0.274l0.384-0.474l2.14-2.646l-3.248-0.724l-0.338-0.075l0.349-1.244l1.182-4.235l-3.89,1.747l-1.735,0.779l-0.401-1.785l-0.897-3.984l-2.561,3.104l-0.957,1.161l-0.671-0.926L9.322,2L9.322,2z"/>
		<path d="M12,15l1-3l2,2l4-1.001L18.001,16v4L15,18l-3,2l1-3l-4-1L12,15z"/>
	</symbol>
	<symbol id="pliers" viewBox="0 0 22 22">
		<title>Pliers Icon</title>
		<path d="M13.949,14.052c-0.308,1.376-1.928,3.848-3.897,5.087s-3.207,2.09-3.816,2.442c-0.611,0.353-1.585,0.983-2.425-0.657c0,0-0.272-0.07,0.642-0.642c0.914-0.57,4.107-3.073,5.011-3.976c0.903-0.902,1.899-2.792,2.672-4.546c0.771-1.753,0.535-2.03,2.526-3.89c0,0,0.051,0.034,0.135,0.092c0.154-0.001,0.357-0.242,0.357-0.242l-0.343-0.341l-0.428-0.428l-0.08,0.08c-0.229,0.229-0.069,0.411-0.069,0.411l-0.081-0.05C14.184,7.437,14.2,7.46,14.2,7.46c-1.867,1.994-2.146,1.754-3.91,2.525c-1.765,0.77-3.666,1.763-4.571,2.666c-0.905,0.905-3.417,4.102-3.99,5.017c-0.572,0.914-0.644,0.643-0.644,0.643c-1.653-0.847-1.021-1.824-0.667-2.435c0.354-0.611,1.206-1.849,2.448-3.821c1.243-1.972,3.727-3.591,5.111-3.896C9.362,7.854,9.95,6.793,10.15,5.99c0.202-0.804,0.512-0.854,0.897-0.551c0.386,0.304,0.838,0.153,1.254,0.127c0.415-0.027,0.595-0.25,0.753,0.109c0.021,0.047,0.056,0.112,0.103,0.191c0.253,0.111,0.601-0.342,0.601-0.342l1.365-1.362c0.008-0.131,0.069-0.412,0.069-0.412l1.365-1.363c0.772-0.648,4.002-2.211,4.234-2.346s0.418,0.096,0.418,0.096l0.085,0.086l-1.204,1.203c-0.192-0.192-0.413,0.069-0.413,0.069s-0.653,0.652-0.882,0.881c-0.23,0.23,0.016,0.498,0.016,0.498l-1.194,1.534l1.536-1.192c0.233,0.232,0.584,0.102,0.584,0.102s0.585-0.584,0.883-0.882c0.299-0.298-0.016-0.496-0.016-0.496l1.205-1.202l0.085,0.085c0.146,0.147,0.097,0.417,0.097,0.417s-0.529,1.212-1.167,2.362s-1.098,1.951-1.098,1.951s-1.297,1.293-1.365,1.362c-0.069,0.069-0.498-0.016-0.498-0.016s-1.549,1.545-1.687,1.683c-0.076,0.076-0.039,0.194,0.01,0.286c0.105,0.062,0.193,0.11,0.253,0.137c0.356,0.155,0.135,0.334,0.106,0.747c-0.027,0.413-0.18,0.863,0.123,1.246c0.303,0.381,0.251,0.689-0.552,0.891C15.315,12.09,14.257,12.676,13.949,14.052z"/>
	</symbol>
	<symbol id="stopwatch" viewBox="0 0 22 22">
		<title>Stopwatch Icon</title>
		<path d="M8,2h1v1.998h4V2h1c0.552,0,1-0.448,1-1c0-0.553-0.448-1-1-1H8C7.447,0,7,0.447,7,1C7,1.552,7.447,2,8,2z M11,8c-0.553,0-1,0.447-1,1v4c0,0.552,0.447,1,1,1c0.552,0,1-0.448,1-1V9C12,8.447,11.552,8,11,8z M18.098,7.479c0.393,0.308,0.954,0.297,1.316-0.065c0.391-0.391,0.391-1.023,0-1.415L18,4.585c-0.391-0.39-1.024-0.39-1.414,0c-0.362,0.362-0.373,0.926-0.064,1.318C14.996,4.714,13.084,3.999,11,3.999c-4.971,0-9,4.03-9,9.001s4.029,9,9,9s9-4.029,9-9C20,10.917,19.285,9.004,18.098,7.479z M11,20c-3.866,0-7-3.135-7-7c0-3.866,3.134-7.001,7-7.001S18,9.134,18,13C18,16.865,14.866,20,11,20z"/>
	</symbol>
	<symbol id="towers-destroyed" viewBox="0 0 20 20">
		<title>Towers Destroyed Icon</title>
		<path d="M14.56,10h-1.581v2h0.777h1.222v2h-1.442l-0.557,5H6.983l-0.555-5H4.984v-2h1.221h0.777v-2H5.441L2,6.988h3.983V5l3.998-4l3.997,4v1.988h4.023L14.56,10z M10.98,5H8.981v2h1.999V5z"/>
	</symbol>
	<symbol id="inhibitors-destroyed" viewBox="0 0 20 20">
		<title>Inhibitors Destroyed Icon</title>
		<path d="M10,2c-4.418,0-8,3.582-8,8s3.582,8,8,8c4.418,0,8-3.582,8-8S14.418,2,10,2z M10,15c-2.761,0-5-2.238-5-5s2.239-5,5-5c2.762,0,5,2.238,5,5S12.762,15,10,15z M7.016,10L10,12.983L12.984,10L10,7.017L7.016,10z"/>
	</symbol>
	<symbol id="baron-kills" viewBox="0 0 20 20">
		<title>Baron Kills Icon</title>
		<path d="M9,12v2h2v-2H9z M11,1l3,5v3h-2l-2-3L8,9H6V6l3-5L2,6l5,13h2v-2h2v2h2l5-13L11,1z M13,14h-2v2H9v-2H7v-2h2v-2h2v2h2V14z"/>
	</symbol>
	<symbol id="dragon-kills" viewBox="0 0 20 20">
		<title>Dragon Kills Icon</title>
		<path d="M16,6V4l-4,2l-2-6L8,6L4,4v2H0c0,0,4,3.554,4,7v2c0,0,4,0.88,4,4c0,0,0.497,1,2,1c1.502,0,2-1,2-1c0-3.12,4-4,4-4v-2c0-3.446,4-7,4-7H16z M8,14l-2-1l-1-3l3,1V14z M14,13l-2,1v-3l3-1L14,13z"/>
	</symbol>
	<symbol id="rift-heralds-killed" viewBox="0 0 20 20">
		<title>Rift Heralds Killed Icon</title>
		<path d="M15.654,12.946c-0.812,2.356-3.022,4.061-5.651,4.061c-2.63,0-4.84-1.703-5.652-4.06C2.474,12.661,1,11,1,11C1,4.047,6,1,6,1v5.548c1.063-0.96,2.458-1.561,4.003-1.561c1.542,0,2.934,0.599,3.997,1.556V1c0,0,5,3.047,5,10C19,11,17.529,12.658,15.654,12.946z M10.003,7.719c-1.507,0-2.729,1.223-2.729,2.731s1.222,3.825,2.729,3.825s2.728-2.316,2.728-3.825S11.51,7.719,10.003,7.719z M9,10h2v2H9V10zM5.992,19C2.476,18.584,1,16,1,16c0.808-1.388,1-3,1-3C2.333,15.867,5.992,19,5.992,19z M18,13c0,0,0.192,1.612,1,3c0,0-1.476,2.584-4.992,3C14.008,19,17.667,15.867,18,13z"/>
	</symbol>
	<symbol id="offense" viewBox="0 0 14 14">
		<title>Offense Icon</title>
		<path d="M0,14h4v-2H0V14z M5,14h4v-2H5V14z M10,14h4v-2h-4V14z M2,0C0.528,0,0,4,0,4v7h4V4C4,4,3.527,0,2,0z M7,0C5.528,0,5,4,5,4v7h4V4C9,4,8.527,0,7,0z M12,0c-1.472,0-2,4-2,4v7h4V4C14,4,13.527,0,12,0z"/>
	</symbol>
	<symbol id="tank" viewBox="0 0 14 14">
		<title>Tank Icon</title>
		<path d="M13,7.435v0.159h-0.009c-0.013,0.146-0.043,0.329-0.114,0.475c-0.138,0.281-1.546,2.224-2.326,3.085C9.771,12.013,7.658,14,7,14s-2.771-1.987-3.552-2.847C2.668,10.292,1.26,8.35,1.122,8.068c-0.071-0.146-0.101-0.33-0.113-0.475H1V7.435C0.999,7.387,1,7.356,1,7.356V4.864V2.136C1,1.413,1.175,0.206,7,0c5.824,0.206,6,1.413,6,2.135v2.729v2.492C13,7.356,13.001,7.387,13,7.435z"/>
	</symbol>
	<symbol id="support" viewBox="0 0 14 14">
		<title>Support Icon</title>
		<path d="M13,9H9v4c0,0.553-0.447,1-1,1H6c-0.552,0-1-0.447-1-1V9H1
		C0.448,9,0,8.552,0,8V6c0-0.553,0.448-1,1-1h4V1c0-0.553,0.448-1,1-1h2c0.553,0,1,0.447,1,1v4h4c0.553,0,1,0.447,1,1v2
		C14,8.552,13.553,9,13,9z"/>
	</symbol>
	<symbol id="defense" viewBox="0 0 14 14">
		<title>Defense Icon</title>
		<path d="M13,14H1c-0.553,0-1-0.448-1-1v-1c0-0.553,0.447-1,1-1h12
		c0.552,0,1,0.447,1,1v1C14,13.552,13.552,14,13,14z M3.029,7.007h7.977c0,0-0.388,3.989,1.782,3.989c-1.431,0-10.142,0-11.572,0
		C3.386,10.996,3.029,7.007,3.029,7.007z M11,5H8H6H3C2.447,5,2,4.552,2,4V2V1c0-0.553,0.447-1,1-1c0.552,0,1,0.447,1,1h1
		c0-0.553,0.447-1,1-1h2c0.552,0,1,0.447,1,1h1c0-0.553,0.447-1,1-1c0.552,0,1,0.447,1,1v1v2C12,4.552,11.552,5,11,5z"/>
	</symbol>
	<symbol id="achievements-trophy" viewBox="0 0 44 50">
		<title>Achievements Trophy Icon</title>
		<path d="M29,38v10H15V38H29 M31,36H13v14h18V36L31,36z"/>
		<path d="M25,32v1.997h1.993L26.986,36h-9.983l-0.002-2.003H19V32H25 M27,30H17v1.997h-2l0.004,4.667V38h13.98v-1.336L29,31.997h-2V30L27,30z"/>
		<path d="M21,25h2v6.033h-2V25z"/>
		<path d="M32,2v11.722C32,19.389,27.514,24,22,24c-5.514,0-10-4.611-10-10.278V2H32 M34,0H10v13.722C10,20.504,15.373,26,22,26c6.628,0,12-5.496,12-12.278V0L34,0z"/>
		<path d="M43.974,2.054L34.052,2H32v17.984C45.12,18.491,43.974,2.054,43.974,2.054z M38.222,14.922c-1.594,1.714-3.628,2.679-6.184,3.013L32.05,4h1.888H42C41.889,6.661,41.231,11.687,38.222,14.922z"/>
		<path d="M12,19.984V2H9.947L0.026,2.054C0.026,2.054-1,18.491,12,19.984z M1.999,4h8.063h1.888l0.012,13.935c-2.556-0.333-4.59-1.299-6.184-3.013C2.768,11.687,2.11,6.661,1.999,4z"/>
	</symbol>
	<symbol id="award-medal" viewBox="0 0 44 50">
		<title>Award Medal Icon</title>
		<path d="M29.051,23.919L44,0h-6h-2h-6l-8,12.8L14,0H8H6H0l14.949,23.919C10.797,26.348,8,30.842,8,36c0,7.732,6.268,14,14,14s14-6.268,14-14C36,30.842,33.203,26.348,29.051,23.919z M40.392,2l-12.5,20H24.25l12.5-20H40.392zM31.055,2h3.695l-12.5,20h-3.642L31.055,2z M12.946,2l7.885,12.671L19,17.6L9.25,2H12.946z M7.25,2L18,19.2L16.25,22h-0.142L3.608,2H7.25z M22,48c-6.617,0-12-5.383-12-12s5.383-12,12-12c6.617,0,12,5.383,12,12S28.617,48,22,48z"/>
		<path d="M22.001,27C17.029,27,13,31.029,13,36s4.029,9,9.001,9c4.97,0,9-4.029,9-9S26.971,27,22.001,27z M22.001,43C18.141,43,15,39.859,15,36s3.141-7,7.001-7c3.859,0,7,3.141,7,7S25.86,43,22.001,43z"/>
	</symbol>
	<symbol id="gamer-mouse" viewBox="0 0 44 50">
		<title>Gamer Mouse Icon</title>
		<path d="M27.717,3.038l9.175,6.881l-2.569,24.293C33.184,41.89,24.904,48,22,48c-2.875,0-11.124-6.113-12.323-13.795L7.108,9.919l9.174-6.881l3.928,7.856L22,14.472l1.789-3.578L27.717,3.038 M27,0l-5,10L17,0L5,9l2.693,25.463C9,43.031,17.944,50,22,50c4.055,0,13.063-6.969,14.307-15.537L39,9L27,0L27,0z"/>
		<path d="M37.819,17h-0.998l-0.362,4.475c0.734,3.363,2.211,8.214,5.137,12.868c-1.636,2.649-6.609,9.806-12.968,10.58L26,47h1.518C37.203,47,44,34.285,44,34.285C38.518,26.25,37.819,17,37.819,17z"/>
		<path d="M6.182,17H7.18l0.361,4.475c-0.734,3.363-2.21,8.214-5.137,12.868c1.636,2.649,6.611,9.806,12.969,10.58L18,47h-1.516C6.796,47,0,34.285,0,34.285C5.483,26.25,6.182,17,6.182,17z"/>
		<path d="M23,24c0,0.552-0.448,1-1,1l0,0c-0.552,0-1-0.448-1-1v-4c0-0.552,0.448-1,1-1l0,0c0.552,0,1,0.448,1,1V24z"/>
	</symbol>
	<symbol id="gaming-chair" viewBox="0 0 44 50">
		<title>Gaming Chair Icon</title>
		<path d="M38.224,44c1.011,0.188,3.415,1.391,3.776,2.086c-0.008,0.852-0.13,1.509-0.249,1.914H2.249C2.129,47.594,2.008,46.938,2,46.086c0.36-0.695,2.765-1.896,3.775-2.086H38.224 M38.322,42H5.677C4.894,42,0,43.79,0,46c0,2.209,0.635,4,1.419,4H42.58c0.784,0,1.42-1.791,1.42-4C44,43.79,39.106,42,38.322,42L38.322,42z"/>
		<path d="M21.596,2.002l0.05,0h0.026h0.026l0.011,0l0.275,0.005c4.428,0.078,5.907,0.361,6.397,0.525c0.207,0.382,0.258,1.218,0.289,1.742c0.022,0.363,0.043,0.706,0.097,1.041c0.008,0.052,0.844,5.223,2.009,6.583c0.726,0.846,2.837,2.794,3.705,3.527c0.335,0.284,0.712,0.531,1.111,0.792c0.419,0.275,1.291,0.847,1.407,1.101c0.153,0.946-0.366,2.87-0.87,4.73l-0.116,0.431c-0.768,2.854-1.147,4.722-0.023,9.939c0.171,0.795,0.397,1.672,0.638,2.6c0.555,2.147,1.216,4.707,1.349,6.982H6.024c0.131-2.273,0.79-4.831,1.341-6.977c0.24-0.931,0.466-1.81,0.637-2.607c1.104-5.155,0.717-7.108-0.006-9.867l-0.015-0.058l-0.192-0.728c-0.463-1.747-0.943-3.554-0.809-4.401c0.129-0.295,1.004-0.866,1.425-1.14c0.403-0.263,0.783-0.511,1.121-0.795c0.868-0.732,2.984-2.679,3.713-3.528c1.123-1.307,1.9-6.049,1.985-6.586c0.053-0.333,0.074-0.677,0.096-1.04c0.032-0.529,0.083-1.377,0.295-1.752c0.44-0.157,1.766-0.43,5.71-0.512L21.596,2.002 M22.019,0c0,0-0.132,0-0.349,0.003C21.43,0,21.284,0,21.284,0v0.01C19.537,0.046,15.129,0.145,14.278,1c-1.069,1.075-0.871,3.002-1.029,4s-0.934,4.904-1.527,5.596s-2.574,2.534-3.485,3.302c-0.911,0.769-2.982,1.642-3.22,3.101c-0.237,1.459,0.396,3.581,1.029,6c0.633,2.418,1.069,4.008,0,8.999C5.364,35.18,3.666,40.08,4.058,44h35.884c0.391-3.92-1.313-8.822-1.998-12.003c-1.073-4.983-0.661-6.542,0-8.999c0.65-2.414,1.266-4.541,1.029-6c-0.237-1.459-2.293-2.332-3.202-3.101c-0.908-0.768-2.885-2.61-3.478-3.302S30.9,5.998,30.741,5c-0.158-0.998,0.038-2.925-1.029-4c-0.859-0.866-5.812-0.959-7.693-0.992V0L22.019,0z"/>
		<polygon points="22,33 15,29 15,31 22,35 29,31 29,29 "/>
		<polygon points="22,27 15,23 15,25 22,29 29,25 29,23 "/>
		<polygon points="22,21 15,17 15,19 22,23 29,19 29,17 "/>
	</symbol>
	<symbol id="headset" viewBox="0 0 44 50">
		<title>Headset Icon</title>
		<path d="M10,22v16H6c-2.206,0-4-1.794-4-4v-8c0-2.205,1.794-4,4-4H10 M12,20H6c-3.313,0-6,2.687-6,6v8c0,3.313,2.687,6,6,6h6V20L12,20z"/>
		<path d="M14,19.5v20h-2v-20H14 M14,17.5h-2c-1.104,0-2,0.896-2,2v20c0,1.104,0.896,2,2,2h2c1.104,0,2-0.896,2-2v-20C16,18.396,15.104,17.5,14,17.5L14,17.5z"/>
		<path d="M38,22c2.205,0,4,1.794,4,4v8c0,2.206-1.795,4-4,4h-4V22H38 M38,20h-6v20h6c3.313,0,6-2.687,6-6v-8C44,22.687,41.313,20,38,20L38,20z"/>
		<path d="M32,19.5v20h-2v-20H32 M32,17.5h-2c-1.104,0-2,0.896-2,2v20c0,1.104,0.896,2,2,2h2c1.104,0,2-0.896,2-2v-20C34,18.396,33.104,17.5,32,17.5L32,17.5z"/>
		<path d="M22,46c0.551,0,1,0.448,1,1s-0.449,1-1,1s-1-0.448-1-1S21.449,46,22,46 M22,44c-1.656,0-3,1.343-3,3s1.344,3,3,3c1.657,0,3-1.343,3-3S23.657,44,22,44L22,44z"/>
		<path d="M37,42v4c0,1.103-0.897,2-2,2H22v2h13c2.209,0,4-1.791,4-4v-4H37z"/>
		<path d="M4,21.504V20c0-9.925,8.075-18,18-18c9.925,0,18,8.075,18,18v1.746l2,1.492V20C42,8.954,33.046,0,22,0S2,8.954,2,20v2.792L4,21.504z"/>
		<path d="M4,21.504V20C4,7.01,17.777,6,22,6s18,1.01,18,14v1.746l2,1.492V20C42,8.954,33.046,4,22,4S2,8.954,2,20v2.792L4,21.504z"/>
	</symbol>
	<symbol id="keyboard" viewBox="0 0 44 50">
		<title>Keyboard Icon</title>
		<path d="M33.416,16L42,22.22v21.93V48h-8.176l-3.446-3.42L29.793,44h-0.824H15.094h-0.811l-0.582,0.564L10.158,48H2v-3.669V22.22L10.584,16H33.416 M34.064,14H9.936L0,21.2v23.131V50h10.969l4.125-4h13.875L33,50h11v-5.85V21.2L34.064,14L34.064,14z"/>
		<path d="M21,32.004h-2v2h2V32.004zM17,32.004h-2v2h2V32.004zM11,34.004h2v-2h-2V34.004zM7,34.004h2v-2H7V34.004zM35,34.004h2v-2h-2V34.004zM31,34.004h2v-2h-2V34.004zM29,32.004h-2v2h2V32.004zM25,32.004h-2v2h2V32.004zM21,28.002h-2v2.001h2V28.002zM17,28.002h-2v2.001h2V28.002zM11,30.003h2v-2.001h-2V30.003zM7,30.003h2v-2.001H7V30.003zM35,30.003h2v-2.001h-2V30.003zM31,30.003h2v-2.001h-2V30.003zM29,28.002h-2v2.001h2V28.002zM25,28.002h-2v2.001h2V28.002zM21,24.001h-2v2.001h2V24.001zM17,24.001h-2v2.001h2V24.001zM11,26.002h2v-2.001h-2V26.002zM7,26.002h2v-2.001H7V26.002zM35,24.001v2.001h2v-2.001H35zM31,26.002h2v-2.001h-2V26.002zM29,24.001h-2v2.001h2V24.001zM25,24.001h-2v2.001h2V24.001zM21,20h-2v2h2V20zM17,20h-2v2h2V20zM29,20h-2v2h2V20zM25,20h-2v2h2V20zM14.997,40h14.007v-1.989H14.997V40z"/>
		<rect x="21" y="12" width="2" height="2"/>
		<path d="M33,0H12v2h21c1.654,0,3,1.346,3,3s-1.346,3-3,3h-3v2h3c2.762,0,5-2.239,5-5S35.762,0,33,0z"/>
		<path d="M31,8h-6c-2.209,0-4,1.791-4,4h2c0-1.103,0.897-2,2-2h6V8z"/>
	</symbol>
	<symbol id="mousepad-and-mouse" viewBox="0 0 44 50">
		<title>Mousepad and Mouse Icon</title>
		<path d="M13,30l1.434,12.515C15.031,46.656,17.821,50,22,50c4.178,0,7.031-3.188,7.565-7.485L31,30l-9-4.004L13,30zM27.581,42.268C27.147,45.75,24.957,48,22,48c-3.497,0-5.191-3.087-5.583-5.743L15.154,31.23L22,28.186l6.846,3.045L27.581,42.268z"/>
		<path d="M40,0H4C1.791,0,0,1.791,0,4v32c0,2.209,1.791,4,4,4h7v-2H4c-1.103,0-2-0.897-2-2V4c0-1.103,0.897-2,2-2h24.586L42,15.414V36c0,1.103-0.897,2-2,2h-7v2h7c2.209,0,4-1.791,4-4V4C44,1.791,42.209,0,40,0z M31.415,2H40c1.103,0,2,0.897,2,2v8.585L31.415,2z"/>
		<path d="M21,32.969v2.063C21,35.566,21.434,36,21.969,36h0.063C22.566,36,23,35.566,23,35.031v-2.063C23,32.434,22.566,32,22.031,32h-0.063C21.434,32,21,32.434,21,32.969z"/>
	</symbol>
	<symbol id="screen" viewBox="0 0 44 50">
		<title>Screen Icon</title>
		<path d="M41.161,36H2.839C1.271,36,0,34.711,0,33.121v-5.112V26V2.88C0,1.29,1.271,0,2.839,0h38.322C42.729,0,44,1.29,44,2.88V26v2.009v5.112C44,34.711,42.729,36,41.161,36z M42,2H2v24h40V2zM42,28.009H2v5.995h40V28.009z M23,32.004h-2v-2.001h2V32.004z"/>
		<path d="M32.471,46l1.89,2H9.64l1.889-2H32.471 M33.333,44H10.667L5,50h34L33.333,44L33.333,44z"/>
		<path d="M26.438,36l2.001,8H15.562l2-8H26.438 M27.999,34H16l-3,12h18L27.999,34L27.999,34z"/>
	</symbol>
	<symbol id="left-arrow" viewBox="0 0 8 14">
		<title>Left Arrow Icon</title>
		<path d="M0,7l6.68-7.009l1.336,1.402L2.672,7l5.344,5.605L6.68,14.008L0,7z"/>
	</symbol>
	<symbol id="right-arrow" viewBox="0 0 8 14">
		<title>Right Arrow Icon</title>
		<path d="M1.336,14.008L0,12.605L5.344,7L0,1.394l1.336-1.402L8.016,7L1.336,14.008z"/>
	</symbol>
	<symbol id="preloader-arcade" viewBox="0 0 140 186">
		<title>Preloader Arcade</title>
		<g>
			<circle cx="122" cy="20" r="2"/>
			<circle cx="122" cy="14" r="2"/>
			<circle cx="12" cy="20" r="2"/>
			<circle cx="128" cy="20" r="2"/>
			<circle cx="18" cy="14" r="2"/>
			<circle cx="12" cy="14" r="2"/>
			<circle cx="18" cy="20" r="2"/>
			<circle cx="128" cy="14" r="2"/>
			<path d="M130.071,44l7.267-10.247C138.886,33.201,140,31.737,140,30V4c0-2.209-1.791-4-4-4H4C1.791,0,0,1.791,0,4v26c0,1.737,1.114,3.201,2.662,3.753L9.929,44H10v82L0,149v7c0,1.737,1.114,3.201,2.662,3.754L9.929,170H10v16h4v-16h112v16h4v-16h0.071l7.267-10.246c1.548-0.553,2.662-2.017,2.662-3.754v-7l-10-23V44H130.071z M4,4h132v26H4V4z M7.741,34H132.26l-4.256,6H11.996L7.741,34z M128.004,166H126H14h-2.004l-4.255-6H132.26L128.004,166z M136,149.832V156H4v-6.168L12.623,130h5.893c1.02,2.879,3.463,5.083,6.485,5.77V146h4v-10.23c3.022-0.687,5.465-2.891,6.485-5.77h91.892L136,149.832z M22,127c0-2.762,2.238-5,5-5s5,2.238,5,5s-2.238,5-5,5S22,129.762,22,127z M126,126H35.941c-0.498-4.5-4.309-8-8.941-8s-8.443,3.5-8.941,8H14V44h112V126z"/>
			<path d="M85,146H75c-1.104,0-2,0.896-2,2s0.896,2,2,2h10c1.104,0,2-0.896,2-2S86.104,146,85,146z"/>
			<path d="M65,146H55c-1.104,0-2,0.896-2,2s0.896,2,2,2h10c1.104,0,2-0.896,2-2S66.104,146,65,146z"/>
			<path d="M125.959,138.338c0.025-0.111,0.041-0.224,0.041-0.338c0-1.657-2.687-3-6-3s-6,1.343-6,3c0,0.114,0.016,0.227,0.041,0.338C112.775,139.046,112,139.977,112,141c0,2.209,3.582,4,8,4s8-1.791,8-4C128,139.977,127.225,139.046,125.959,138.338z M120,143c-3.872,0-6-1.502-6-2c0-0.232,0.48-0.681,1.365-1.096c1.1,0.669,2.768,1.096,4.635,1.096s3.535-0.427,4.635-1.096C125.52,140.319,126,140.768,126,141C126,141.498,123.872,143,120,143z"/>
			<path d="M109.959,144.338c0.025-0.111,0.041-0.224,0.041-0.338c0-1.657-2.687-3-6-3s-6,1.343-6,3c0,0.114,0.016,0.227,0.041,0.338C96.775,145.046,96,145.977,96,147c0,2.209,3.582,4,8,4s8-1.791,8-4C112,145.977,111.225,145.046,109.959,144.338z M104,149c-3.872,0-6-1.502-6-2c0-0.232,0.48-0.681,1.365-1.096c1.1,0.669,2.768,1.096,4.635,1.096s3.535-0.427,4.635-1.096C109.52,146.319,110,146.768,110,147C110,147.498,107.872,149,104,149z"/>
			<path d="M42,118h56c11.046,0,20-8.954,20-20V72c0-11.046-8.954-20-20-20H42c-11.046,0-20,8.954-20,20v26C22,109.046,30.954,118,42,118z M26,72c0-8.822,7.178-16,16-16h56c8.822,0,16,7.178,16,16v26c0,8.822-7.178,16-16,16H42c-8.822,0-16-7.178-16-16V72z"/>
		</g>
	</symbol>
	<symbol id="twitch-word-logo" viewBox="0 0 176 60">
		<title>Twitch Word Logo</title>
		<path d="M171.98,20.688l-7.039-7.238h-13.077V4.137H140.8v42.415h11.064V24.825h9.051v21.727h11.065V20.688z M136.779,13.449h-17.098l-7.04,7.238v18.621l7.04,7.243h17.098V35.173h-13.076V24.825h13.076V13.449zM108.618,13.449h-9.05V4.137H88.503v35.172l7.041,7.243h13.074V35.173h-9.05V24.825h9.05V13.449L108.618,13.449z M84.48,4.137H73.419v5.175H84.48V4.137z M84.48,13.449H73.419v33.103H84.48V13.449zM69.395,13.449H58.332v21.724h-4.021V13.449H43.247v21.724h-4.022V13.449H28.16v33.103h34.197l7.037-7.243V13.449L69.395,13.449zM24.138,13.449h-9.051V4.137H4.023v35.172l7.04,7.243h13.074V35.173h-9.051V24.825h9.051V13.449L24.138,13.449z M176,18.619v31.034L160.915,60h-10.058v-5.174L143.818,60h-9.05v-5.174L129.741,60h-16.093l-5.03-5.174L107.612,60H93.534l-5.758-5.174L87.453,60H71.497l-0.564-5.174L66.612,60H42.24l-5.028-2.07V60H24.138L9.051,50.688L0,41.38V0h19.11l9.05,9.312h41.234V0h34.195v9.312h9.052v5.17l5.031-5.17h10.055L136.779,0h19.108v9.312h11.063L176,18.619z"/>
	</symbol>
	<symbol id="team-shield" viewBox="0 0 25 27">
		<title>Team Shield</title>
		<path d="M19.5834613,0.014 L6.19992241,0.014 L6.15702242,1.25094614 C6.02967795,3.69183902 4.25027511,5.75519287 1.83606622,6.23280737 L0.890114581,6.41994951 L1.01179314,7.37956283 C2.17933011,16.5872984 5.83078867,23.8684154 13.0058242,26.8470318 L13.4080253,27.014 L14.197987,26.6734771 C21.1153659,23.5753356 24.6238074,16.4133038 25.7685263,7.37947677 L25.8901146,6.4199338 L24.9442424,6.23280737 L24.7129173,6.18175451 C22.4203586,5.62276651 20.7585273,3.62198911 20.6239234,1.25877213 L20.6155869,1.02128227 L19.5834613,1.02787548 L19.5834613,0.014 Z M8.14235882,2.08524715 L18.6369175,2.08524715 C19.0555073,4.81155158 20.9470431,7.08888376 23.5407927,7.99234235 L23.5977565,8.01004964 L23.596062,8.02610633 C22.4426803,15.8290331 19.3502628,21.9176949 13.6986368,24.6239252 L13.4004765,24.761261 L13.1294554,24.6367819 C7.56995092,21.9895167 4.4640652,16.0721495 3.25476153,8.48381319 L3.1815199,8.01004964 L3.26023442,7.98502318 C5.82360868,7.08333946 7.70324363,4.83592338 8.13534049,2.13659158 L8.14235882,2.08524715 Z" fill-rule="nonzero"></path>
		<path d="M16,7 L10,12 L13.01,14 L16,7 Z M10,18 L16,13 L12.99,11 L10,18 Z"></path>
	</symbol>
	<symbol id="match-player-valharl" viewBox="0 0 16 16">
		<title>Valharl Icon</title>
		<path fill="white" d="M 4.00,2.40
           C 4.00,2.40 6.81,7.52 6.81,7.52
             6.85,7.70 4.00,12.69 4.00,12.69
             4.00,12.69 9.32,12.67 9.32,12.67
             9.32,12.67 11.84,8.10 11.84,8.10
             11.84,8.10 10.00,8.04 9.88,8.11
             9.71,8.20 8.38,10.94 8.18,11.03
             8.10,11.06 6.93,11.04 6.93,11.04
             6.93,11.04 8.82,7.74 8.81,7.52
             8.81,7.31 6.93,4.05 6.93,4.05
             6.93,4.05 8.18,4.05 8.18,4.05
             8.18,4.02 9.81,6.97 9.81,6.97
             9.80,6.99 11.84,6.99 11.84,6.99
             11.84,6.99 9.32,2.41 9.32,2.41
             9.32,2.41 4.00,2.40 4.00,2.40 Z
           M 8.18,4.03" />
	</symbol>
	<symbol id="match-player-Dangles" viewBox="0 0 800 800">
		<title>Dangles Icon</title>
		<g transform="matrix(1.45334,0,0,1.45334,-179.373,-171.797)">
			<text x="212.137px" y="572.735px" style="font-family:'Arial-BoldMT', 'Arial', sans-serif;font-weight:700;font-size:500.956px;fill:white;">D</text>
		</g>
	</symbol>
	<symbol id="match-player-sugarsnapx" viewBox="0 0 800 800">
		<title>SNAP Icon</title>
    <g transform="matrix(289.816,0,0,289.816,-1.18553,503.657)">
        <path d="M0.036,-0.233L0.177,-0.247C0.185,-0.199 0.202,-0.165 0.228,-0.143C0.254,-0.12 0.289,-0.109 0.333,-0.109C0.38,-0.109 0.415,-0.119 0.438,-0.139C0.462,-0.159 0.474,-0.182 0.474,-0.208C0.474,-0.225 0.469,-0.239 0.459,-0.251C0.449,-0.263 0.431,-0.273 0.407,-0.282C0.39,-0.288 0.351,-0.299 0.291,-0.313C0.214,-0.333 0.159,-0.356 0.128,-0.384C0.084,-0.424 0.062,-0.472 0.062,-0.528C0.062,-0.565 0.072,-0.599 0.093,-0.631C0.114,-0.662 0.143,-0.687 0.182,-0.703C0.221,-0.72 0.268,-0.728 0.323,-0.728C0.413,-0.728 0.481,-0.708 0.526,-0.669C0.572,-0.63 0.595,-0.577 0.598,-0.511L0.453,-0.505C0.447,-0.542 0.434,-0.568 0.413,-0.584C0.393,-0.6 0.362,-0.608 0.322,-0.608C0.28,-0.608 0.247,-0.6 0.223,-0.583C0.208,-0.571 0.2,-0.557 0.2,-0.538C0.2,-0.521 0.207,-0.507 0.222,-0.495C0.24,-0.479 0.284,-0.463 0.354,-0.447C0.425,-0.43 0.477,-0.413 0.51,-0.395C0.544,-0.378 0.571,-0.353 0.59,-0.323C0.609,-0.292 0.618,-0.254 0.618,-0.208C0.618,-0.167 0.607,-0.129 0.584,-0.093C0.561,-0.057 0.529,-0.031 0.487,-0.013C0.446,0.004 0.394,0.013 0.332,0.013C0.241,0.013 0.172,-0.008 0.123,-0.05C0.075,-0.092 0.046,-0.153 0.036,-0.233Z" style="fill:white;fill-rule:nonzero;"/>
    </g>
    <g transform="matrix(289.816,0,0,289.816,192.119,503.657)">
        <path d="M0.074,-0L0.074,-0.716L0.215,-0.716L0.508,-0.238L0.508,-0.716L0.642,-0.716L0.642,-0L0.497,-0L0.208,-0.467L0.208,-0L0.074,-0Z" style="fill:white;fill-rule:nonzero;"/>
    </g>
    <g transform="matrix(289.816,0,0,289.816,401.415,503.657)">
        <path d="M0.718,-0L0.561,-0L0.499,-0.163L0.212,-0.163L0.153,-0L0,-0L0.279,-0.716L0.432,-0.716L0.718,-0ZM0.452,-0.283L0.354,-0.549L0.257,-0.283L0.452,-0.283Z" style="fill:white;fill-rule:nonzero;"/>
    </g>
    <g transform="matrix(289.816,0,0,289.816,610.711,503.657)">
        <path d="M0.073,-0L0.073,-0.716L0.305,-0.716C0.393,-0.716 0.45,-0.712 0.477,-0.705C0.518,-0.694 0.552,-0.671 0.58,-0.635C0.607,-0.599 0.621,-0.553 0.621,-0.496C0.621,-0.452 0.613,-0.415 0.597,-0.385C0.581,-0.355 0.561,-0.331 0.536,-0.314C0.512,-0.297 0.487,-0.286 0.461,-0.28C0.427,-0.273 0.377,-0.27 0.312,-0.27L0.217,-0.27L0.217,-0L0.073,-0ZM0.217,-0.595L0.217,-0.392L0.296,-0.392C0.353,-0.392 0.391,-0.395 0.411,-0.403C0.43,-0.41 0.445,-0.422 0.456,-0.438C0.467,-0.454 0.472,-0.472 0.472,-0.494C0.472,-0.52 0.465,-0.541 0.449,-0.558C0.434,-0.575 0.415,-0.586 0.391,-0.59C0.374,-0.593 0.339,-0.595 0.287,-0.595L0.217,-0.595Z" style="fill:white;fill-rule:nonzero;"/>
    </g>
	</symbol>

	<symbol id="match-player-YD" viewBox="0 0 800 800">
		<title>YD Icon</title>
    <g transform="matrix(500.956,0,0,500.956,64.8879,579.297)">
        <path d="M0.261,-0L0.261,-0.301L-0.001,-0.716L0.168,-0.716L0.336,-0.433L0.501,-0.716L0.668,-0.716L0.405,-0.3L0.405,-0L0.261,-0Z" style="fill:white;fill-rule:nonzero;"/>
    </g>
    <g transform="matrix(500.956,0,0,500.956,399.022,579.297)">
        <path d="M0.072,-0.716L0.336,-0.716C0.396,-0.716 0.441,-0.711 0.473,-0.702C0.515,-0.69 0.551,-0.668 0.581,-0.636C0.611,-0.605 0.633,-0.566 0.649,-0.52C0.665,-0.475 0.672,-0.418 0.672,-0.351C0.672,-0.292 0.665,-0.241 0.65,-0.199C0.632,-0.147 0.607,-0.104 0.574,-0.072C0.549,-0.048 0.515,-0.029 0.472,-0.015C0.44,-0.005 0.398,-0 0.344,-0L0.072,-0L0.072,-0.716ZM0.217,-0.595L0.217,-0.121L0.325,-0.121C0.365,-0.121 0.394,-0.123 0.412,-0.127C0.436,-0.133 0.455,-0.143 0.47,-0.157C0.486,-0.171 0.499,-0.194 0.508,-0.226C0.518,-0.258 0.523,-0.302 0.523,-0.357C0.523,-0.413 0.518,-0.455 0.508,-0.485C0.499,-0.514 0.485,-0.538 0.467,-0.554C0.45,-0.571 0.427,-0.582 0.4,-0.588C0.38,-0.592 0.341,-0.595 0.282,-0.595L0.217,-0.595Z" style="fill:white;fill-rule:nonzero;"/>
    </g>
	</symbol>

	<symbol id="match-player-DonBukka" viewBox="0 0 800 800">
		<title>Donbukka Icon</title>
		<g transform="matrix(500.956,0,0,500.956,32.4774,579.297)">
        	<path d="M0.072,-0.716L0.336,-0.716C0.396,-0.716 0.441,-0.711 0.473,-0.702C0.515,-0.69 0.551,-0.668 0.581,-0.636C0.611,-0.605 0.633,-0.566 0.649,-0.52C0.665,-0.475 0.672,-0.418 0.672,-0.351C0.672,-0.292 0.665,-0.241 0.65,-0.199C0.632,-0.147 0.607,-0.104 0.574,-0.072C0.549,-0.048 0.515,-0.029 0.472,-0.015C0.44,-0.005 0.398,-0 0.344,-0L0.072,-0L0.072,-0.716ZM0.217,-0.595L0.217,-0.121L0.325,-0.121C0.365,-0.121 0.394,-0.123 0.412,-0.127C0.436,-0.133 0.455,-0.143 0.47,-0.157C0.486,-0.171 0.499,-0.194 0.508,-0.226C0.518,-0.258 0.523,-0.302 0.523,-0.357C0.523,-0.413 0.518,-0.455 0.508,-0.485C0.499,-0.514 0.485,-0.538 0.467,-0.554C0.45,-0.571 0.427,-0.582 0.4,-0.588C0.38,-0.592 0.341,-0.595 0.282,-0.595L0.217,-0.595Z" style="fill:white;fill-rule:nonzero;"/>
		</g>
		<g transform="matrix(500.956,0,0,500.956,394.252,579.297)">
			<path d="M0.073,-0.716L0.359,-0.716C0.416,-0.716 0.458,-0.713 0.486,-0.709C0.514,-0.704 0.539,-0.694 0.561,-0.679C0.583,-0.664 0.601,-0.644 0.616,-0.619C0.63,-0.594 0.638,-0.567 0.638,-0.536C0.638,-0.502 0.629,-0.471 0.611,-0.443C0.593,-0.415 0.568,-0.394 0.537,-0.38C0.581,-0.368 0.614,-0.346 0.638,-0.315C0.661,-0.285 0.673,-0.249 0.673,-0.208C0.673,-0.175 0.665,-0.143 0.65,-0.113C0.635,-0.082 0.614,-0.057 0.588,-0.039C0.562,-0.02 0.53,-0.009 0.491,-0.005C0.467,-0.002 0.409,-0.001 0.317,-0L0.073,-0L0.073,-0.716ZM0.218,-0.597L0.218,-0.431L0.313,-0.431C0.369,-0.431 0.404,-0.432 0.417,-0.434C0.442,-0.437 0.462,-0.445 0.476,-0.459C0.49,-0.473 0.497,-0.492 0.497,-0.515C0.497,-0.537 0.491,-0.555 0.479,-0.569C0.467,-0.583 0.448,-0.591 0.424,-0.594C0.41,-0.596 0.369,-0.597 0.301,-0.597L0.218,-0.597ZM0.218,-0.312L0.218,-0.121L0.352,-0.121C0.404,-0.121 0.437,-0.122 0.451,-0.125C0.472,-0.129 0.49,-0.138 0.503,-0.154C0.517,-0.169 0.523,-0.189 0.523,-0.214C0.523,-0.236 0.518,-0.254 0.508,-0.269C0.497,-0.284 0.482,-0.295 0.463,-0.302C0.443,-0.309 0.4,-0.312 0.334,-0.312L0.218,-0.312Z" style="fill:white;fill-rule:nonzero;"/>
		</g>
	</symbol>
	
	<symbol id="match-player-Luna" viewBox="0 0 800 800">
		<title>Luna Icon</title>
		<g transform="matrix(1.2466,0,0,1.2466,-121.443,-86.4789)">
			<path d="M445.183,169.058C555.62,182.286 641.337,275.982 641.337,389.446C641.337,511.964 541.395,611.434 418.294,611.434C295.193,611.434 195.251,511.964 195.251,389.446C195.251,357.628 201.991,327.364 214.126,299.997C210.528,314.362 208.619,329.382 208.619,344.845C208.619,446.242 290.705,528.564 391.811,528.564C492.917,528.564 575.003,446.242 575.003,344.845C575.003,262.064 520.292,191.997 445.183,169.058Z" style="fill:white;"/>
		</g>
	</symbol>

	<symbol id="match-player-ENDLESS ERA" viewBox="0 0 800 800">
		<title>Valharl Icon</title>
		    <g transform="matrix(1.72133,0,0,1.72133,-165.794,97.5638)">
				<path d="M102.709,60.971L165.985,176.324L102.989,290.277L223.381,290.277L279.378,188.084L232.901,187.524L196.334,253.32L169.905,253.32L212.182,176.044L169.905,99.609L196.223,99.609L232.901,165.405L280.218,165.685L223.102,61.251L102.709,60.971Z" style="fill:white;"/>
			</g>
			<g transform="matrix(1.72133,0,0,1.72133,-165.794,97.5638)">
				<path d="M238.177,61.281L301.783,175.623L239.216,290.349L284.838,290.349L346.101,180.588L354.79,180.509L364.349,194.214L311.342,289.936L357.241,290.428L410.573,194.416L394.015,175.036L410.274,153.61L357.17,61.537L238.177,61.281ZM325.164,85.764L297.534,85.764L333.832,150.874L361.462,150.874L325.164,85.764Z" style="fill:white;"/>
			</g>
			<g transform="matrix(1.72133,0,0,1.72133,-165.794,97.5638)">
				<path d="M372.03,61.23L435.633,175.187L372.632,289.893L419.122,289.893L478.824,180.787L505.328,180.787L444.914,290.013L491.682,289.893L554.684,175.187L490.781,61.373L372.03,61.23ZM460.378,85.764L432.748,85.764L469.046,150.874L496.676,150.874L460.378,85.764Z" style="fill:white;"/>
			</g>
	</symbol>

	<symbol id="match-player-growzy" viewBox="0 0 174.16 116.89">
		<title>Growzy Icon</title>
		<path fill="white" d="M158.75,70.56h11.66l-3.91-12.1H140.75l15.41,46.89H93.31l0,0h-32a46.67,46.67,0,1,1,0-93.33h69l-3.57,11.48H61.51c-.33,0-.67,0-1,0a35.5,35.5,0,0,0,0,71h80.58l-11.75-36-51.67,0,4,12,38.42.09,3.75,11.77H61a23.43,23.43,0,0,1,0-46.86H87.11l47.66,0L146.33,0H57.92a58.43,58.43,0,0,0-.13,116.86H174.16Z" />
	</symbol>

	<symbol id="match-player-foger" viewBox="0 0 415.22 522.17">
		<title>Foger Icon</title>
		<path fill="white" d="M411.63,218.41c-30.22-10.9-11.24-6.71-30.56,7.77C377.69,137.63,385.71,48.9,282,11.41,238.3-3.31,240.2.51,183.3.29,78.88,8.17,36.69,80.61,40.19,174.07c-.62,9.59-2.22,54.23-7.12,50.23-1.27-3.54-7.45-11.7-12.33-7.56-3.69,3-17.45,13.5-19.56,17.22-.77,1.22-2.22,3.89,0,5s1.78,3.89,2.56,9.89,5.56,12.22,13.67,27.33c12.21,24.93,12.93,37.07,17.33,57.22.07,13.32,3.17,16.58,15.44,17.89,1.67.78,1.23,3.56,1,6.67-.57,51.21,7.56,81.88,51,114.66,32.53,26.57,57.9,49.84,102.88,49.45C240.25,523.5,260,508.89,290.29,488c64-44.1,71.23-59.58,71.56-135.78,0,0,11.56-4.77,15.33-6s4-5.33,4.12-7.66A236.92,236.92,0,0,1,386,299.85c8.12-16.63,15.55-41.45,23.44-59,2.12-3.33,4.45-12.22,5.55-17S413.52,219,411.63,218.41Zm-12.34,2.26c2.31.94-.06,3.39-1,.61A2.82,2.82,0,0,1,399.29,220.67Zm-8.36,14.5c-13,26.84-11.75,26.72-26.44,77.33-1.54,3.13-.39-7.14-.11-13.44,1-10.49,3.84-37.77,5.78-43.33C370.32,256.4,404.94,209.33,390.93,235.17Zm-27.23,5a3.22,3.22,0,0,1,.43-2.25c.67-.75,1-1.34,1.67-1.5s1.5.41,1.08,1.87-.77,2-1.55,2.21A2.63,2.63,0,0,1,363.7,240.2ZM54.42,113.11s4,5.34,4.21,5.67,4,5.58,4.67,6.29,1.12,2.17,1.62,2.84-2-1-2.71-2.09-5-5.71-5.16-6-2.48-2.72-2.63-3.29A12.37,12.37,0,0,1,54.42,113.11Zm-42.9,121c6.2-13.62,17.32-1.55,24.55,3.89,2.34,1.89,6.45,3.78,7.23,8.11C48.78,277.68,50.63,269,51.07,313c.11,1.11-.77.11-1.33-2.44C44.81,286,33.16,253.89,13.52,237.74,12.41,237.41,10.3,237.18,11.52,234.07ZM26,282.18c-.71,4.32-3.88-5.22-4.22-6.77C19.2,269,9.6,255.57,8.63,247.41c-.45-5.12.26-7.89,2.52-5.12s10.67,6.56,11.59,15.23C22.75,264,26.27,275.61,26,282.18ZM51.08,344c-7.44.75-5.92-5.11-9.67-8.67-.62-5.16-5.46-22.57-6.34-27l6.67,6.56a35.17,35.17,0,0,0-4.56-9.11c-9.87-8.56-9.14-27.24-9.66-37.45,1.35-13.83,19.37,49.3,23.56,47.89C51.85,320.85,51.43,339.74,51.08,344ZM277.8,420.07c-1.67.29-2.3-.16-5.05,2.54-1.42,1.44,1,.29,1,1.13-.13.49,1.32,1.87.21,1.79-1.79-.08-1.44,1-.83,1.75,0,.17.33.83-.29.92-3.13.5-3.1,3.45-4.38,6.5a29,29,0,0,1-3.87,5.33c-1.13,1-2.58,5.57-4.63,3.79-.33-.83-.58-.41-.66,0-.72,1.79-4.15,4.69-4.5,6.84-.09.79-.05,2.66-.67,2.66a16,16,0,0,0-4.71,2.13c-.29.46-.79.17-1.21-.29s-.79.25-.71.83-1.2,2.71-1.33,3.08.46,2.25.13,2.63c-1.59,2.72-2-2.5-3.46.86-.09.51.12,1.89-.67,2.1s-1.92-.29-2.12.62-.75.79-.84,1.59.84.2.79.79-.25,2.08-1,1.83-5.95,1.29-6.66.63-.71-1.75-1.71-1.42c-7.09,3.36-17.55,1.05-25,2.79-2.42-.08-17.42.43-18,0a1.11,1.11,0,0,0-1.71.17c-.5.66-1.54,1.22-2.2,0-2.67-3.75-12-11.6-14.71-15.38-3.66-3.24-5.11-7-8.42-10.46a6.45,6.45,0,0,1-2.21-2.41c-.16-.46-1.54.21-1.66-.38s-.63-3-1.75-3.12c-3.11.28-4.53-3.66-3.63-5.84.67-.66.88-1.58-.27-1.87s-4.73-1.08-5.9-1.92-3.33-2.66-2.33-2.79,1.21-.71.42-.71c-2.67.55-5.79-4-4.3-6.29,1-.67,2.05-1.87.67-2.83a1.93,1.93,0,0,1-.66-3c.62-.88,3.91-2.92,4.58-2.5s.87,1,1.58,1c2,0,2-1.72,3.38-3,.66-.67,4.12-3.25,4.12-3.25H259.55a33.84,33.84,0,0,1,5.83,2.33c4.83,3.37,6.37-1.68,8.67-.6,2.17,2.1,4.23,4.9,4.29,7.81C278.34,417.45,279.46,419.78,277.8,420.07ZM270.55,396c2.16.16,2.33,2.33,1.66,4.83-4.27.54-7.79.58-11.33,4.61-15.47-1.26-30.87-4-42.83-8.94-11.78,5.54-13.49,1.84-23.67,1.16-13.17,5-36.5,5.84-36.5,5.84-1.67,2.6-7.44,2.13-10.83.83-1.34-1.83-3.34-3.17-4.17-2.72s-.67-1.45-1.33-.78c-2.5,2.83-2.34-2.83-1.67-4,9.17-4.09,41.29-16,52.22-18.86,6.36,5.95,32.5,2.91,38.11-2.53,6.57,4.78,22.51,11.92,30.67,14.58,3.56,1.71,10.74,1.41,10.11,4.64C270.57,394.64,269.88,394,270.55,396Zm88.66-120.09c-4,22.9-1.42,39.19-8.41,55.92-1.67,5.33-3.5,6.42-5.67,9.25s-6.33,15.25-7.33,17.67-6.75,6.75-9.34,8.75S313,382,311.55,383s-1.34,1.08-.67,1.5c1,3.15-6.72,9.18-8.59,12.25-1.41,2-4.58-2.23-5.24-.42a7.87,7.87,0,0,1-1,4.5c-1.13,1.81-2.74-3.39-1-4.16,1.37-1.84-3.42-1.66-1.67-3.75.74-2.36-2.46-2.52-2.08-4.92-.83-2.51-2.08-.3-3.92-2.58-10.82-10.26-30-19-43.59-24.34-1.84-.91.61-5.31,2.59-4.5,1.6.18-1.43,3.65,1.5,3.5,1.49-1.69,2.76-6.87,5.25-8.5,1.94-4,.45-13.27-5-15.08,1.43,2.1,3.64,7.65,2.92,11.33-.48,3.67-6,4.42-7.84,6.84-2,1.33-4.56,7-7.16,6.16-.5-.08.25-1.75.75-2.41s2.25-7.59,2.58-10.09c.15-5-1-.19-1.17,3-2.55,8.52-6.92,22.9-17.41,24.67-15.07,1.4-26.7,1.72-36.5-11.42-7.24-7.37-22.81-10.45-16.84-23.5-6.29,9.27-4,14.23,2.92,18.75,2,.25,3.25.25,3.67,1s2,.92,3.16,1.59.34,1.75.34,2.41-1.17.17-1.67-.25c-2.18-2.54-11.51,3.64-15.33,4.59-2.67,1.08-22.5,11.08-23.92,11.5s-5.42,1.25-7.58,3.33-2.5,1.08-2.84,2.08a7.4,7.4,0,0,1-2.25,2.75c-.58.42.17,2.09.42,3.59s-1.17,4.66-1.25,6.41,1,5-4-.91S104.8,383.28,103.21,383s-1.58-.42-2.16-1.33-5.75-8.42-6.59-9.92c-3.26-4.68-2.67,5-5.41-1-1.67-3.25-7.09-10.25-8-11.25s-1.09-.25-3.42.33c-.33-5.75-1.92-5.41-2.83-4.83s-.17,1.17-2.75,1.17c-.09-1,.08-5.42-.25-6.17S70.63,350,70,346.45c-4.17-30.23-9-68.87-14.16-98-.45-4.67-2.85-10-3-14.92-.21-1-.42-.08-1.76-1.08s-.95-3.17-1.08-3.83-.12-.71.59-.5c1.57.14,2-2.39,1.58-3.46-2.77.67-3.88-6.64-4.12-9,.31.56,7.9.93,5.33,0a34.38,34.38,0,0,1-4.29-1c-1.34-.25-1-1.17-1-1.17,0-1.19,0-7,.22-9.5.68.6,5.84,3.92,5.29,2.21-.6-.49-5.32-3.42-1.25-1.79,1.71.54,1.33-.29,1.33-.29-1.67-.75-7.38-2.82-5.1-5.63.41.18,11.65,6.94,8,3.55-1.75-.84-6.5-3.8-7.42-4.21s-.46-2.92-.25-4.63c2.17,1.75,3.33.75,2.79.63-1.6-1.15-3.79-1.34-3-4.21,0-.67,1.15.58,3,1.79,5.12,2.32-.74-1.66-2.12-2.17-1.13-.37-.84-3-.79-4.25s-.26-1,.54-.58a61.79,61.79,0,0,1,6.33,4.13c.67.66,1.79-.21,1.08-.5s-5.66-3.75-7-4.34-.87-3.66-.88-4.33,2.38,1.25,2.47.75c-.28-1.31-2.43-1-2.3-3.38-.33-.7.59-.08.92.38s2.13.46,1.58,0c-1-.54-4.31-2.55-1.75-3.71.54.64,4,3.5,3.8,1.63-.5-.38-2.17-1.5-3.38-2.29s-.67-2.09-.72-3c-.05-.45,1.43.8,1.76,1.17.71.26,14.23,11.2,13.38,8.38-3.1-2.25-7.44-5.25-10.75-7.5-4.32-2.91-4.69-2.44-4.34-8.46.62-.06,14.33,13,13.38,9.61-2.42-1.67-6.79-5.49-7.29-5.95-1.67-1.61-6.85-4.22-5.29-7.75.33.25,3,2.55,3.62,3.25,3.19,1-1.49-2.66-2.83-3.54s-1-2.29-1-3.25c-.08-.37.58.21,1,.63.65.25,4.31,5.33,4.25,3-1.22-2.29-6-3.55-5.25-6.8,0-.66.37-.16,1.12.46s7.8,7.75,9.88,9.71,1.5,1.21,1.12,2c-.79-.38-4.68-4.43-4.41-2.54,2.08,1.38,7.75,7.46,10,8.58S70.34,173.41,71,173c3.09-2.52-.23-4.13-1.5-5.63-2.39-.6-7.88-7.72-10.62-9.83-5.75-4.77-9.17-4.66-7.79-13.37,5.77,6.47,13.36,14.54,19.54,20.79.54.41,4.14,5.43,4,2.62-3.24-3.12-10.14-9.63-12.71-13.37-2.32-2.76-11.33-9.59-10.45-14,5.91,6.79,11.12,12.87,18,19,2,1.65,5,7.84,6.71,6.38-.46-1.44-5.24-5.59-6.37-6.84-3.45-3.23-8.32-9.37-12.09-13-2.25-2.47-4-5.66-6.12-7.21-.65-5.67,2.25-1.28,4,1.46,4.09,4.39,8.93,9.18,13.25,13.75,1.51,1.24,4.08,5.39,5.37,4.25C71.26,154.35,61.33,144.92,57.3,140c-2.16-2.54-6.13-5.38-4.8-9.75,6.09,7.53,16,17.68,22.63,24.71.67.45,3.94,4.76,3.17,1.71-1.41-1.6-7.74-6.85-8.38-9.09a74.15,74.15,0,0,1-10-10.66c-.93-1.3-5.53-6.79-7-7.88a24.31,24.31,0,0,1,.21-4.92c1.25.5,1.79,2.34,1.92,2.55.71.9,5.9,4.87,6,6.75,1.69,1.78,5.32,4.82,6.79,7.5,4,3.91,9.49,9.28,13.21,13a14.25,14.25,0,0,0,2.33,2.21c.33.16,1-.17.29-.88-6.73-6.63-16.26-16-22.12-23.46-1.92-2.55-5.56-6.17-7.67-8.5-.71-.79-.33-2.62-.25-5.58,10.11,11,20.51,25.81,32,35.33.9.91,2.39-.78,1.83-1.5-9.88-7.53-18.12-18-24.62-28.75-2.2-3-7.17-9.29-8.25-12.21,0-.7.37-3.12.46-4.5,3.76,7.94,10.39,18.22,16.46,24.5,1.82,1.15-.78-2.29-1.3-3-3.72-5.56-10.87-18.18-13.5-24.5-.48-1.38-1.23-5.76.88-4.12.42.37,1.75,3.58,2.08,3.71,1.88-1.29,1.32-.32,2.84,1.41.18-2.39-2.4-4.78-2.21-7-.12-1.07-2.74-3.21-1.5-4.75.64-2,2.13-3,3-4.29,2.68-11.53,4-3.49,6.33,1.54.54,1.17.79.13.67-.54-.54-4.22-5.66-7.24-2.34-11.71.75-1.79.59-1.29,1.46-1.5,0,1,.42.92.75,1s.21-.71.21-3c6.13-11.39,18-25.2,33.5-35,29.07-17.53,64.67-30,98.33-31.17,34.77.2,45.28-.36,69.17,6.84,8.17,1.83,18.33,7.83,21.66,10.5,10.89,7.57,36.66,19.61,45.5,28.66,9.06,8.57,3.9,4.9,4.34,11.75-.08-.41.92-.91,1.5-1.91a1.13,1.13,0,0,1,1.83-.17c.17.25,1.67,2.83,2.34,3.75,1.33.85-2.35,7.47-.92,7.67,2.62-4.44,4.36-2.51,2.92,1.5a22.77,22.77,0,0,0-2,3.91c-.42,1.34-.09,3.67.16,3.67,1.16-.46,2.51-6.48,4.17-5.17,2.17,4.72-3.67,11.73-5.75,16.67,1-.17,3.92-2.92,4.5-3.75s1.42-3.5,2-3.83c3.58,2.43-8.28,17-5,15.58.58-.58,1.17-3.17,1-2.08,1.75,4.3,4.71-6.81,6.17-7.42,3.23,1.23,1.4,6.49-.51,10.08-3.61,7.63-5.58,12.29-9.66,18.5-.67,1.25-1.58,1.09-1.5.67.15-.18,6.75-16.17,4.33-13-1.39,4.23-6.91,16.92-10,20.5.35.5-6.47,6.89-4.41,7.25.05.39,3-4.24,2.75-1.92-.17.42-1.42,2-1.67,2.42s-.58,2.08.67.75c7.08-10.45,17.83-25.84,22.5-37.17.41-1.08,1.16-2.33,2-.91A131.19,131.19,0,0,1,364,116.61c-6,9.42-13.68,20-19.83,29.75-.83,1.59-3.17,4.09-4.17,5.42s.25,2.42.5,3.17,2.09-1.42,2.42-2.25c4.49-8.34,11.95-19,17-27.17.9-1.4,5.36-11,5.33-3.83-5,7.21-11,18.24-16.42,25.66-.63,1.54-8.89,10.51-5.75,10.5,3.2-4.44,11.26-16.07,14.09-20.91,1.92-2.19,6.35-11.82,8.5-13.09,1.71,3.55-9.69,17.92-11.75,22,.67.16-13.28,16.2-9.33,14.59,6.81-7.62,13.78-18.43,19.15-27.84,3.15-8.08,4-.54,4.68,4.25.33,3.09-1.33,4-3.42,7.42-6.42,9-9.67,13-15.91,21.83-1.59,2.25-.09,2.84.08,2.42,4-5.59,13.46-16.49,17.08-22.83,2.3-7.68,4.73-2.22,2.84,1.66-1,1.67-7,9.75-7.67,10.75s-7.58,11.09-8.58,12.25-.75,4.34,0,3.25c1.33-3.08,14.16-20.16,15.41-22.33,3.39-7.18,2.9,3.25,1.92,4.92-.33.75-6.58,8.66-7.09,9.41-.36,1.44-10.24,10-8.33,12.5,4.89-4.76,11.52-15.24,16.5-20.33,1.8,6-3.92,10.23-7,14.92a101.7,101.7,0,0,1-7.58,8.66c-.5.34-.5,2.42.25,1.59,1.33-1.42,11.33-12.92,12.08-14.34,4.76-8.24,2.72,3.44,3,6.84-.47,4.7-.41,9.32-2.33,12.83-.33.92-6.42,6.83-7.67,7.75s-2,2-.91,2.67c.75-1.09,8.33-8.34,8.83-8.92s.25,1.25-.08,5.25c-.42.75-6.92,7.08-7.84,8s-.75,3,0,2c7.57-7.07,9.93-14.88,9,1.92-1.53,1.08-7.13,7.16-8.3,8.5s-.5,1.41.5,2.16a16.56,16.56,0,0,1,7.58-7.25c1.05,4.62-.62,15.87-2.33,21.09-.25,2.58-1.83,2.75-2.83,2.91s-2.09,1.34-2.34,3.25A279.23,279.23,0,0,1,359.21,275.86Zm46.5-46.8c-.22.55-2.11,10.78-3.44,13.33-1.79,2.73-4.58,12.5-7.22,8.22.56-1.24,2.73-5.42.33-5.89-7.78-3.64-2.06,20.48-4,25-5.34,9.26-7.1,22.41-13.22,32.33-2.56,3.89-8.34,13.33-9.11,14.55-2.73,7.28,5.21-5.64,6.66-2.44.45.78.67,1.56.22,3.89-.76,4.39-2.35,18.18-1.77,22.11-2.78-.54-8.92,4.93-11.67,4.56-1-.34-.33-1,0-2.12s0-15.66,0-15.66c1.87-1.85,3.67-16.65,4.56-18.78,1.28-3.84,5.28-12.16,5.11-16.22,8.81-18.45,17.93-49.45,28.11-67.45,1.09-3.11,3.73-.52,5,.45C406.05,225.61,405.93,228.5,405.71,229.06Z"/>
		<path fill="white" d="M156,418.45a5.56,5.56,0,0,1,2.92,1.08c.42.42,5.17,5.42,6.92,6.33s2.66,2.09,3.5,2.42a21.66,21.66,0,0,1,4.25,1.75c1.41.92,3.08,3.17,11.83,4.67s12.83,2.75,19,2.66a139.29,139.29,0,0,0,20-2c3.25-.75,12.33-3.41,13.67-4.33s7.91-4.75,8.33-5.25,2.83-2.58,3.33-3.33,3.59-3.77,4.67-4,2.25-.08,2.83-.49c-.83,2.25-2,3.41-2.75,3.75a12.77,12.77,0,0,0-4.5,3.83c-1.33,2-6,6.67-8.25,7.92s-4.08,2.26-5,3.92-3.66,8-4.25,9.58-3.41,7.08-3.75,8.75-.91,3-2.25,3.58-3,1.42-4.58.75a33.36,33.36,0,0,0-8.42-1.67,34.15,34.15,0,0,0-6.25.34c-1.25.33-3.5,1.33-3.58,2.16s-.83,1.34-1.5.75a3.33,3.33,0,0,0-2.78-.41c-.72.25-1.39-.84-2.22-1.25s-3.83-3.17-5.92-.59c-.83,1.17-.58.5-1.16-.33s-1.59-4-3.42-4.83-1.17-1.09-.5-1.09.5-.91.17-1.58-1.84-4.33-4.09-4.08-1.5-.67-.83-.67.25-1.08-.25-1.5-6-7-7.25-7.5-.58-1.08-.08-1.08.16-.59-.34-1.17-2.66-1.25-3.66-2.08-2.5-3.59-3.34-4.25-6.66-7.5-9.25-8.67S156,418.45,156,418.45Z"/>
		<path fill="white" d="M122.93,261.47a4.37,4.37,0,0,1-.08-1.94c.26-1.92,1.83-2.28,3.31-2.28a3.29,3.29,0,0,1,3,3.11c0,1.42-.51,3.39-3.05,3.39A3.57,3.57,0,0,1,122.93,261.47Z"/>
		<path fill="white" d="M288.17,257.6a2.61,2.61,0,0,1,2.54-2.74,2.56,2.56,0,0,1,2.71,2.49c0,1.38-1.22,2.23-2.7,2.23S288.17,258.77,288.17,257.6Z"/>
		<path fill="white" d="M228.55,264.28c8.15,17.14,2.54,17.79,1.22,31.67,1.35.09,1.06-5,2.11-6.67a33.15,33.15,0,0,0,2.17-7.33C234.94,280.54,230.34,256.62,228.55,264.28Z"/>
		<path fill="white" d="M252.05,280.52c-1.34,1.07-5.61-2.13-5.62-1.85-.88-.33.5,1.27-.61.78s-4.44-1.11-5.61-2.23c-4.56-3.68-6.63-8-4.44-15,1.67-5,3.4-9,6.78-7.88.11.66.44,5-.06,6.5s-1.06,4.83-.33,5.77C245.19,270.7,248.26,276.71,252.05,280.52Z"/>
		<path fill="white" d="M165.82,280c.92-1.49,4.78-4.76,6.27-6.67s1.81-3.37,1.34-4.89c-.9-3-2.55-6.39-4.16-7.89s-.61-3.19,1.66-2.9,4.12.29,5.06,1.62,2.33,2.62,2.56,5.78.44,7.17-1.17,8.56-6.95,5.72-8.28,6S164.38,282.28,165.82,280Z"/>
		<path fill="white" d="M242.27,237.67c10.19-14,43.39-38.85,66-33.5,17.34,6.62,26.74,16,31.28,27.55.61,3.23-.5,2.95-1.23,2.06a86,86,0,0,0-11.89-9.89c-6.84-6.15-21.06-11.3-29.89-7.11-12,4.07-15.32.7-28.61,8.95-12.13,6.83-15.91,9.85-23.16,16.55C242.61,244,241.79,238.27,242.27,237.67Z"/>
		<path fill="white" d="M323.38,260.7c-2.13-2-5.19-8.25-9.33-11.34-9.41-9.58-37.72-.24-45.88,6.5-4.82,3.7-8.59,5.6-10.83,10.09-.17,1,.58.41,1.41.46s8.92,1.87,9.84,2.12,2.54,1,3.33.79.5-2.41.25-2.75a12.53,12.53,0,0,0-4.25-1.29c-15.28-.28,9.89-9.2,9.21-8.46-1.45,21.46,34.63,12.92,27.87-4.71-.63-2.48,8.82,2.21,10.05,2.34,1.41.41,2.2,2.37,2.62,2.77a13.13,13.13,0,0,0,2.67,2.36c.75.25.21.66.16,1.24.31.41-11.08,6.37-8.62,6.34a15.22,15.22,0,0,0,9.42-5.8C321.89,260.34,323.63,261.73,323.38,260.7Zm-21.58-.09c-4.95,8.23-23.12,7.37-22.38-4.41,3-1.84,17.76-6.31,21.08-5.54C302.61,252,303.65,258.33,301.8,260.61Z"/>
		<path fill="white" d="M171.05,249.61c-1.67.51-18.13,2.3-20.52-.33-1.67-.89-6.08-1.28-9.36-2.42-2.65-.91-9.33-5.54-12.9-7.13-6-1.87-16.81-5.27-23.64-5.2-8.38,1.86-18.91,5.13-25.75,11.29-3.33,2.56-10.54,5.46-12.06,8.79-.3,1.17,2.35,3.8,2.93,4.38,3.69,2,4.62-1.2,8.84-3.08a18.17,18.17,0,0,1,6.16-2.21c7.34-4.95,14.8-9.69,24.13-5.17,2.29.54-.67,2.25-2.67,2.79a43,43,0,0,0-9.29,5.13c-2.18,2.62-3.19,10.38.17,12.81.57,1.08,12,1,7.79-.19-3.16-1.28-6-.57-5.75-5.83-.21-3.9,11-6.52,13.54-6.92-6.09,18.62,27.07,21.77,26.87,2.5.05-1.54.3-1.57.3-1.57,5.86,1.89,14,4.42,16.75,8.86,1.67,1.4-.85,1-1.63,1.21-1.5.48-3.15,2.86-4.5,3.67-.5.37.92,1,1.63,0a8.36,8.36,0,0,1,4.12-3.08c.77-.55,7.65.56,5.84-.63-2.71-1.49-6.59-5.71-9.84-7.58a48,48,0,0,0-7.5-3.21c-2-.71-.41-1.5-.5-1.88,9.45.46,21.59,1.14,26.84-3C172.27,250.17,172.16,249,171.05,249.61Zm-37.34,15.3c-8,8.62-22.14,1.34-18.91-9,3.38-2.87,20.27-1,22,.51C136.75,259.7,136.92,262.36,133.71,264.91Z"/>
	</symbol>
	<symbol id="match-player-twillsie" viewBox="0 0 409.02 437.48">
		<title>Twillsie Icon</title>
		<path fill="white" d="M204.51,0C91.64,0,0,91.64,0,204.51c0,48.77,18.42,95.67,47,130.8A15.6,15.6,0,0,0,64.66,340c4.11-1.58,7.9-3.85,12.46-3.85,24,0,45.74,22.57,44.63,69.25a15.62,15.62,0,0,0,4.5,11.33c6.29,6.37,14.66,11.35,32.8,11.43a18.17,18.17,0,0,0,4.21-.46,17.92,17.92,0,0,0,2.54,2.54c9.85,8.05,24.94,9,36,4.67a16.89,16.89,0,0,0,2.61-1.27,24.85,24.85,0,0,0,6.85,2.66,48.21,48.21,0,0,0,18.41.19,28.91,28.91,0,0,0,16.55-9,23.08,23.08,0,0,0,2.79.5,43.68,43.68,0,0,0,15.66-1.52c10.84-3,19.54-10.73,21.66-17.88a16,16,0,0,0,.64-4.23c.58-46.63,20.38-68.17,44.46-68.17,4.63,0,8.79,1.59,13,3.2a15.58,15.58,0,0,0,17.73-4.7C390.77,299.52,409,253.33,409,204.51,409,91.64,317.38,0,204.51,0ZM350.05,324.85c-5.95-2.31-12-4.26-18.59-4.26-30.45,0-59.32,24.62-60.06,83.57-2,6.65-19.28,10.21-23,7.56-5.17-3.68-3.79-18.16-5.55-20.28a3.19,3.19,0,0,0-4.5-.64c-2.14,1.73-.61,19-3.1,25.27-2.78,6.95-20.12,6.6-23.4,3.85-5.44-4.54-1.92-22.22-5.31-25-1.85-1.52-2.78-1.3-4.54-.53-2.38,1-1.06,24.19-5.79,26-6.31,2.44-14.94,2.38-20.55-2.2-5.1-4.17-1.39-24.92-3.5-26.75a3.47,3.47,0,0,0-4.14-.53c-1.92.78-3.39,21.71-8.91,21.68-11.9-.05-17.63-2.61-21.76-6.79,1.4-59.13-29.8-85.22-60.23-85.22-6.54,0-12.14,2.63-18,4.88h0C32.67,293,15.6,249.62,15.6,204.51,15.6,100.25,100.25,15.6,204.51,15.6s188.91,84.65,188.91,188.91C393.42,249.65,376.51,292.33,350.05,324.85Z"/>
		<path fill="white" d="M175.39,330.16c-4.59-6.2,2.93-19.24,8.34-27.49,6.8-10.37,15.63-18.84,19.93-18.8,5.16.05,16.33,15.5,18.71,18.89,2.91,4.13,12.58,16.21,9.84,25.77-1.92,6.74-13,11-27,11.35S179,335,175.39,330.16Z"/>
		<path fill="white" d="M289.91,288.53a80.31,80.31,0,0,0,75.45-111.12,74,74,0,0,1-75.45,111.12Z"/>
		<path fill="white" d="M93.38,287.87a80.31,80.31,0,0,0,75.44-111.12A74,74,0,0,1,93.38,287.87Z"/>
		<path fill="white" d="M291.6,141.74a79.53,79.53,0,0,0-43.68,125.62A73.31,73.31,0,0,1,291.6,141.74Z"/>
		<path fill="white" d="M95.06,141.09A79.53,79.53,0,0,0,51.38,266.7,73.3,73.3,0,0,1,95.06,141.09Z"/>
		<path fill="white" d="M259.35,253.21a10.59,10.59,0,0,1-7.62-2.87,9.62,9.62,0,0,1-3-7.26,11.08,11.08,0,0,1,3.46-8.45,12,12,0,0,1,8.55-3.27,10.51,10.51,0,0,1,7.57,2.82,9.69,9.69,0,0,1,2.94,7.32,11,11,0,0,1-3.52,8.39,11.81,11.81,0,0,1-8.38,3.32Z"/>
		<polygon fill="white" points="301.4 252.31 317.58 173.48 298.75 173.48 282.57 252.31 301.4 252.31"/>
		<polygon fill="white" points="339.3 252.31 355.47 173.48 336.64 173.48 320.46 252.31 339.3 252.31"/>
		<path fill="white" d="M267.67,212.78a10.55,10.55,0,0,1-7.62-2.87,9.58,9.58,0,0,1-3-7.26,11.09,11.09,0,0,1,3.47-8.45,12,12,0,0,1,8.55-3.26,10.46,10.46,0,0,1,7.56,2.81,9.66,9.66,0,0,1,2.95,7.32,11,11,0,0,1-3.52,8.39,11.77,11.77,0,0,1-8.38,3.32Z"/>
		<path fill="white" d="M143.7,200.13H123.54V180a16.32,16.32,0,1,0-32.64,0v20.16H70.74a16.32,16.32,0,1,0,0,32.64H90.9v20.16a16.32,16.32,0,0,0,32.64,0V232.77H143.7a16.32,16.32,0,1,0,0-32.64ZM71,222.41l-8.21-5.89L71,210.63Zm36-50.12,5.89,8.22H101.14Zm0,88.47-5.89-8.22h11.78Zm36-38.35V210.63l8.22,5.89Z"/>
	</symbol>
</svg>
